<?xml version="1.0" standalone="no"?>
<!DOCTYPE svg PUBLIC "-//W3C//DTD SVG 1.1//EN" "http://www.w3.org/Graphics/SVG/1.1/DTD/svg11.dtd" >
<svg>
<metadata>
Created by FontForge 20090622 at Fri May  8 06:36:30 2015
 By deploy user
Copyright (c) 2012 by ALS Studio. All rights reserved.
</metadata>
<defs>
<font id="ALSSchlangesans-Bold" horiz-adv-x="519" >
  <font-face 
    font-family="ALS Schlange sans"
    font-weight="700"
    font-stretch="normal"
    units-per-em="1000"
    panose-1="2 0 8 6 4 0 0 2 0 4"
    ascent="800"
    descent="-200"
    x-height="485"
    cap-height="690"
    bbox="-182.741 -276.333 1176 890.526"
    underline-thickness="50"
    underline-position="-50"
    unicode-range="U+0020-U+FB02"
  />
<missing-glyph horiz-adv-x="240" 
 />
    <glyph glyph-name=".notdef" horiz-adv-x="240" 
 />
    <glyph glyph-name="l" unicode="l" horiz-adv-x="337" 
d="M60 632q0 23 14 40.5t42 17.5q29 0 43 -17.5t14 -40.5v-462q0 -42 13 -61t44 -19q14 0 29 4t24 8q19 8 36.5 3t24.5 -22q9 -23 -0.5 -41t-31.5 -30q-21 -12 -48 -17t-53 -5q-70 0 -110.5 38t-40.5 126v478z" />
    <glyph glyph-name="i" unicode="i" horiz-adv-x="233" 
d="M60 432q0 23 14 40.5t42 17.5q29 0 43 -17.5t14 -40.5v-374q0 -24 -14 -41t-43 -17q-28 0 -42 17t-14 41v374zM51 619q0 29 17.5 45t47.5 16q29 0 47.5 -16t18.5 -45q0 -30 -18.5 -45.5t-47.5 -15.5q-30 0 -47.5 15.5t-17.5 45.5z" />
    <glyph glyph-name="o" unicode="o" horiz-adv-x="549" 
d="M35 245q0 54 15.5 101t46 81t75 53.5t102.5 19.5t103 -19.5t75.5 -54t46 -81t15.5 -100.5t-15.5 -101t-46 -81t-75.5 -53.5t-103 -19.5t-102.5 19.5t-75 53.5t-46 81t-15.5 101zM151 245q0 -34 8 -63t23.5 -50.5t38.5 -33.5t53 -12q31 0 54.5 12t39 33.5t23 50.5t7.5 63
t-7.5 63t-23 50.5t-39 33.5t-54.5 12t-54 -12t-38.5 -33.5t-23 -50.5t-7.5 -63z" />
    <glyph glyph-name="t" unicode="t" horiz-adv-x="337" 
d="M60 552q0 23 14 40.5t42 17.5q29 0 43 -17.5t14 -40.5v-62h85q54 0 54 -48q0 -23 -13.5 -35.5t-40.5 -12.5h-85v-223q0 -42 12.5 -61.5t44.5 -19.5q14 0 29 4t24 8q19 8 35.5 3.5t24.5 -22.5q9 -23 -1 -40.5t-30 -29.5q-21 -12 -47.5 -17.5t-52.5 -5.5q-72 0 -112 39.5
t-40 129.5v393z" />
    <glyph glyph-name="b" unicode="b" horiz-adv-x="544" 
d="M60 632q0 23 14 40.5t42 17.5q29 0 43 -17.5t14 -40.5v-208q22 35 57 55.5t89 20.5q47 0 82.5 -18t59.5 -49.5t36 -76t12 -96.5q0 -58 -13 -107.5t-41 -85.5t-70.5 -56.5t-100.5 -20.5q-43 0 -75 7.5t-51 18.5q-14 -16 -42 -16t-42 17t-14 41v574zM296 404
q-40 0 -64 -19.5t-37 -50.5t-17.5 -69.5t-4.5 -77.5v-78q40 -23 99 -23q34 0 57 13.5t37 37t20.5 55.5t6.5 70q0 64 -23 103t-74 39z" />
    <glyph glyph-name="c" unicode="c" horiz-adv-x="461" 
d="M420 36q-29 -23 -69.5 -34.5t-85.5 -11.5q-108 0 -169 65.5t-61 185.5q0 60 16.5 108t47 81.5t74.5 51.5t99 18q41 0 73.5 -7t55.5 -21q22 -14 27.5 -31.5t-2.5 -35.5t-24 -23.5t-42 2.5q-20 6 -38.5 10.5t-46.5 4.5q-58 0 -91 -42t-33 -116q0 -72 34.5 -111t90.5 -39
q28 0 50.5 8.5t45.5 19.5q25 12 42 8.5t26 -18.5q11 -17 5.5 -36.5t-25.5 -36.5z" />
    <glyph glyph-name="f" unicode="f" horiz-adv-x="332" 
d="M60 494q0 52 8 88.5t28 62.5q21 26 56 40.5t78 14.5q36 0 64.5 -6.5t44.5 -16.5q39 -23 26 -60q-8 -22 -24.5 -26t-39.5 2q-13 4 -29.5 7.5t-36.5 3.5q-32 0 -47 -20.5t-15 -57.5v-36h85q54 0 54 -48q0 -23 -13.5 -35.5t-40.5 -12.5h-85v-536q0 -24 -14 -41t-43 -17
q-28 0 -42 17t-14 41v636z" />
    <glyph glyph-name="k" unicode="k" horiz-adv-x="462" 
d="M60 632q0 23 13.5 40.5t41.5 17.5q29 0 42.5 -17.5t13.5 -40.5v-365l170 194q23 26 44.5 28.5t39.5 -14.5q15 -15 13 -36t-21 -41l-141 -150l158 -150q19 -18 21.5 -40.5t-12.5 -38.5q-20 -22 -43 -18t-44 26l-185 188v-157q0 -24 -13.5 -41t-42.5 -17q-28 0 -41.5 17
t-13.5 41v574z" />
    <glyph glyph-name="afii10080" unicode="&#x43e;" horiz-adv-x="549" 
d="M35 245q0 54 15.5 101t46 81t75 53.5t102.5 19.5t103 -19.5t75.5 -54t46 -81t15.5 -100.5t-15.5 -101t-46 -81t-75.5 -53.5t-103 -19.5t-102.5 19.5t-75 53.5t-46 81t-15.5 101zM151 245q0 -34 8 -63t23.5 -50.5t38.5 -33.5t53 -12q31 0 54.5 12t39 33.5t23 50.5t7.5 63
t-7.5 63t-23 50.5t-39 33.5t-54.5 12t-54 -12t-38.5 -33.5t-23 -50.5t-7.5 -63z" />
    <glyph glyph-name="afii10079" unicode="&#x43d;" horiz-adv-x="550" 
d="M377 203h-204v-145q0 -24 -14 -41t-43 -17q-28 0 -42 17t-14 41v374q0 23 14 40.5t42 17.5q29 0 43 -17.5t14 -40.5v-129h204v129q0 23 14 40.5t42 17.5q29 0 43 -17.5t14 -40.5v-374q0 -24 -14 -41t-43 -17q-28 0 -42 17t-14 41v145z" />
    <glyph glyph-name="afii10081" unicode="&#x43f;" horiz-adv-x="538" 
d="M365 390h-192v-332q0 -24 -14 -41t-43 -17q-28 0 -42 17t-14 41v374q0 23 14.5 40.5t41.5 17.5h305q28 0 42.5 -17.5t14.5 -40.5v-374q0 -24 -14 -41t-43 -17q-28 0 -42 17t-14 41v332z" />
    <glyph glyph-name="afii10068" unicode="&#x433;" horiz-adv-x="390" 
d="M340 490q27 0 40.5 -14t13.5 -37t-13.5 -36t-40.5 -13h-167v-332q0 -24 -14 -41t-43 -17q-28 0 -42 17t-14 41v374q0 23 14.5 40.5t41.5 17.5h224z" />
    <glyph glyph-name="afii10084" unicode="&#x442;" horiz-adv-x="439" 
d="M389 490q27 0 40.5 -14t13.5 -37t-13.5 -36t-40.5 -13h-111v-331q0 -26 -15 -42.5t-44 -16.5q-28 0 -43.5 16.5t-15.5 42.5v331h-111q-26 0 -39.5 13t-13.5 36t13.5 37t39.5 14h340z" />
    <glyph glyph-name="afii10090" unicode="&#x448;" horiz-adv-x="743" 
d="M60 432q0 23 13.5 40.5t41.5 17.5q29 0 42.5 -17.5t13.5 -40.5v-336h145v336q0 23 13.5 40.5t41.5 17.5q29 0 42.5 -17.5t13.5 -40.5v-336h145v336q0 23 13.5 40.5t41.5 17.5q29 0 42.5 -17.5t13.5 -40.5v-373q0 -25 -14.5 -42t-43.5 -17h-509q-27 0 -41.5 16.5
t-14.5 42.5v373z" />
    <glyph glyph-name="afii10031" unicode="&#x41d;" horiz-adv-x="708" 
d="M513 299h-318v-238q0 -26 -15.5 -43.5t-44.5 -17.5q-30 0 -45 17.5t-15 43.5v567q0 26 15 44t45 18q29 0 44.5 -18t15.5 -44v-222h318v222q0 26 15 44t45 18q29 0 44.5 -18t15.5 -44v-567q0 -26 -15.5 -43.5t-44.5 -17.5q-30 0 -45 17.5t-15 43.5v238z" />
    <glyph glyph-name="afii10088" unicode="&#x446;" horiz-adv-x="569" 
d="M364 432q0 24 14 41t42 17q29 0 43 -17t14 -41v-332h19q25 0 36.5 -15.5t11.5 -36.5v-110q0 -23 -11 -38.5t-37 -15.5t-37.5 15.5t-11.5 38.5v62h-331q-27 0 -41.5 17.5t-14.5 40.5v374q0 24 14 41t42 17q29 0 43 -17t14 -41v-332h191v332z" />
    <glyph glyph-name="afii10091" unicode="&#x449;" horiz-adv-x="775" 
d="M116 0q-27 0 -41.5 16.5t-14.5 42.5v373q0 23 13.5 40.5t41.5 17.5q29 0 42.5 -17.5t13.5 -40.5v-336h145v336q0 23 13.5 40.5t41.5 17.5q29 0 42.5 -17.5t13.5 -40.5v-336h145v336q0 23 13.5 40.5t41.5 17.5q29 0 42.5 -17.5t13.5 -40.5v-336h19q25 0 36.5 -15.5
t11.5 -36.5v-106q0 -23 -11 -38.5t-37 -15.5t-37.5 15.5t-11.5 38.5v62h-537v0z" />
    <glyph glyph-name="afii10020" unicode="&#x413;" horiz-adv-x="494" 
d="M75 628q0 26 15 44t45 18h297q26 0 41.5 -14.5t15.5 -39.5q0 -24 -15.5 -38.5t-41.5 -14.5h-237v-522q0 -26 -15.5 -43.5t-44.5 -17.5q-30 0 -45 17.5t-15 43.5v567z" />
    <glyph glyph-name="E" unicode="E" horiz-adv-x="561" 
d="M75 628q0 26 15.5 44t45.5 18h338q26 0 41.5 -14.5t15.5 -39.5q0 -24 -15.5 -38.5t-41.5 -14.5h-279v-175h223q27 0 42.5 -14t15.5 -39q0 -24 -15.5 -39t-42.5 -15h-223v-194h289q26 0 41.5 -14.5t15.5 -39.5q0 -24 -15.5 -38.5t-41.5 -14.5h-347q-30 0 -46 18t-16 44
v566z" />
    <glyph glyph-name="F" unicode="F" horiz-adv-x="532" 
d="M75 628q0 26 15 44t45 18h320q26 0 41.5 -14.5t15.5 -39.5q0 -24 -15.5 -38.5t-41.5 -14.5h-260v-174h208q26 0 41.5 -14t15.5 -39q0 -24 -15.5 -39t-41.5 -15h-208v-241q0 -26 -15.5 -43.5t-44.5 -17.5q-30 0 -45 17.5t-15 43.5v567z" />
    <glyph glyph-name="afii10022" unicode="&#x415;" horiz-adv-x="561" 
d="M75 628q0 26 15.5 44t45.5 18h338q26 0 41.5 -14.5t15.5 -39.5q0 -24 -15.5 -38.5t-41.5 -14.5h-279v-175h223q27 0 42.5 -14t15.5 -39q0 -24 -15.5 -39t-42.5 -15h-223v-194h289q26 0 41.5 -14.5t15.5 -39.5q0 -24 -15.5 -38.5t-41.5 -14.5h-347q-30 0 -46 18t-16 44
v566z" />
    <glyph glyph-name="T" unicode="T" horiz-adv-x="599" 
d="M536 690q27 0 42.5 -14t15.5 -39q0 -24 -15.5 -39t-42.5 -15h-177v-522q0 -26 -15 -43.5t-45 -17.5t-45 17.5t-15 43.5v522h-177q-26 0 -41.5 15t-15.5 39q0 25 15.5 39t41.5 14h474z" />
    <glyph glyph-name="afii10036" unicode="&#x422;" horiz-adv-x="599" 
d="M536 690q27 0 42.5 -14t15.5 -39q0 -24 -15.5 -39t-42.5 -15h-177v-522q0 -26 -15 -43.5t-45 -17.5t-45 17.5t-15 43.5v522h-177q-26 0 -41.5 15t-15.5 39q0 25 15.5 39t41.5 14h474z" />
    <glyph glyph-name="afii10033" unicode="&#x41f;" horiz-adv-x="686" 
d="M75 628q0 26 15 44t44 18h417q30 0 45 -18t15 -44v-567q0 -26 -15 -43.5t-45 -17.5t-45 17.5t-15 43.5v522h-296v-522q0 -26 -15.5 -43.5t-44.5 -17.5q-30 0 -45 17.5t-15 43.5v567z" />
    <glyph glyph-name="afii10040" unicode="&#x426;" horiz-adv-x="730" 
d="M606 628v-521h35q28 0 41 -17.5t13 -41.5v-133q0 -26 -13.5 -43.5t-42.5 -17.5t-43 17.5t-14 43.5v85h-448q-29 0 -44 17.5t-15 43.5v567q0 26 15 44t44 18q30 0 45.5 -18t15.5 -44v-521h291v521q0 26 15 44t45 18q29 0 44.5 -18t15.5 -44z" />
    <glyph glyph-name="afii10043" unicode="&#x429;" horiz-adv-x="970" 
d="M846 628v-521h35q28 0 41 -17.5t13 -41.5v-133q0 -26 -13.5 -43.5t-42.5 -17.5t-43 17.5t-14 43.5v85h-688q-29 0 -44 17.5t-15 43.5v567q0 26 15 44t44 18q30 0 45.5 -18t15.5 -44v-521h205v521q0 26 15 44t45 18t45 -18t15 -44v-521h206v521q0 26 15 44t45 18
q29 0 44.5 -18t15.5 -44z" />
    <glyph glyph-name="afii10042" unicode="&#x428;" horiz-adv-x="921" 
d="M846 628v-566q0 -26 -15 -44t-47 -18h-650q-29 0 -44 17.5t-15 43.5v567q0 26 15 44t44 18q30 0 45.5 -18t15.5 -44v-521h205v521q0 26 15 44t45 18t45 -18t15 -44v-521h206v521q0 26 15 44t45 18q29 0 44.5 -18t15.5 -44z" />
    <glyph glyph-name="u" unicode="u" horiz-adv-x="552" 
d="M492 58q0 -23 -14 -40.5t-42 -17.5q-29 0 -43 17.5t-14 40.5v15q-23 -43 -63 -63t-85 -20q-49 0 -81.5 14.5t-52.5 42.5t-28.5 67.5t-8.5 89.5v228q0 24 14 41t43 17q28 0 42 -17t14 -41v-230q0 -50 18.5 -81t66.5 -31q36 0 59.5 17.5t37 47t18.5 68t6 80.5v129
q0 24 14 41t43 17q28 0 42 -17t14 -41v-374z" />
    <glyph glyph-name="d" unicode="d" horiz-adv-x="544" 
d="M484 58q0 -23 -14 -40.5t-42 -17.5q-29 0 -43 17.5t-14 40.5v8q-21 -35 -56.5 -55.5t-89.5 -20.5q-47 0 -82.5 18t-59.5 49.5t-36 75.5t-12 97q0 58 13 107.5t41 85.5t70 56.5t101 20.5q35 0 63.5 -5.5t47.5 -13.5v151q0 24 14 41t43 17q28 0 42 -17t14 -41v-574zM248 86
q40 0 64 19.5t37 50.5t17.5 69.5t4.5 77.5v78q-40 23 -99 23q-34 0 -57 -13.5t-37.5 -37t-20.5 -56t-6 -69.5q0 -64 23 -103t74 -39z" />
    <glyph glyph-name="j" unicode="j" horiz-adv-x="237" 
d="M64 432q0 23 14.5 40.5t42.5 17.5t42 -17.5t14 -40.5v-466q0 -85 -37 -130.5t-118 -45.5q-26 0 -54.5 4.5t-48.5 14.5q-46 22 -32 66q7 22 22.5 26t34.5 0q17 -4 31 -7t30 -3q37 0 48 23t11 63v455zM55 619q0 29 17.5 45t47.5 16q29 0 47.5 -16t18.5 -45
q0 -30 -18.5 -45.5t-47.5 -15.5q-30 0 -47.5 15.5t-17.5 45.5z" />
    <glyph glyph-name="afii10065" unicode="&#x430;" horiz-adv-x="503" 
d="M335 76q-20 -35 -58.5 -60.5t-101.5 -25.5q-76 0 -118 40t-42 107q0 46 18 77t48 50.5t69 28t80 8.5q36 0 63.5 -2.5t41.5 -4.5v11q0 20 -3.5 38.5t-14.5 32.5t-31 22t-53 8q-17 0 -31.5 -2t-28 -5.5t-28 -8l-30.5 -9.5q-18 -5 -34.5 0t-22.5 23t1 33t24 26
q27 18 71 27.5t92 9.5q103 0 150 -49t47 -137v-256q0 -24 -12.5 -41t-41.5 -17q-28 0 -41 17t-13 41v18zM205 78q32 0 56 11.5t40.5 30t25 41.5t8.5 47v17q-20 3 -40.5 4t-48.5 1q-54 0 -87 -19.5t-33 -64.5q0 -30 20.5 -49t58.5 -19z" />
    <glyph glyph-name="afii10083" unicode="&#x441;" horiz-adv-x="461" 
d="M420 36q-29 -23 -69.5 -34.5t-85.5 -11.5q-108 0 -169 65.5t-61 185.5q0 60 16.5 108t47 81.5t74.5 51.5t99 18q41 0 73.5 -7t55.5 -21q22 -14 27.5 -31.5t-2.5 -35.5t-24 -23.5t-42 2.5q-20 6 -38.5 10.5t-46.5 4.5q-58 0 -91 -42t-33 -116q0 -72 34.5 -111t90.5 -39
q28 0 50.5 8.5t45.5 19.5q25 12 42 8.5t26 -18.5q11 -17 5.5 -36.5t-25.5 -36.5z" />
    <glyph glyph-name="afii10076" unicode="&#x43a;" horiz-adv-x="463" 
d="M60 432q0 23 13.5 40.5t41.5 17.5q29 0 42.5 -17.5t13.5 -40.5v-164l170 193q23 26 44.5 28.5t39.5 -14.5q15 -15 13 -36t-21 -41l-142 -151l159 -149q19 -18 21.5 -40.5t-12.5 -38.5q-20 -22 -43 -18t-44 26l-185 188v-157q0 -24 -13.5 -41t-42.5 -17q-28 0 -41.5 17
t-13.5 41v374z" />
    <glyph glyph-name="afii10072" unicode="&#x436;" horiz-adv-x="643" 
d="M273 218l-169 -191q-20 -23 -43 -26.5t-43 18.5q-14 16 -10.5 37.5t22.5 41.5l145 150l-134 151q-18 21 -18.5 41t14.5 35q17 17 39 14t42 -29l155 -192v164q0 23 10.5 40.5t38.5 17.5t38.5 -17.5t10.5 -40.5v-165l155 192q21 26 42.5 29t37.5 -14q31 -31 -7 -75
l-129 -148l145 -155q18 -19 21 -40t-11 -38q-17 -20 -40 -18t-43 25l-171 193v-160q0 -24 -10.5 -41t-38.5 -17t-38.5 17t-10.5 41v160z" />
    <glyph glyph-name="k.alt" horiz-adv-x="476" 
d="M60 632q0 23 14 40.5t42 17.5q29 0 43 -17.5t14 -40.5v-192q23 30 54 45t78 15q54 0 88 -34.5t34 -90.5q0 -54 -27 -92t-64 -59l97 -132q17 -22 16 -45t-19 -35q-23 -16 -45.5 -9t-39.5 34l-102 155q-16 -3 -35 -4.5t-35 -1.5v-128q0 -24 -14 -41t-43 -17q-28 0 -42 17
t-14 41v574zM271 410q-39 0 -68.5 -29t-29.5 -86v-31q72 0 109.5 27.5t37.5 69.5q0 18 -11.5 33.5t-37.5 15.5z" />
    <glyph glyph-name="afii10085" unicode="&#x443;" horiz-adv-x="465" 
d="M21 401q-11 24 -6 48.5t32 35.5q29 11 48.5 -1.5t30.5 -39.5l117 -310l103 306q10 31 28.5 43.5t45.5 2.5q27 -9 28.5 -32t-6.5 -46l-156 -413q-22 -59 -42.5 -98.5t-42.5 -63t-47.5 -33.5t-57.5 -10q-17 0 -40 4t-41 14q-23 13 -31.5 31.5t0.5 38.5t25 22.5t34 -2.5
l25 -8t29 -4q35 0 55.5 33t38.5 81z" />
    <glyph glyph-name="z" unicode="z" horiz-adv-x="453" 
d="M365 490q23 0 37 -9t18.5 -23t1 -30t-15.5 -31l-242 -301h213q53 0 53 -48q0 -23 -13.5 -35.5t-39.5 -12.5h-296q-21 0 -34 9t-18 22.5t-1.5 29.5t14.5 31l246 302h-197q-26 0 -39.5 12.5t-13.5 35.5q0 48 53 48h274z" />
    <glyph glyph-name="r" unicode="r" horiz-adv-x="367" 
d="M60 432q0 23 14 40.5t42 17.5q29 0 43 -17t14 -37q16 29 44 46.5t61 17.5q31 0 51.5 -8.5t31 -22t12.5 -29t-4 -29.5q-17 -38 -63 -22q-11 4 -22.5 6.5t-24.5 2.5q-45 0 -65.5 -41.5t-20.5 -129.5v-169q0 -24 -14 -41t-43 -17q-28 0 -42 17t-14 41v374z" />
    <glyph glyph-name="e" unicode="e" horiz-adv-x="506" 
d="M147 204q2 -57 37 -90t93 -33q32 0 57.5 8t48.5 18q24 10 39 5t23 -19q8 -16 3.5 -33.5t-24.5 -30.5q-32 -22 -73.5 -30.5t-84.5 -8.5q-113 0 -172 66t-59 187q0 58 16 105.5t46.5 81t73.5 52t97 18.5q49 0 87 -14.5t64.5 -41t40 -63t13.5 -80.5q0 -11 -1.5 -25t-3.5 -22
q-7 -25 -21.5 -37.5t-44.5 -12.5h-255zM268 409q-54 0 -85 -32.5t-36 -93.5h221q1 8 1 13v12q0 43 -24.5 72t-76.5 29z" />
    <glyph glyph-name="g" unicode="g" horiz-adv-x="513" 
d="M50 331q0 75 50.5 122t149.5 47q22 0 41.5 -2.5t36.5 -7.5h138q46 0 46 -40q0 -39 -46 -39h-35q9 -18 14.5 -38t5.5 -42q0 -36 -13 -67t-38 -53t-63 -34.5t-87 -12.5q-55 0 -95 15q-13 -8 -20 -19t-7 -22t7 -19t24 -14.5t47 -10.5t75 -6q46 -2 84.5 -9t66.5 -21.5
t43.5 -38t15.5 -58.5q0 -37 -15.5 -68t-47 -54t-78.5 -36t-110 -13q-66 0 -109 12.5t-69 32.5t-36.5 45t-10.5 51q0 34 18.5 62.5t53.5 48.5q-25 14 -36 36t-11 43q0 29 15 52.5t39 43.5q-44 44 -44 114zM249 4q-43 3 -78 9q-24 -11 -39 -28.5t-15 -40.5q0 -12 6.5 -24
t20.5 -21.5t37.5 -15.5t57.5 -6q78 0 111 22.5t33 52.5q0 26 -30 36.5t-104 15.5zM151 331q0 -36 25.5 -58.5t73.5 -22.5t73.5 22.5t25.5 58.5q0 37 -25.5 60t-73.5 23t-73.5 -23t-25.5 -60z" />
    <glyph glyph-name="x" unicode="x" horiz-adv-x="464" 
d="M234 325l105 134q14 20 35.5 28.5t42.5 -9.5q20 -17 15 -38t-20 -40l-115 -142l134 -163q17 -21 17 -43.5t-19 -38.5q-21 -17 -43.5 -12t-41.5 30l-119 149l-113 -149q-15 -20 -37 -29t-46 12q-17 16 -13 38t19 40l129 156l-115 143q-17 20 -19.5 43.5t19.5 42.5t46 11.5
t40 -30.5z" />
    <glyph glyph-name="afii10087" unicode="&#x445;" horiz-adv-x="464" 
d="M234 325l105 134q14 20 35.5 28.5t42.5 -9.5q20 -17 15 -38t-20 -40l-115 -142l134 -163q17 -21 17 -43.5t-19 -38.5q-21 -17 -43.5 -12t-41.5 30l-119 149l-113 -149q-15 -20 -37 -29t-46 12q-17 16 -13 38t19 40l129 156l-115 143q-17 20 -19.5 43.5t19.5 42.5t46 11.5
t40 -30.5z" />
    <glyph glyph-name="s" unicode="s" horiz-adv-x="433" 
d="M219 500q44 0 81 -9.5t62 -23.5q24 -14 30 -31.5t-2 -34.5q-16 -34 -63 -19q-21 8 -48.5 17.5t-55.5 9.5q-35 0 -51 -12t-16 -33q0 -23 18.5 -36.5t46.5 -24t61 -21t61 -27.5t46.5 -44t18.5 -69q0 -72 -48 -112t-150 -40q-38 0 -82 9t-74 29q-42 30 -23 69q11 23 32 22
t41 -10q29 -13 58.5 -20.5t57.5 -7.5q74 0 74 51q0 24 -18.5 37.5t-46.5 24.5t-61 21.5t-61 28t-46.5 45t-18.5 71.5q0 70 49 105t128 35z" />
    <glyph glyph-name="a" unicode="a" horiz-adv-x="503" 
d="M335 76q-20 -35 -58.5 -60.5t-101.5 -25.5q-76 0 -118 40t-42 107q0 46 18 77t48 50.5t69 28t80 8.5q36 0 63.5 -2.5t41.5 -4.5v11q0 20 -3.5 38.5t-14.5 32.5t-31 22t-53 8q-17 0 -31.5 -2t-28 -5.5t-28 -8l-30.5 -9.5q-18 -5 -34.5 0t-22.5 23t1 33t24 26
q27 18 71 27.5t92 9.5q103 0 150 -49t47 -137v-256q0 -24 -12.5 -41t-41.5 -17q-28 0 -41 17t-13 41v18zM205 78q32 0 56 11.5t40.5 30t25 41.5t8.5 47v17q-20 3 -40.5 4t-48.5 1q-54 0 -87 -19.5t-33 -64.5q0 -30 20.5 -49t58.5 -19z" />
    <glyph glyph-name="n" unicode="n" horiz-adv-x="552" 
d="M60 432q0 23 14 40.5t42 17.5q29 0 43 -17.5t14 -40.5v-15q23 43 63 63t85 20q49 0 81.5 -14.5t52.5 -42.5t28.5 -67.5t8.5 -89.5v-228q0 -24 -14 -41t-43 -17q-28 0 -42 17t-14 41v230q0 50 -18.5 81t-66.5 31q-36 0 -59.5 -17.5t-37 -47t-18.5 -68t-6 -80.5v-129
q0 -24 -14 -41t-43 -17q-28 0 -42 17t-14 41v374z" />
    <glyph glyph-name="p" unicode="p" horiz-adv-x="544" 
d="M60 432q0 23 14 40.5t42 17.5q29 0 43 -17.5t14 -40.5v-8q21 35 56.5 55.5t89.5 20.5q47 0 82.5 -18t59.5 -49.5t36 -76t12 -96.5q0 -58 -13 -107.5t-41 -85.5t-70.5 -56.5t-100.5 -20.5q-35 0 -63.5 5.5t-47.5 13.5v-151q0 -24 -14 -41t-43 -17q-28 0 -42 17t-14 41v574
zM296 404q-40 0 -64 -19.5t-37 -50.5t-17.5 -69.5t-4.5 -77.5v-78q21 -12 46.5 -17.5t52.5 -5.5q34 0 57 13.5t37 37t20.5 55.5t6.5 70q0 64 -23 103t-74 39z" />
    <glyph glyph-name="q" unicode="q" horiz-adv-x="544" 
d="M484 -142q0 -23 -14 -40.5t-42 -17.5q-29 0 -43 17.5t-14 40.5v208q-21 -35 -56.5 -55.5t-89.5 -20.5q-47 0 -82.5 18t-59.5 49.5t-36 75.5t-12 97q0 58 13 107.5t41 85.5t70 56.5t101 20.5q43 0 75 -7.5t51 -18.5q14 16 42 16t42 -17t14 -41v-574zM248 86q40 0 64 19.5
t37 50.5t17.5 69.5t4.5 77.5v78q-40 23 -99 23q-34 0 -57 -13.5t-37.5 -37t-20.5 -56t-6 -69.5q0 -64 23 -103t74 -39z" />
    <glyph glyph-name="m" unicode="m" horiz-adv-x="833" 
d="M361 270q0 29 -2 53.5t-9.5 42.5t-22 28t-39.5 10q-36 0 -58.5 -19t-35.5 -49.5t-18 -68.5t-5 -76v-133q0 -24 -13.5 -41t-42.5 -17q-28 0 -41.5 17t-13.5 41v374q0 23 13.5 40.5t41.5 17.5q29 0 42.5 -17.5t13.5 -40.5v-16q23 40 60.5 62t91.5 22q49 0 83.5 -24.5
t48.5 -72.5q22 47 65.5 72t96.5 25q46 0 76 -14.5t48 -42t25 -66.5t7 -88v-231q0 -24 -13.5 -41t-42.5 -17q-28 0 -41.5 17t-13.5 41v234q0 25 -3 45.5t-11 35.5t-22 23t-37 8q-38 0 -60.5 -20t-35.5 -52t-17 -71.5t-4 -78.5v-124q0 -24 -13.5 -41t-42.5 -17q-28 0 -41.5 17
t-13.5 41v212z" />
    <glyph glyph-name="afii10082" unicode="&#x440;" horiz-adv-x="544" 
d="M60 432q0 23 14 40.5t42 17.5q29 0 43 -17.5t14 -40.5v-8q21 35 56.5 55.5t89.5 20.5q47 0 82.5 -18t59.5 -49.5t36 -76t12 -96.5q0 -58 -13 -107.5t-41 -85.5t-70.5 -56.5t-100.5 -20.5q-35 0 -63.5 5.5t-47.5 13.5v-151q0 -24 -14 -41t-43 -17q-28 0 -42 17t-14 41v574
zM296 404q-40 0 -64 -19.5t-37 -50.5t-17.5 -69.5t-4.5 -77.5v-78q21 -12 46.5 -17.5t52.5 -5.5q34 0 57 13.5t37 37t20.5 55.5t6.5 70q0 64 -23 103t-74 39z" />
    <glyph glyph-name="v" unicode="v" horiz-adv-x="466" 
d="M287 36q-8 -18 -19 -32t-34 -14q-35 0 -53 43l-157 367q-11 23 -6.5 48.5t31.5 36.5q26 11 46 -1t30 -39l110 -288l111 285q23 63 74 43q26 -10 29 -32.5t-7 -44.5z" />
    <glyph glyph-name="w" unicode="w" horiz-adv-x="652" 
d="M520 51q-8 -26 -20.5 -43.5t-41.5 -17.5q-25 0 -38 14.5t-22 40.5l-73 226l-68 -223q-8 -27 -21.5 -42.5t-39.5 -15.5q-28 0 -40 16.5t-20 42.5l-113 342q-4 13 -6.5 27.5t-0.5 27.5t9.5 24t23.5 16q31 11 49.5 -6t31.5 -60l78 -262l71 225q6 19 17.5 31.5t31.5 12.5
q22 0 32.5 -12.5t17.5 -31.5l77 -227l78 277q9 32 24.5 47.5t44.5 7.5q26 -7 32 -28t-3 -50z" />
    <glyph glyph-name="space" unicode=" " horiz-adv-x="240" 
 />
    <glyph glyph-name="a.alt" horiz-adv-x="544" 
d="M484 58q0 -23 -14 -40.5t-42 -17.5q-29 0 -43 17.5t-14 40.5v8q-21 -35 -56.5 -55.5t-89.5 -20.5q-47 0 -82.5 18t-59.5 49.5t-36 75.5t-12 97q0 58 13 107.5t41 85.5t70 56.5t101 20.5q43 0 75 -7.5t51 -18.5q14 16 42 16t42 -17t14 -41v-374zM248 86q40 0 64 19.5
t37 50.5t17.5 69.5t4.5 77.5v78q-40 23 -99 23q-34 0 -57 -13.5t-37.5 -37t-20.5 -56t-6 -69.5q0 -64 23 -103t74 -39z" />
    <glyph glyph-name="afii10096" unicode="&#x44e;" horiz-adv-x="730" 
d="M60 432q0 23 13.5 40.5t41.5 17.5q29 0 42.5 -17.5t13.5 -40.5v-136h72q6 44 22 81.5t44 64.5t67.5 42.5t90.5 15.5q58 0 101 -19.5t71 -54t42 -81t14 -100.5t-14 -101t-42 -81t-71 -53.5t-101 -19.5q-52 0 -92 16t-68 44t-44 66.5t-21 83.5h-71v-142q0 -24 -13.5 -41
t-42.5 -17q-28 0 -41.5 17t-13.5 41v374zM351 245q0 -34 6.5 -63t21 -50.5t36 -33.5t51.5 -12t52 12t35.5 33.5t20 50.5t6.5 63t-6.5 63t-20 50.5t-35.5 33.5t-52 12t-52 -12t-36 -33.5t-20.5 -50.5t-6.5 -63z" />
    <glyph glyph-name="afii10089" unicode="&#x447;" horiz-adv-x="478" 
d="M305 182q-21 -13 -52 -22t-60 -9q-40 0 -71 9t-52.5 31.5t-33 59.5t-11.5 94v87q0 23 14 40.5t42 17.5q29 0 43 -17.5t14 -40.5v-70q0 -26 3 -47.5t11 -36.5t23 -23t38 -8q52 0 92 28v157q0 23 14 40.5t42 17.5q29 0 43 -17.5t14 -40.5v-374q0 -24 -14 -41t-43 -17
q-28 0 -42 17t-14 41v124z" />
    <glyph glyph-name="g.alt.2" horiz-adv-x="544" 
d="M484 88q0 -62 -8 -116.5t-32 -95t-68 -63.5t-117 -23q-14 0 -31 1t-35 4t-36 7.5t-32 12.5q-23 11 -35 29t-5 43t25 29t38 -1q26 -8 51.5 -13.5t48.5 -5.5q40 0 64.5 10.5t37.5 31.5t17 53t4 75q-21 -37 -56.5 -56.5t-89.5 -19.5q-47 0 -82.5 18t-59.5 49.5t-36 75.5
t-12 97q0 58 13 107.5t41 85.5t70 56.5t101 20.5q43 0 75 -7.5t51 -18.5q14 16 42 16t42 -17t14 -41v-344zM248 86q40 0 64 19.5t37 50.5t17.5 69.5t4.5 77.5v78q-40 23 -99 23q-34 0 -57 -13.5t-37.5 -37t-20.5 -56t-6 -69.5q0 -64 23 -103t74 -39z" />
    <glyph glyph-name="afii10070" unicode="&#x435;" horiz-adv-x="506" 
d="M147 204q2 -57 37 -90t93 -33q32 0 57.5 8t48.5 18q24 10 39 5t23 -19q8 -16 3.5 -33.5t-24.5 -30.5q-32 -22 -73.5 -30.5t-84.5 -8.5q-113 0 -172 66t-59 187q0 58 16 105.5t46.5 81t73.5 52t97 18.5q49 0 87 -14.5t64.5 -41t40 -63t13.5 -80.5q0 -11 -1.5 -25t-3.5 -22
q-7 -25 -21.5 -37.5t-44.5 -12.5h-255zM268 409q-54 0 -85 -32.5t-36 -93.5h221q1 8 1 13v12q0 43 -24.5 72t-76.5 29z" />
    <glyph glyph-name="afii10095" unicode="&#x44d;" horiz-adv-x="483" 
d="M328 288q-5 53 -34.5 84.5t-86.5 31.5q-26 0 -49 -5t-47 -14q-49 -18 -66 15q-10 19 -2 37t27 29q31 18 71 26t83 8q55 0 97 -19t70 -52.5t42.5 -79.5t14.5 -100q0 -58 -15.5 -105.5t-45.5 -81.5t-74.5 -53t-103.5 -19q-42 0 -83 7.5t-68 25.5q-19 12 -25 29t1 35
q14 36 63 20q22 -8 48 -14.5t57 -6.5q60 0 91.5 32.5t34.5 89.5h-170q-26 0 -37.5 10t-11.5 30t11.5 30t37.5 10h170z" />
    <glyph glyph-name="K" unicode="K" horiz-adv-x="571" 
d="M75 628q0 26 15 44t45 18q29 0 44.5 -18t15.5 -44v-252l245 281q20 23 43 30.5t46 -12.5q21 -19 16.5 -44t-23.5 -45l-213 -230l228 -241q22 -23 27 -49.5t-15 -46.5q-24 -23 -49 -17t-48 30l-257 283v-254q0 -26 -15.5 -43.5t-44.5 -17.5q-30 0 -45 17.5t-15 43.5v567z
" />
    <glyph glyph-name="afii10028" unicode="&#x41a;" horiz-adv-x="571" 
d="M75 628q0 26 15 44t45 18q29 0 44.5 -18t15.5 -44v-252l245 281q20 23 43 30.5t46 -12.5q21 -19 16.5 -44t-23.5 -45l-213 -230l228 -241q22 -23 27 -49.5t-15 -46.5q-24 -23 -49 -17t-48 30l-257 283v-254q0 -26 -15.5 -43.5t-44.5 -17.5q-30 0 -45 17.5t-15 43.5v567z
" />
    <glyph glyph-name="afii10024" unicode="&#x416;" horiz-adv-x="840" 
d="M364 323l-246 -289q-21 -24 -46.5 -31.5t-49.5 16.5q-20 20 -15.5 44t21.5 42l227 245l-201 238q-17 19 -20.5 44t15.5 43q20 20 45.5 14t48.5 -35l221 -281v255q0 26 13 44t43 18q29 0 42.5 -18t13.5 -44v-258l223 283q23 29 46.5 35t44.5 -13q20 -18 15.5 -41
t-20.5 -43l-199 -237l226 -248q17 -19 21 -44.5t-14 -43.5q-22 -22 -47.5 -18t-45.5 29l-250 295v-263q0 -26 -13.5 -43.5t-42.5 -17.5q-30 0 -43 17.5t-13 43.5v262z" />
    <glyph glyph-name="S" unicode="S" horiz-adv-x="551" 
d="M269 590q-51 0 -75 -19t-24 -53t26 -54t64.5 -35t84 -29.5t84 -38.5t64.5 -61.5t26 -97.5q0 -46 -14 -85t-44 -67t-76.5 -44t-110.5 -16q-53 0 -101.5 10.5t-88.5 30.5q-34 18 -45.5 43t2.5 51q12 23 34.5 23.5t51.5 -11.5q39 -18 74 -27.5t76 -9.5q55 0 88 21.5t33 65.5
q0 38 -26 60t-64.5 37.5t-84 29.5t-84 37.5t-64.5 61.5t-26 101q0 83 57 134.5t172 51.5q48 0 93.5 -11t80.5 -31q29 -16 38.5 -37.5t-3.5 -46.5q-7 -14 -18 -19.5t-24 -5.5t-26.5 4t-26.5 10q-30 13 -60 20t-63 7z" />
    <glyph glyph-name="U" unicode="U" horiz-adv-x="679" 
d="M489 628q0 26 13.5 44t43.5 18q29 0 43.5 -18t14.5 -44v-347q0 -59 -12.5 -112t-43 -92.5t-81 -63t-126.5 -23.5q-75 0 -126 23t-82 62.5t-44.5 92t-13.5 111.5v349q0 26 15 44t44 18q30 0 45.5 -18t15.5 -44v-354q0 -36 7.5 -68.5t24.5 -56.5t45 -38t70 -14t70 14
t45 38.5t24.5 57t7.5 69.5v352z" />
    <glyph glyph-name="Q" unicode="Q" horiz-adv-x="747" 
d="M45 345q0 74 20.5 139t62 113t103 75.5t142.5 27.5t143 -27.5t103 -75.5t62 -113t21 -139q0 -84 -26 -154t-77 -119q23 -21 41.5 -34.5l37.5 -27.5q26 -19 27 -36.5t-8 -31.5t-26.5 -16.5t-40.5 8.5q-21 11 -51.5 32.5t-62.5 50.5q-31 -13 -66.5 -20t-76.5 -7
q-81 0 -142.5 27.5t-103 75.5t-62 112.5t-20.5 139.5zM171 345q0 -52 12.5 -97.5t38 -79t63 -52.5t88.5 -19q32 0 61 8q-15 20 -28 39.5t-21 39.5q-10 21 -5.5 39.5t21.5 27.5q15 8 31.5 4t31.5 -25l26 -37t27 -35q29 34 44 82t15 105q0 52 -12.5 97t-38 78.5t-63.5 53
t-89 19.5t-88.5 -19.5t-63 -53t-38 -78.5t-12.5 -97z" />
    <glyph glyph-name="afii10032" unicode="&#x41e;" horiz-adv-x="747" 
d="M45 345q0 74 20.5 139t62 113t103 75.5t142.5 27.5t143 -27.5t103 -75.5t62 -113t21 -139q0 -75 -21 -139.5t-62 -112.5t-103 -75.5t-143 -27.5t-142.5 27.5t-103 75.5t-62 112.5t-20.5 139.5zM171 345q0 -52 12.5 -97.5t38 -79t63 -52.5t88.5 -19t89 19t63.5 52.5t38 79
t12.5 97.5t-12.5 97t-38 78.5t-63.5 53t-89 19.5t-88.5 -19.5t-63 -53t-38 -78.5t-12.5 -97z" />
    <glyph glyph-name="A" unicode="A" horiz-adv-x="611" 
d="M429 195h-257l-52 -141q-5 -13 -12 -25t-17 -19.5t-23.5 -9.5t-29.5 5q-23 10 -26.5 33t6.5 49l225 564q19 49 61 49q23 0 36.5 -12.5t21.5 -30.5l232 -569q9 -23 4 -48t-31 -35q-29 -11 -50 1t-32 41zM204 289h191l-97 252z" />
    <glyph glyph-name="V" unicode="V" horiz-adv-x="608" 
d="M314 170l171 464q11 32 31 48t52 3q25 -10 28.5 -32.5t-7.5 -50.5l-221 -566q-18 -46 -61 -46q-23 0 -36 11.5t-22 32.5l-231 560q-5 12 -7 25.5t1 26t10.5 22.5t22.5 16q29 12 50 -1.5t33 -43.5z" />
    <glyph glyph-name="W" unicode="W" horiz-adv-x="826" 
d="M411 414l-128 -375q-16 -49 -57 -49q-47 0 -60 51l-147 536q-4 14 -7 31t-1 33t11 28.5t30 17.5q19 5 33 0.5t23.5 -15.5t15.5 -27.5t11 -34.5l105 -420l117 355q6 20 19.5 36t40.5 16q26 0 39.5 -15.5t18.5 -34.5l115 -358l105 415q11 45 27 68.5t54 15.5
q18 -4 26.5 -13.5t11 -23.5t-0.5 -31.5t-9 -37.5l-154 -541q-15 -51 -58 -51q-22 0 -36 11.5t-23 38.5z" />
    <glyph glyph-name="Z" unicode="Z" horiz-adv-x="574" 
d="M85 0q-25 0 -39 10t-19 25t-1.5 32.5t14.5 32.5l350 483h-293q-27 0 -42.5 15t-15.5 39q0 25 15.5 39t42.5 14h384q24 0 38 -9t19.5 -23.5t2.5 -31.5t-14 -33l-350 -486h316q27 0 42 -14.5t15 -39.5q0 -24 -15.5 -38.5t-41.5 -14.5h-408v0z" />
    <glyph glyph-name="J" unicode="J" horiz-adv-x="388" 
d="M-19 97q9 21 28.5 24t41.5 -5q13 -5 34 -12t39 -7q33 0 51 19t18 55v457q0 26 15 44t45 18q29 0 44.5 -18t15.5 -44v-459q0 -84 -42 -131.5t-128 -47.5q-39 0 -70.5 6t-54.5 19q-26 14 -37 35t0 47z" />
    <glyph glyph-name="afii10017" unicode="&#x410;" horiz-adv-x="611" 
d="M429 195h-257l-52 -141q-5 -13 -12 -25t-17 -19.5t-23.5 -9.5t-29.5 5q-23 10 -26.5 33t6.5 49l225 564q19 49 61 49q23 0 36.5 -12.5t21.5 -30.5l232 -569q9 -23 4 -48t-31 -35q-29 -11 -50 1t-32 41zM204 289h191l-97 252z" />
    <glyph glyph-name="Y" unicode="Y" horiz-adv-x="566" 
d="M225 299l-197 282q-17 26 -19 52.5t25 46.5q14 10 27.5 11t25.5 -4t22.5 -15t18.5 -23l161 -242l156 242q7 11 16.5 21t21 15t24.5 4.5t27 -9.5q24 -16 21.5 -40.5t-16.5 -45.5l-194 -290v-242q0 -26 -15.5 -43.5t-44.5 -17.5q-30 0 -45 17.5t-15 43.5v237z" />
    <glyph glyph-name="N" unicode="N" horiz-adv-x="708" 
d="M522 628q0 25 11.5 43.5t42.5 18.5q32 0 43.5 -18.5t11.5 -43.5v-567q0 -27 -15.5 -44t-41.5 -17q-18 0 -31 9t-23 21l-334 443v-412q0 -25 -12 -43t-43 -18t-42.5 18t-11.5 43v566q0 24 12 43.5t44 19.5q20 0 34.5 -9.5t24.5 -23.5l330 -444v415z" />
    <glyph glyph-name="afii10026" unicode="&#x418;" horiz-adv-x="708" 
d="M195 209l323 447q11 14 24.5 24t33.5 10q31 0 44 -18t13 -44v-567q0 -25 -14 -43t-45 -18q-32 0 -46.5 18t-14.5 43v418l-325 -444q-10 -13 -23.5 -24t-32.5 -11q-28 0 -42.5 16t-14.5 45v567q0 25 14 43.5t46 18.5q31 0 45.5 -18.5t14.5 -43.5v-419z" />
    <glyph glyph-name="X" unicode="X" horiz-adv-x="603" 
d="M305 442l154 212q16 23 37.5 32.5t46.5 -8.5q23 -17 20.5 -39.5t-17.5 -43.5l-176 -233l197 -261q16 -22 15.5 -47t-22.5 -42q-24 -17 -47.5 -10t-39.5 29l-178 242l-168 -236q-15 -22 -37.5 -33.5t-48.5 6.5q-23 16 -21 39.5t16 43.5l194 262l-177 232q-15 20 -16.5 46
t21.5 44q13 10 26.5 12t25.5 -2t22 -12.5t18 -19.5z" />
    <glyph glyph-name="afii10039" unicode="&#x425;" horiz-adv-x="603" 
d="M305 442l154 212q16 23 37.5 32.5t46.5 -8.5q23 -17 20.5 -39.5t-17.5 -43.5l-176 -233l197 -261q16 -22 15.5 -47t-22.5 -42q-24 -17 -47.5 -10t-39.5 29l-178 242l-168 -236q-15 -22 -37.5 -33.5t-48.5 6.5q-23 16 -21 39.5t16 43.5l194 262l-177 232q-15 20 -16.5 46
t21.5 44q13 10 26.5 12t25.5 -2t22 -12.5t18 -19.5z" />
    <glyph glyph-name="M" unicode="M" horiz-adv-x="787" 
d="M397 329l200 323q9 14 22.5 26t36.5 12q28 0 42 -17.5t14 -44.5v-567q0 -26 -15 -43.5t-45 -17.5q-29 0 -44.5 17.5t-15.5 43.5v407l-146 -236q-9 -15 -21.5 -25.5t-33.5 -10.5q-20 0 -33 9.5t-23 25.5l-148 232v-402q0 -25 -12.5 -43t-43.5 -18t-43.5 18t-12.5 43v566
q0 33 16 48t40 15q21 0 36 -10.5t26 -28.5z" />
    <glyph glyph-name="afii10030" unicode="&#x41c;" horiz-adv-x="787" 
d="M397 329l200 323q9 14 22.5 26t36.5 12q28 0 42 -17.5t14 -44.5v-567q0 -26 -15 -43.5t-45 -17.5q-29 0 -44.5 17.5t-15.5 43.5v407l-146 -236q-9 -15 -21.5 -25.5t-33.5 -10.5q-20 0 -33 9.5t-23 25.5l-148 232v-402q0 -25 -12.5 -43t-43.5 -18t-43.5 18t-12.5 43v566
q0 33 16 48t40 15q21 0 36 -10.5t26 -28.5z" />
    <glyph glyph-name="afii10078" unicode="&#x43c;" horiz-adv-x="611" 
d="M60 431q0 21 10 40t40 19q23 0 35 -10.5t23 -25.5l134 -191l144 194q10 14 23 23.5t33 9.5t34.5 -13.5t14.5 -45.5v-373q0 -24 -13 -41t-42 -17q-28 0 -41 17t-13 41v250l-78 -107q-18 -24 -33 -33.5t-32 -9.5t-32.5 9t-32.5 32l-73 101v-242q0 -24 -11 -41t-40 -17
q-28 0 -39 17t-11 41v373z" />
    <glyph glyph-name="afii10074" unicode="&#x438;" horiz-adv-x="554" 
d="M381 311l-216 -283q-9 -12 -21.5 -20t-29.5 -8q-28 0 -41 16.5t-13 41.5v374q0 24 14.5 41t42.5 17t42 -17t14 -41v-255l212 280q11 15 23.5 24t31.5 9q29 0 41.5 -17t12.5 -41v-374q0 -25 -14 -41.5t-43 -16.5q-28 0 -42 16.5t-14 41.5v253z" />
    <glyph glyph-name="P" unicode="P" horiz-adv-x="579" 
d="M75 612q0 26 13.5 45t42.5 25q38 8 75.5 10.5t78.5 2.5q58 0 106.5 -12t83.5 -38.5t54.5 -68.5t19.5 -102t-20.5 -104.5t-56.5 -73t-85 -42.5t-105 -14q-20 0 -44.5 1t-42.5 4v-184q0 -26 -15.5 -43.5t-44.5 -17.5q-30 0 -45 17.5t-15 43.5v551zM275 344q30 0 57 6.5
t47.5 21t32 39t11.5 60.5q0 60 -36.5 89.5t-104.5 29.5q-24 0 -44.5 -1.5t-42.5 -4.5v-236q17 -2 38.5 -3t41.5 -1z" />
    <glyph glyph-name="afii10034" unicode="&#x420;" horiz-adv-x="579" 
d="M75 612q0 26 13.5 45t42.5 25q38 8 75.5 10.5t78.5 2.5q58 0 106.5 -12t83.5 -38.5t54.5 -68.5t19.5 -102t-20.5 -104.5t-56.5 -73t-85 -42.5t-105 -14q-20 0 -44.5 1t-42.5 4v-184q0 -26 -15.5 -43.5t-44.5 -17.5q-30 0 -45 17.5t-15 43.5v551zM275 344q30 0 57 6.5
t47.5 21t32 39t11.5 60.5q0 60 -36.5 89.5t-104.5 29.5q-24 0 -44.5 -1.5t-42.5 -4.5v-236q17 -2 38.5 -3t41.5 -1z" />
    <glyph glyph-name="afii10046" unicode="&#x42c;" horiz-adv-x="581" 
d="M75 629q0 26 15 43.5t45 17.5q29 0 44.5 -17.5t15.5 -43.5v-196q19 4 45.5 6t46.5 2q59 0 107.5 -11t83 -37t53.5 -68.5t19 -106.5q0 -56 -19.5 -98t-54.5 -69.5t-83.5 -41.5t-106.5 -14q-41 0 -79 2t-76 10q-30 7 -43 25t-13 44v553zM276 334q-20 0 -42 -2t-39 -4v-220
q22 -3 43 -4.5t45 -1.5q68 0 104.5 29t36.5 89q0 34 -11.5 56.5t-32 35t-47.5 17.5t-57 5z" />
    <glyph glyph-name="afii10044" unicode="&#x42a;" horiz-adv-x="679" 
d="M168 583h-115q-26 0 -41.5 14.5t-15.5 38.5q0 25 15.5 39.5t41.5 14.5h175q29 0 44.5 -17.5t15.5 -43.5v-196q19 4 45.5 6t46.5 2q59 0 107.5 -11t83 -37t53.5 -69t19 -106q0 -56 -19.5 -98t-54.5 -69.5t-83.5 -41.5t-106.5 -14q-41 0 -79 2t-76 10q-30 7 -43 25t-13 44
v507zM369 334q-20 0 -42 -2t-39 -4v-220q22 -3 43 -4.5t45 -1.5q68 0 104.5 29t36.5 89q0 34 -11.5 56.5t-32 35t-47.5 17.5t-57 5z" />
    <glyph glyph-name="afii10045" unicode="&#x42b;" horiz-adv-x="822" 
d="M75 629q0 26 15 43.5t45 17.5q29 0 44.5 -17.5t15.5 -43.5v-195q18 4 44 5.5t46 1.5q59 0 105.5 -11.5t78.5 -38t49 -69t17 -104.5q0 -54 -18 -96t-51 -70t-80 -42.5t-105 -14.5q-41 0 -76.5 2t-73.5 10q-30 7 -43 25t-13 44v553zM271 334q-20 0 -39.5 -2t-36.5 -4v-220
q22 -3 40.5 -4.5t42.5 -1.5q68 0 99.5 30.5t31.5 87.5q0 33 -10 55t-28.5 35t-44 18.5t-55.5 5.5zM627 628q0 26 15 44t45 18q29 0 44.5 -18t15.5 -44v-567q0 -26 -15.5 -43.5t-44.5 -17.5q-30 0 -45 17.5t-15 43.5v567z" />
    <glyph glyph-name="afii10018" unicode="&#x411;" horiz-adv-x="597" 
d="M448 690q26 0 41 -14.5t15 -39.5q0 -24 -15 -38.5t-41 -14.5h-253v-166q23 4 51 6t51 2q52 0 97.5 -10t79.5 -33.5t53.5 -63t19.5 -98.5q0 -112 -66.5 -168.5t-197.5 -56.5q-37 0 -76.5 2.5t-74.5 7.5q-30 5 -43.5 22t-13.5 43v559q0 25 15 43t44 18h314zM287 326
q-23 0 -47.5 -1.5t-44.5 -5.5v-220q22 -3 42 -4t43 -1q40 0 67 9t43.5 25t23.5 38.5t7 48.5q0 30 -10 51t-28 34.5t-42.5 19.5t-53.5 6z" />
    <glyph glyph-name="afii10019" unicode="&#x412;" horiz-adv-x="623" 
d="M75 616q0 28 13.5 45t43.5 22q70 12 161 12q54 0 100.5 -9t80 -30t52.5 -56t19 -86q0 -46 -24 -85.5t-67 -59.5q58 -18 91 -60t33 -102q0 -65 -23.5 -106t-62.5 -64.5t-89 -32.5t-102 -9q-36 0 -83.5 2.5t-86.5 8.5q-30 5 -43 21.5t-13 42.5v546zM190 308v-208
q30 -4 60 -5t56 -1q71 0 110 24t39 84q0 54 -38 80t-112 26h-115zM282 595q-26 0 -48 -1.5t-44 -3.5v-192h102q130 0 130 104q0 51 -38 72t-102 21z" />
    <glyph glyph-name="R" unicode="R" horiz-adv-x="612" 
d="M75 613q0 32 15 48t41 21q24 5 63 9t87 4q55 0 102.5 -10.5t82 -35t54.5 -64.5t20 -98q0 -73 -34.5 -121t-91.5 -68l127 -193q17 -27 15 -54.5t-26 -41.5q-14 -8 -27.5 -8.5t-25 4.5t-21.5 15t-17 22l-142 234q-10 -2 -21 -2h-22q-13 0 -28.5 1t-30.5 3v-217
q0 -26 -15.5 -43.5t-44.5 -17.5q-30 0 -45 17.5t-15 43.5v552zM263 364q76 0 113.5 26.5t37.5 89.5q0 59 -39 83.5t-104 24.5q-21 0 -39 -2l-37 -4v-214q17 -2 35.5 -3t32.5 -1z" />
    <glyph glyph-name="afii10049" unicode="&#x42f;" horiz-adv-x="613" 
d="M352 695q48 0 77 -3.5t53 -10.5q26 -8 41 -23t15 -47v-550q0 -26 -15 -43.5t-45 -17.5q-29 0 -44.5 17.5t-15.5 43.5v198q-12 -2 -27.5 -3t-27.5 -1q-9 0 -23.5 0.5t-25.5 2.5l-126 -212q-17 -29 -43 -42t-55 5q-18 11 -24 36.5t16 58.5l114 174q-55 21 -87.5 68
t-32.5 122q0 110 72 168.5t204 58.5zM346 588q-65 0 -104.5 -29t-39.5 -93q0 -34 11.5 -57t31.5 -37t48 -20t60 -6q15 0 32 0.5t33 2.5v235q-16 2 -33 3t-39 1z" />
    <glyph glyph-name="B" unicode="B" horiz-adv-x="623" 
d="M75 616q0 28 13.5 45t43.5 22q70 12 161 12q54 0 100.5 -9t80 -30t52.5 -56t19 -86q0 -46 -24 -85.5t-67 -59.5q58 -18 91 -60t33 -102q0 -65 -23.5 -106t-62.5 -64.5t-89 -32.5t-102 -9q-36 0 -83.5 2.5t-86.5 8.5q-30 5 -43 21.5t-13 42.5v546zM190 308v-208
q30 -4 60 -5t56 -1q71 0 110 24t39 84q0 54 -38 80t-112 26h-115zM282 595q-26 0 -48 -1.5t-44 -3.5v-192h102q130 0 130 104q0 51 -38 72t-102 21z" />
    <glyph glyph-name="afii10048" unicode="&#x42e;" horiz-adv-x="980" 
d="M75 628q0 26 15 44t45 18q29 0 44.5 -18t15.5 -44v-225h104q6 64 29 118t62.5 94t95.5 62.5t129 22.5q81 0 141.5 -27.5t100 -75.5t59 -113t19.5 -139q0 -75 -19.5 -139.5t-59 -112.5t-100 -75.5t-141.5 -27.5q-75 0 -131.5 23t-96.5 64t-62 97t-28 122h-102v-235
q0 -26 -15.5 -43.5t-44.5 -17.5q-30 0 -45 17.5t-15 43.5v567zM421 345q0 -52 11.5 -97.5t35.5 -79t60.5 -52.5t86.5 -19t86.5 19t60.5 52.5t35.5 79t11.5 97.5t-11.5 97t-35.5 78.5t-60.5 53t-86.5 19.5t-86.5 -19.5t-60.5 -53t-35.5 -78.5t-11.5 -97z" />
    <glyph glyph-name="afii10094" unicode="&#x44c;" horiz-adv-x="478" 
d="M228 88q48 0 76.5 17.5t28.5 61.5q0 42 -24.5 59t-72.5 17q-19 0 -35 -1.5t-28 -3.5v-147q24 -3 55 -3zM60 69v364q0 28 16.5 42.5t39.5 14.5q24 0 40.5 -15t16.5 -43v-108q14 2 36 4t42 2q99 0 147.5 -42.5t48.5 -121.5q0 -52 -20.5 -85t-54.5 -52t-76.5 -26.5
t-86.5 -7.5q-11 0 -25 0.5t-28 1.5t-27 3t-22 4q-27 7 -37 23t-10 42z" />
    <glyph glyph-name="afii10092" unicode="&#x44a;" horiz-adv-x="536" 
d="M118 69v321h-69q-26 0 -39.5 13t-13.5 36t13.5 37t39.5 14h125q24 0 40.5 -15t16.5 -43v-108q14 2 36 4t42 2q99 0 147.5 -42.5t48.5 -121.5q0 -52 -20.5 -85t-54.5 -52t-76.5 -26.5t-86.5 -7.5q-11 0 -25 0.5t-28 1.5t-27 3t-22 4q-27 7 -37 23t-10 42zM286 88
q48 0 76.5 17.5t28.5 61.5q0 42 -24.5 59t-72.5 17q-19 0 -35 -1.5t-28 -3.5v-147q24 -3 55 -3z" />
    <glyph glyph-name="afii10093" unicode="&#x44b;" horiz-adv-x="653" 
d="M226 88q95 0 95 79q0 38 -19.5 57t-67.5 19q-19 0 -34 -1.5t-27 -3.5v-147q24 -3 53 -3zM60 69v364q0 28 16.5 42.5t39.5 14.5q24 0 40.5 -15t16.5 -43v-108q14 2 35 4t41 2q98 0 142 -44t44 -120q0 -50 -19 -83t-51 -52.5t-73 -27.5t-85 -8q-23 0 -52.5 2t-47.5 7
q-27 7 -37 23t-10 42zM480 58q0 -24 14 -41t42 -17q29 0 43 17t14 41v374q0 23 -14 40.5t-43 17.5q-28 0 -42 -17.5t-14 -40.5v-374z" />
    <glyph glyph-name="afii10067" unicode="&#x432;" horiz-adv-x="507" 
d="M60 420q0 24 11.5 42t39.5 23q24 5 58.5 7t74.5 2q53 0 90.5 -10t61.5 -28t35 -42.5t11 -52.5q0 -35 -17 -64t-52 -43q43 -8 68.5 -36t25.5 -72q0 -151 -220 -151q-32 0 -68.5 2t-65.5 7t-41 21t-12 40v355zM170 210v-121q20 -2 40 -3t43 -1q57 0 78.5 18.5t21.5 47.5
q0 27 -20.5 43t-72.5 16h-90zM244 404q-19 0 -38 -1t-36 -3v-119h74q51 0 70 17t19 45q0 29 -21 45t-68 16z" />
    <glyph glyph-name="afii10041" unicode="&#x427;" horiz-adv-x="606" 
d="M411 628q0 26 15 44t45 18t45 -18t15 -44v-567q0 -26 -15 -43.5t-45 -17.5t-45 17.5t-15 43.5v221q-33 -23 -76.5 -35.5t-83.5 -12.5q-50 0 -90 11t-68 38t-43 73t-15 117v155q0 25 15.5 43.5t44.5 18.5q30 0 45 -18.5t15 -43.5v-149q0 -40 7 -67t21 -43.5t35 -23.5
t50 -7q35 0 72 14t71 37v239z" />
    <glyph glyph-name="C" unicode="C" horiz-adv-x="629" 
d="M368 593q-47 0 -83.5 -18t-61.5 -50t-38.5 -78t-13.5 -101q0 -60 15.5 -106.5t42.5 -78t63.5 -48t78.5 -16.5t75.5 11.5t66.5 31.5q25 14 45 12t31 -19q12 -18 7.5 -41t-30.5 -43q-38 -28 -88 -43.5t-116 -15.5q-81 0 -140.5 25.5t-98.5 72.5t-58.5 112t-19.5 145
q0 79 21.5 144.5t62.5 112.5t100.5 72.5t136.5 25.5q63 0 109 -12.5t76 -33.5q23 -16 27.5 -35.5t-3.5 -37.5q-17 -38 -76 -16q-29 11 -58.5 19.5t-72.5 8.5z" />
    <glyph glyph-name="afii10035" unicode="&#x421;" horiz-adv-x="629" 
d="M368 593q-47 0 -83.5 -18t-61.5 -50t-38.5 -78t-13.5 -101q0 -60 15.5 -106.5t42.5 -78t63.5 -48t78.5 -16.5t75.5 11.5t66.5 31.5q25 14 45 12t31 -19q12 -18 7.5 -41t-30.5 -43q-38 -28 -88 -43.5t-116 -15.5q-81 0 -140.5 25.5t-98.5 72.5t-58.5 112t-19.5 145
q0 79 21.5 144.5t62.5 112.5t100.5 72.5t136.5 25.5q63 0 109 -12.5t76 -33.5q23 -16 27.5 -35.5t-3.5 -37.5q-17 -38 -76 -16q-29 11 -58.5 19.5t-72.5 8.5z" />
    <glyph glyph-name="G" unicode="G" horiz-adv-x="667" 
d="M373 700q60 0 106.5 -12t76.5 -32q23 -16 29 -35.5t-4 -37.5t-28.5 -22.5t-48.5 6.5q-29 11 -60.5 18.5t-69.5 7.5q-50 0 -87.5 -18.5t-63.5 -51.5t-39 -79t-13 -101q0 -119 53 -182.5t152 -63.5q45 0 83 10t65 29v134h-113q-27 0 -40 12.5t-13 33.5q0 46 53 46h151
q24 0 42 -10t18 -42v-190q0 -43 -32 -66q-16 -12 -39.5 -23.5t-52 -20.5t-61.5 -14.5t-69 -5.5q-85 0 -146 25.5t-100.5 72t-58 112.5t-18.5 146q0 79 22.5 144.5t64.5 112t103 72t138 25.5z" />
    <glyph glyph-name="D" unicode="D" horiz-adv-x="696" 
d="M75 612q0 26 11.5 44.5t43.5 24.5q29 6 73 10t95 4q177 0 265 -88t88 -259q0 -80 -22 -145.5t-66 -111.5t-110 -71t-154 -25q-54 0 -93.5 2t-74.5 8q-56 10 -56 64v543zM299 102q118 0 172 64.5t54 181.5t-54.5 178.5t-172.5 61.5q-30 0 -55.5 -2t-47.5 -4v-475
q26 -3 49 -4t55 -1z" />
    <glyph glyph-name="zero" unicode="0" horiz-adv-x="554" 
d="M27 345q0 78 14.5 143t45.5 112.5t78 73.5t112 26t112 -26t77.5 -73.5t45 -112.5t14.5 -143t-14.5 -143.5t-45 -112.5t-77.5 -73t-112 -26t-112 26t-78 73t-45.5 112.5t-14.5 143.5zM136 345q0 -122 36 -190.5t105 -68.5t104.5 68.5t35.5 190.5t-35.5 190.5t-104.5 68.5
q-37 0 -63.5 -17.5t-44 -51t-25.5 -81.5t-8 -109z" />
    <glyph glyph-name="one" unicode="1" horiz-adv-x="554" 
d="M264 537l-88 -86q-14 -15 -35.5 -23t-39.5 8q-17 15 -13.5 37.5t21.5 40.5l146 146q15 15 30.5 27.5t41.5 12.5q45 0 45 -67v-575q0 -24 -13 -41t-42 -17q-28 0 -40.5 17t-12.5 41v479z" />
    <glyph glyph-name="four" unicode="4" horiz-adv-x="554" 
d="M513 258q0 -22 -11.5 -34.5t-33.5 -12.5h-35v-155q0 -23 -12 -39.5t-40 -16.5t-40.5 16.5t-12.5 39.5v155h-248q-21 0 -34 9t-17.5 23t-1 29.5t14.5 29.5l289 367q9 13 21 22t30 9q28 0 39.5 -18t11.5 -41v-339h35q20 0 32.5 -12t12.5 -32zM328 302v225l-180 -225h180z
" />
    <glyph glyph-name="seven" unicode="7" horiz-adv-x="554" 
d="M443 690q42 0 53.5 -26t-5.5 -65l-246 -549q-12 -27 -31 -42t-48 -4q-22 8 -28 31t8 53l226 496h-265q-29 0 -44 14t-15 39q0 53 59 53h336z" />
    <glyph glyph-name="afii10025" unicode="&#x417;" horiz-adv-x="580" 
d="M265 97q67 0 105.5 27.5t38.5 81.5q0 52 -37.5 74.5t-106.5 24.5h-75q-22 0 -35.5 12t-13.5 35q0 21 13.5 34t35.5 13h62q63 0 99 25.5t36 76.5q0 41 -28 66.5t-90 25.5q-31 0 -61.5 -7t-63.5 -18q-10 -3 -21.5 -6t-22.5 -2t-20 5.5t-15 16.5q-11 22 -2 42.5t35 34.5
q39 21 86.5 31t96.5 10q52 0 94.5 -11.5t73 -34t47.5 -56.5t17 -79q0 -46 -24.5 -89.5t-78.5 -64.5q61 -16 93 -57t32 -99q0 -60 -22 -101.5t-58.5 -67.5t-85.5 -38t-103 -12q-53 0 -102 10t-82 27q-26 14 -36.5 35t0.5 47q11 25 35 25t50 -10q28 -11 62 -19t72 -8z" />
    <glyph glyph-name="afii10055" unicode="&#x406;" horiz-adv-x="270" 
d="M75 628q0 26 15 44t45 18q29 0 44.5 -18t15.5 -44v-567q0 -26 -15.5 -43.5t-44.5 -17.5q-30 0 -45 17.5t-15 43.5v567z" />
    <glyph glyph-name="afii10054" unicode="&#x405;" horiz-adv-x="551" 
d="M269 590q-51 0 -75 -19t-24 -53t26 -54t64.5 -35t84 -29.5t84 -38.5t64.5 -61.5t26 -97.5q0 -46 -14 -85t-44 -67t-76.5 -44t-110.5 -16q-53 0 -101.5 10.5t-88.5 30.5q-34 18 -45.5 43t2.5 51q12 23 34.5 23.5t51.5 -11.5q39 -18 74 -27.5t76 -9.5q55 0 88 21.5t33 65.5
q0 38 -26 60t-64.5 37.5t-84 29.5t-84 37.5t-64.5 61.5t-26 101q0 83 57 134.5t172 51.5q48 0 93.5 -11t80.5 -31q29 -16 38.5 -37.5t-3.5 -46.5q-7 -14 -18 -19.5t-24 -5.5t-26.5 4t-26.5 10q-30 13 -60 20t-63 7z" />
    <glyph glyph-name="three" unicode="3" horiz-adv-x="564" 
d="M206 324q-32 0 -45.5 13.5t-13.5 31.5q0 30 22 53l162 172h-193q-26 0 -39.5 12.5t-13.5 35.5q0 48 53 48h277q22 0 35 -9.5t17 -23.5t-0.5 -30.5t-17.5 -29.5l-177 -185q109 -5 164 -58.5t55 -142.5q0 -50 -16.5 -90.5t-47.5 -69.5t-75.5 -45t-99.5 -16q-57 0 -105.5 13
t-75.5 36q-17 15 -22.5 34.5t5.5 37.5q6 10 14.5 14t17.5 4.5t18 -2t17 -6.5q39 -20 72.5 -27.5t56.5 -7.5q66 0 96.5 34t30.5 90q0 60 -43 87t-128 27z" />
    <glyph glyph-name="afii10103" unicode="&#x456;" horiz-adv-x="233" 
d="M60 432q0 23 14 40.5t42 17.5q29 0 43 -17.5t14 -40.5v-374q0 -24 -14 -41t-43 -17q-28 0 -42 17t-14 41v374zM51 619q0 29 17.5 45t47.5 16q29 0 47.5 -16t18.5 -45q0 -30 -18.5 -45.5t-47.5 -15.5q-30 0 -47.5 15.5t-17.5 45.5z" />
    <glyph glyph-name="afii10102" unicode="&#x455;" horiz-adv-x="433" 
d="M219 500q44 0 81 -9.5t62 -23.5q24 -14 30 -31.5t-2 -34.5q-16 -34 -63 -19q-21 8 -48.5 17.5t-55.5 9.5q-35 0 -51 -12t-16 -33q0 -23 18.5 -36.5t46.5 -24t61 -21t61 -27.5t46.5 -44t18.5 -69q0 -72 -48 -112t-150 -40q-38 0 -82 9t-74 29q-42 30 -23 69q11 23 32 22
t41 -10q29 -13 58.5 -20.5t57.5 -7.5q74 0 74 51q0 24 -18.5 37.5t-46.5 24.5t-61 21.5t-61 28t-46.5 45t-18.5 71.5q0 70 49 105t128 35z" />
    <glyph glyph-name="five" unicode="5" horiz-adv-x="554" 
d="M248 -10q-57 0 -106 13t-75 36q-17 15 -22.5 34.5t5.5 37.5q6 10 14.5 14t17.5 4.5t18 -2t17 -6.5q38 -19 69 -27t60 -8q63 0 96 37.5t33 97.5q0 53 -29.5 88t-89.5 35q-37 0 -62.5 -6.5t-47.5 -6.5q-25 0 -38.5 14.5t-11.5 43.5l16 230q2 33 18 52t50 19h221
q60 0 60 -53q0 -25 -15.5 -39t-44.5 -14h-196l-11 -154q43 10 82 10q60 0 101 -19.5t66 -50.5t35.5 -69t10.5 -74q0 -54 -17.5 -98t-49 -74.5t-76 -47.5t-98.5 -17z" />
    <glyph glyph-name="six" unicode="6" horiz-adv-x="554" 
d="M394 592q-12 4 -32 8t-44 4q-43 0 -74.5 -18t-53 -48.5t-32 -71t-11.5 -85.5q27 36 69 55t90 19t86.5 -16.5t65.5 -46t41 -70t14 -87.5q0 -45 -14.5 -89t-43.5 -78.5t-72.5 -56t-102.5 -21.5q-108 0 -172.5 76t-64.5 228q0 93 15.5 168t49 128t86 81.5t127.5 28.5
q49 0 78 -9t37 -14q18 -9 28.5 -25.5t2.5 -38.5q-5 -14 -13.5 -20t-18.5 -7t-21 1t-20 5zM153 241q0 -27 7 -55t22 -50t39.5 -36t59.5 -14q30 0 53 12t38.5 32t23.5 46t8 55q0 27 -9 50.5t-25 40.5t-38.5 26.5t-48.5 9.5q-23 0 -46.5 -7.5t-42 -22.5t-30 -37t-11.5 -50z" />
    <glyph glyph-name="afii10021" unicode="&#x414;" horiz-adv-x="722" 
d="M574 0h-446v-85q0 -26 -14 -43.5t-43 -17.5t-42.5 17.5t-13.5 43.5v133q0 24 13 41.5t41 17.5h29q21 40 34.5 97.5t22 126t12.5 144.5t6 153q1 34 16.5 48t40.5 14h308q32 0 46 -19.5t14 -41.5v-522h35q28 0 41 -17.5t13 -41.5v-133q0 -26 -13.5 -43.5t-42.5 -17.5
t-43 17.5t-14 43.5v85zM217 107h261v476h-193q-1 -48 -4 -109.5t-10.5 -126t-20.5 -127t-33 -113.5z" />
    <glyph glyph-name="afii10023" unicode="&#x401;" horiz-adv-x="561" 
d="M75 628q0 26 15.5 44t45.5 18h338q26 0 41.5 -14.5t15.5 -39.5q0 -24 -15.5 -38.5t-41.5 -14.5h-279v-175h223q27 0 42.5 -14t15.5 -39q0 -24 -15.5 -39t-42.5 -15h-223v-194h289q26 0 41.5 -14.5t15.5 -39.5q0 -24 -15.5 -38.5t-41.5 -14.5h-347q-30 0 -46 18t-16 44
v566zM121 796q0 29 21 44.5t51 15.5q32 0 53 -15.5t21 -44.5t-21 -43.5t-53 -14.5q-30 0 -51 14.5t-21 43.5zM329 796q0 29 20.5 44.5t52.5 15.5q31 0 52 -15.5t21 -44.5t-21 -43.5t-52 -14.5q-32 0 -52.5 14.5t-20.5 43.5z" />
    <glyph glyph-name="afii10071" unicode="&#x451;" horiz-adv-x="506" 
d="M147 204q2 -57 37 -90t93 -33q32 0 57.5 8t48.5 18q24 10 39 5t23 -19q8 -16 3.5 -33.5t-24.5 -30.5q-32 -22 -73.5 -30.5t-84.5 -8.5q-113 0 -172 66t-59 187q0 58 16 105.5t46.5 81t73.5 52t97 18.5q49 0 87 -14.5t64.5 -41t40 -63t13.5 -80.5q0 -11 -1.5 -25t-3.5 -22
q-7 -25 -21.5 -37.5t-44.5 -12.5h-255zM268 409q-54 0 -85 -32.5t-36 -93.5h221q1 8 1 13v12q0 43 -24.5 72t-76.5 29zM109 618q0 27 16.5 44t46.5 17q29 0 46 -17t17 -44q0 -29 -17 -45t-46 -16q-30 0 -46.5 16t-16.5 45zM300 618q0 27 16 44t46 17q29 0 46 -17t17 -44
q0 -29 -17 -45t-46 -16q-30 0 -46 16t-16 45z" />
    <glyph glyph-name="afii10073" unicode="&#x437;" horiz-adv-x="451" 
d="M211 404q-24 0 -47.5 -6t-49.5 -16q-49 -18 -66 15q-8 19 -1.5 36.5t26.5 29.5q33 20 73.5 28.5t78.5 8.5q44 0 77 -10t54.5 -28t32 -42t10.5 -52q0 -38 -21.5 -69.5t-58.5 -42.5q41 -9 66.5 -38t25.5 -74q0 -69 -48 -111.5t-145 -42.5q-41 0 -85.5 7.5t-73.5 24.5
q-40 25 -24 65q14 35 61 20q25 -8 53.5 -14.5t57.5 -6.5q52 0 71 19.5t19 43.5q0 33 -25.5 47.5t-73.5 14.5h-40q-26 0 -37 9t-11 29q0 21 12 30t36 9h36q42 0 66.5 14.5t24.5 46.5q0 23 -16.5 39t-57.5 16z" />
    <glyph glyph-name="y" unicode="y" horiz-adv-x="465" 
d="M21 401q-11 24 -6 48.5t32 35.5q29 11 48.5 -1.5t30.5 -39.5l117 -310l103 306q10 31 28.5 43.5t45.5 2.5q27 -9 28.5 -32t-6.5 -46l-156 -413q-22 -59 -42.5 -98.5t-42.5 -63t-47.5 -33.5t-57.5 -10q-17 0 -40 4t-41 14q-23 13 -31.5 31.5t0.5 38.5t25 22.5t34 -2.5
l25 -8t29 -4q35 0 55.5 33t38.5 81z" />
    <glyph glyph-name="afii10105" unicode="&#x458;" horiz-adv-x="237" 
d="M64 432q0 23 14.5 40.5t42.5 17.5t42 -17.5t14 -40.5v-466q0 -85 -37 -130.5t-118 -45.5q-26 0 -54.5 4.5t-48.5 14.5q-46 22 -32 66q7 22 22.5 26t34.5 0q17 -4 31 -7t30 -3q37 0 48 23t11 63v455zM55 619q0 29 17.5 45t47.5 16q29 0 47.5 -16t18.5 -45
q0 -30 -18.5 -45.5t-47.5 -15.5q-30 0 -47.5 15.5t-17.5 45.5z" />
    <glyph glyph-name="afii10057" unicode="&#x408;" horiz-adv-x="388" 
d="M-19 97q9 21 28.5 24t41.5 -5q13 -5 34 -12t39 -7q33 0 51 19t18 55v457q0 26 15 44t45 18q29 0 44.5 -18t15.5 -44v-459q0 -84 -42 -131.5t-128 -47.5q-39 0 -70.5 6t-54.5 19q-26 14 -37 35t0 47z" />
    <glyph glyph-name="afii10097" unicode="&#x44f;" horiz-adv-x="495" 
d="M322 162q-16 -2 -36.5 -2t-42.5 2l-81 -122q-18 -27 -44 -37t-52 11q-14 12 -15.5 34.5t15.5 45.5l69 90q-38 19 -57.5 54t-19.5 90q0 24 7.5 53t30.5 54t65 42t111 17q43 0 69 -2.5t45 -7.5q30 -7 39.5 -24t9.5 -43v-359q0 -24 -14 -41t-43 -17q-28 0 -42 17t-14 41v104
zM271 393q-48 0 -73.5 -17t-25.5 -59q0 -38 22.5 -54.5t64.5 -18.5q14 -1 31.5 -0.5t31.5 2.5v143q-11 2 -23.5 3t-27.5 1z" />
    <glyph glyph-name="afii10086" unicode="&#x444;" horiz-adv-x="674" 
d="M296 414h-18q-68 0 -103 -45t-35 -124t35.5 -124.5t102.5 -45.5h18v339zM376 75h19q67 0 102.5 45.5t35.5 124.5t-35 124t-103 45h-19v-339zM282 500v132q0 23 13 40.5t41 17.5q29 0 41.5 -17t12.5 -41v-132h10q54 0 98 -16.5t76 -49t49.5 -80t17.5 -109.5t-17.5 -109.5
t-49.5 -80t-76 -49t-98 -16.5h-10v-132q0 -24 -12.5 -41t-41.5 -17q-28 0 -41 17t-13 41v132h-9q-54 0 -98.5 17t-76 49t-48.5 79.5t-17 109.5t17 109.5t48.5 80t76 49t98.5 16.5h9z" />
    <glyph glyph-name="afii10069" unicode="&#x434;" horiz-adv-x="554" 
d="M98 0v-62q0 -23 -11.5 -38.5t-37.5 -15.5t-37 15.5t-11 38.5v100q0 21 11 36.5t36 15.5h5q14 0 24.5 21t17.5 54t11.5 73t7 78t3.5 69.5t2 46.5q3 58 59 58h226q28 0 42.5 -16.5t14.5 -41.5v-342h26q25 0 36.5 -15.5t11.5 -36.5v-100q0 -23 -11 -38.5t-37 -15.5
t-37.5 15.5t-11.5 38.5v62h-340zM350 90v304h-133q-1 -30 -2.5 -68.5t-5.5 -79.5t-11.5 -81.5t-20.5 -74.5h173z" />
    <glyph glyph-name="afii10038" unicode="&#x424;" horiz-adv-x="787" 
d="M45 364q0 66 20.5 116.5t58 85t91 52t119.5 17.5v38q0 26 15 43.5t45 17.5q29 0 44.5 -17.5t15.5 -43.5v-38q66 0 119 -17.5t90.5 -52t58 -85t20.5 -116.5q0 -65 -20.5 -115.5t-58 -85t-90.5 -52t-119 -17.5v-50q0 -26 -15.5 -44t-44.5 -18q-30 0 -45 18t-15 44v50
q-66 0 -119.5 17.5t-91 52t-58 85t-20.5 115.5zM625 364q0 45 -14 78t-38 55.5t-57 33.5t-71 11v-354q38 0 71 10t57 31.5t38 55t14 79.5zM163 364q0 -46 14 -79.5t38 -55t57 -31.5t71 -10v354q-39 0 -72 -11t-57 -33.5t-37.5 -55.5t-13.5 -78z" />
    <glyph glyph-name="nine" unicode="9" horiz-adv-x="554" 
d="M158.024 98.0361q11.999 -4 31.998 -7.99902q19.998 -4 43.9971 -4q42.9971 0 74.4951 17.999t52.9971 48.4971t31.998 70.9951q10.499 40.498 11.499 85.4951q-26.998 -35.998 -68.9951 -54.9971q-41.998 -18.999 -89.9951 -18.999t-86.4941 16.499
q-38.498 16.499 -65.4961 45.998q-26.999 29.498 -40.998 69.9951q-13.999 40.498 -13.999 87.4951q0 44.9971 14.499 88.9941t43.4971 78.4951q28.999 34.498 72.4961 55.9971q43.4971 21.498 102.494 21.498q107.993 0 172.489 -75.9951t64.4961 -227.986
q0 -92.9941 -15.499 -167.989t-48.9971 -127.992t-85.9951 -81.4951t-127.492 -28.498q-48.9971 0 -77.9951 8.99902q-28.998 9 -36.998 13.999q-17.999 9 -28.498 25.499t-2.5 38.4971q5 13.999 13.499 19.999q8.5 6 18.499 7q10 1 20.999 -1t19.999 -5zM399.01 449.015
q0 26.998 -7 54.9971q-7 27.998 -21.999 49.9961q-14.999 21.999 -39.4971 35.998q-24.499 13.999 -59.4961 13.999q-29.999 0 -52.9971 -11.999q-22.999 -11.999 -38.498 -31.998t-23.498 -45.9971q-8 -25.998 -8 -54.9971q0 -26.998 9 -50.4961
q8.99902 -23.499 24.998 -40.498t38.498 -26.498q22.498 -9.5 48.4971 -9.5q22.998 0 46.4971 7.5q23.498 7.49902 41.9971 22.498q18.499 15 29.998 36.998q11.5 21.999 11.5 49.9971z" />
    <glyph glyph-name="afii10053" unicode="&#x404;" horiz-adv-x="634" 
d="M368 593q-83 0 -132.5 -52.5t-61.5 -140.5h273q24 0 38 -12.5t14 -34.5q0 -23 -14 -36.5t-38 -13.5h-274q11 -101 66 -153.5t132 -52.5q42 0 75.5 11.5t66.5 31.5q25 14 45 12t31 -19q12 -18 7.5 -41t-30.5 -43q-38 -28 -88 -43.5t-116 -15.5q-81 0 -140.5 25.5
t-98.5 72.5t-58.5 112t-19.5 145q0 79 21.5 144.5t63 112.5t101 72.5t135.5 25.5q63 0 109 -13t76 -34q23 -16 28.5 -35t-4.5 -37t-28 -22.5t-48 6.5q-29 11 -58.5 19.5t-72.5 8.5z" />
    <glyph glyph-name="afii10056" unicode="&#x407;" horiz-adv-x="270" 
d="M75 628q0 26 15 44t45 18q29 0 44.5 -18t15.5 -44v-567q0 -26 -15.5 -43.5t-44.5 -17.5q-30 0 -45 17.5t-15 43.5v567zM-41 796q0 29 21 44.5t51 15.5q32 0 53 -15.5t21 -44.5t-21 -43.5t-53 -14.5q-30 0 -51 14.5t-21 43.5zM167 796q0 29 20.5 44.5t52.5 15.5
q31 0 52 -15.5t21 -44.5t-21 -43.5t-52 -14.5q-32 0 -52.5 14.5t-20.5 43.5z" />
    <glyph glyph-name="afii10145" unicode="&#x40f;" horiz-adv-x="686" 
d="M75 629q0 26 15 43.5t45 17.5q29 0 44.5 -17.5t15.5 -43.5v-522h296v522q0 26 15 43.5t45 17.5t45 -17.5t15 -43.5v-567q0 -26 -15 -44t-45 -18h-152v-85q0 -26 -13.5 -43.5t-42.5 -17.5t-43 17.5t-14 43.5v85h-152q-29 0 -44 18t-15 44v567z" />
    <glyph glyph-name="afii10193" unicode="&#x45f;" horiz-adv-x="538" 
d="M365 432q0 24 14 41t42 17q29 0 43 -17t14 -41v-374q0 -23 -14.5 -40.5t-42.5 -17.5h-104v-62q0 -23 -11 -38.5t-37 -15.5t-37.5 15.5t-11.5 38.5v62h-104q-27 0 -41.5 17.5t-14.5 40.5v374q0 24 14 41t42 17q29 0 43 -17t14 -41v-332h192v332z" />
    <glyph glyph-name="afii10101" unicode="&#x454;" horiz-adv-x="469" 
d="M420 37q-29 -23 -69.5 -35t-85.5 -12q-108 0 -169 65.5t-61 185.5q0 60 16.5 108t47 81.5t74.5 51.5t99 18q81 0 129 -28q23 -14 28 -31.5t-3 -35.5t-24 -23.5t-42 2.5q-20 6 -38.5 10.5t-46.5 4.5q-49 0 -81 -30.5t-40 -84.5h174q26 0 36 -10t10 -28t-10 -27.5t-36 -9.5
h-175q6 -57 39.5 -87.5t83.5 -30.5q28 0 50.5 8.5t45.5 19.5q25 12 42 8.5t26 -18.5q11 -17 5.5 -36t-25.5 -36z" />
    <glyph glyph-name="afii10104" unicode="&#x457;" horiz-adv-x="233" 
d="M-40 618q0 27 16.5 44t46.5 17q29 0 46 -17t17 -44q0 -29 -17 -45t-46 -16q-30 0 -46.5 16t-16.5 45zM151 618q0 27 16 44t46 17q29 0 46 -17t17 -44q0 -29 -17 -45t-46 -16q-30 0 -46 16t-16 45zM60 432q0 23 14 40.5t42 17.5q29 0 43 -17.5t14 -40.5v-374
q0 -24 -14 -41t-43 -17q-28 0 -42 17t-14 41v374z" />
    <glyph glyph-name="endash" unicode="&#x2013;" horiz-adv-x="362" 
d="M59 217q-24 0 -39 13t-15 37q0 23 15 36.5t39 13.5h244q24 0 39 -13.5t15 -36.5q0 -24 -15 -37t-39 -13h-244z" />
    <glyph glyph-name="hyphen" unicode="-" horiz-adv-x="362" 
d="M59 217q-24 0 -39 13t-15 37q0 23 15 36.5t39 13.5h244q24 0 39 -13.5t15 -36.5q0 -24 -15 -37t-39 -13h-244z" />
    <glyph glyph-name="emdash" unicode="&#x2014;" horiz-adv-x="574" 
d="M59 217q-24 0 -39 13t-15 37q0 23 15 36.5t39 13.5h456q24 0 39 -13.5t15 -36.5q0 -24 -15 -37t-39 -13h-456z" />
    <glyph glyph-name="period" unicode="." horiz-adv-x="240" 
d="M50 69q0 28 17.5 49t51.5 21t52 -21t18 -49q0 -29 -18 -49t-52 -20t-51.5 20t-17.5 49z" />
    <glyph glyph-name="colon" unicode=":" horiz-adv-x="240" 
d="M50 430q0 28 17.5 49t51.5 21t52 -21t18 -49q0 -29 -18 -49t-52 -20t-51.5 20t-17.5 49zM50 69q0 28 17.5 49t51.5 21t52 -21t18 -49q0 -29 -18 -49t-52 -20t-51.5 20t-17.5 49z" />
    <glyph glyph-name="dieresis" unicode="&#xa8;" 
d="M101 618q0 27 16.5 44t46.5 17q29 0 46 -17t17 -44q0 -29 -17 -45t-46 -16q-30 0 -46.5 16t-16.5 45zM292 618q0 27 16 44t46 17q29 0 46 -17t17 -44q0 -29 -17 -45t-46 -16q-30 0 -46 16t-16 45z" />
    <glyph glyph-name="acute" unicode="&#xb4;" 
d="M223 560q-17 -12 -35.5 -13.5t-30.5 15.5q-11 15 -7 33t28 34l120 78q17 11 35.5 11.5t29.5 -16.5q10 -16 5 -32.5t-29 -33.5z" />
    <glyph glyph-name="grave" unicode="`" 
d="M180 638q-24 17 -29 33.5t5 31.5q11 17 30 16t36 -12l121 -80q24 -16 27.5 -33.5t-7.5 -31.5q-12 -17 -30.5 -15t-35.5 14z" />
    <glyph glyph-name="caron" unicode="&#x2c7;" 
d="M264 624l93 70q14 11 31 12t28 -13q9 -12 6 -27.5t-22 -29.5l-105 -78q-18 -14 -34 -13.5t-34 13.5l-108 78q-20 14 -22 30.5t7 28.5q11 15 28 15t31 -11z" />
    <glyph glyph-name="circumflex" unicode="&#x2c6;" 
d="M255 632l-92 -71q-14 -11 -31 -12.5t-28 13.5q-8 12 -5.5 28t21.5 30l105 77q18 14 34 13.5t34 -13.5l110 -79q20 -14 20.5 -31t-8.5 -28q-11 -14 -27.5 -13.5t-30.5 11.5z" />
    <glyph glyph-name="hungarumlaut" unicode="&#x2dd;" 
d="M142 571q-16 -11 -33 -12.5t-29 13.5q-11 14 -7.5 30.5t26.5 30.5l112 75q17 11 34.5 12t28.5 -16q20 -31 -24 -61zM309 571q-16 -11 -33 -12.5t-29 13.5q-11 14 -7.5 30.5t26.5 30.5l112 75q17 11 34.5 12t28.5 -16q20 -31 -24 -61z" />
    <glyph glyph-name="dotaccent" unicode="&#x2d9;" 
d="M193 619q0 29 18 45t48 16q29 0 47.5 -16t18.5 -45q0 -30 -18.5 -45.5t-47.5 -15.5q-30 0 -48 15.5t-18 45.5z" />
    <glyph glyph-name="underscore" unicode="_" horiz-adv-x="584" 
d="M59 -122q-24 0 -39 13t-15 37q0 23 15 36.5t39 13.5h466q24 0 39 -13.5t15 -36.5q0 -24 -15 -37t-39 -13h-466z" />
    <glyph glyph-name="macron" unicode="&#xaf;" 
d="M145 568q-47 0 -47 40t47 40h229q25 0 36 -11t11 -29q0 -40 -47 -40h-229z" />
    <glyph glyph-name="ellipsis" unicode="&#x2026;" horiz-adv-x="678" 
d="M50 68q0 29 17.5 49.5t51.5 20.5t52 -20.5t18 -49.5t-18 -48.5t-52 -19.5t-51.5 19.5t-17.5 48.5zM269 68q0 29 17.5 49.5t51.5 20.5t52 -20.5t18 -49.5t-18 -48.5t-52 -19.5t-51.5 19.5t-17.5 48.5zM489 68q0 29 17 49.5t52 20.5q34 0 51.5 -20.5t17.5 -49.5
t-17.5 -48.5t-51.5 -19.5q-35 0 -52 19.5t-17 48.5z" />
    <glyph glyph-name="semicolon" unicode=";" horiz-adv-x="246" 
d="M93 -96q-14 -26 -32 -34t-41 4q-41 22 -13 74l80 150q13 26 32 33.5t39 -3.5q23 -12 24 -34t-9 -39zM56 430q0 28 17.5 49t51.5 21t52 -21t18 -49q0 -29 -18 -49t-52 -20t-51.5 20t-17.5 49z" />
    <glyph glyph-name="uniF733" unicode="&#xf733;" horiz-adv-x="529" 
d="M188 125q-32 0 -45.5 13.5t-13.5 31.5q0 30 22 53l162 172h-193q-26 0 -39.5 12.5t-13.5 35.5q0 48 53 48h277q22 0 35 -9.5t17 -23.5t-0.5 -30.5t-17.5 -29.5l-177 -185q109 -5 164 -58.5t55 -142.5q0 -50 -16.5 -90.5t-47.5 -69.5t-75.5 -45t-99.5 -16q-57 0 -105.5 13
t-75.5 36q-17 15 -22.5 34.5t5.5 37.5q6 10 14.5 14t17.5 4.5t18 -2t17 -6.5q39 -20 72.5 -27.5t56.5 -7.5q66 0 96.5 34t30.5 90q0 60 -43 87t-128 27z" />
    <glyph glyph-name="uniF734" unicode="&#xf734;" horiz-adv-x="531" 
d="M505 59q0 -22 -11.5 -34.5t-33.5 -12.5h-35v-155q0 -23 -12 -39.5t-40 -16.5t-40.5 16.5t-12.5 39.5v155h-248q-21 0 -34 9t-17.5 23t-1 29.5t14.5 29.5l289 367q9 13 21 22t30 9q28 0 39.5 -18t11.5 -41v-339h35q20 0 32.5 -12t12.5 -32zM320 103v225l-180 -225h180z
" />
    <glyph glyph-name="uniF735" unicode="&#xf735;" horiz-adv-x="500" 
d="M229 -209q-57 0 -106 13t-75 36q-17 15 -22.5 34.5t5.5 37.5q6 10 14.5 14t17.5 4.5t18 -2t17 -6.5q38 -19 69 -27t60 -8q63 0 96 37.5t33 97.5q0 53 -29.5 88t-89.5 35q-37 0 -62.5 -6.5t-47.5 -6.5q-25 0 -38.5 14.5t-11.5 43.5l16 230q2 33 18 52t50 19h221
q60 0 60 -53q0 -25 -15.5 -39t-44.5 -14h-196l-11 -154q43 10 82 10q60 0 101 -19.5t66 -50.5t35.5 -69t10.5 -74q0 -54 -17.5 -98t-49 -74.5t-76 -47.5t-98.5 -17z" />
    <glyph glyph-name="uniF736" unicode="&#xf736;" horiz-adv-x="523" 
d="M379 592q-12 4 -32 8t-44 4q-43 0 -74.5 -18t-53 -48.5t-32 -71t-11.5 -85.5q27 36 69 55t90 19t86.5 -16.5t65.5 -46t41 -70t14 -87.5q0 -45 -14.5 -89t-43.5 -78.5t-72.5 -56t-102.5 -21.5q-108 0 -172.5 76t-64.5 228q0 93 15.5 168t49 128t86 81.5t127.5 28.5
q49 0 78 -9t37 -14q18 -9 28.5 -25.5t2.5 -38.5q-5 -14 -13.5 -20t-18.5 -7t-21 1t-20 5zM138 241q0 -27 7 -55t22 -50t39.5 -36t59.5 -14q30 0 53 12t38.5 32t23.5 46t8 55q0 27 -9 50.5t-25 40.5t-38.5 26.5t-48.5 9.5q-23 0 -46.5 -7.5t-42 -22.5t-30 -37t-11.5 -50z" />
    <glyph glyph-name="uniF737" unicode="&#xf737;" horiz-adv-x="478" 
d="M403 491q42 0 53.5 -26t-5.5 -65l-246 -549q-12 -27 -31 -42t-48 -4q-22 8 -28 31t8 53l226 496h-265q-29 0 -44 14t-15 39q0 53 59 53h336z" />
    <glyph glyph-name="uniF738" unicode="&#xf738;" horiz-adv-x="575" 
d="M74 528q0 40 16.5 71.5t45 54t67.5 34.5t84 12q46 0 84.5 -11t67 -33t44.5 -53.5t16 -73.5q0 -53 -28 -94t-74 -73q68 -37 99 -78t31 -101q0 -41 -17 -76t-48.5 -61t-75 -41t-97.5 -15q-49 0 -93 11t-77 34t-52.5 58.5t-19.5 85.5q0 60 32.5 106.5t97.5 84.5
q-53 33 -78 69.5t-25 88.5zM153 186q0 -48 38 -74t97 -26q62 0 97 27.5t35 68.5q0 26 -15 47.5t-39 38.5t-54 30.5t-60 24.5q-58 -32 -78.5 -67t-20.5 -70zM181 523q0 -21 12 -38.5t31.5 -32.5t45 -27.5t52.5 -22.5q41 29 57 59.5t16 58.5q0 43 -31 63.5t-78 20.5
q-44 0 -74.5 -21t-30.5 -60z" />
    <glyph glyph-name="afii10066" unicode="&#x431;" horiz-adv-x="543" 
d="M305 560l-55 -21.5t-58.5 -34t-47.5 -54.5t-21 -83q14 25 34.5 43.5t44 29.5t48 16.5t47.5 5.5q50 0 89.5 -17t66.5 -47.5t41 -73.5t14 -94t-16.5 -95t-47 -76t-74 -50.5t-97.5 -18.5q-121 0 -179.5 76t-58.5 216q0 76 11 133t38 100t72 75t113 58l63.5 24l52.5 19
q25 9 47.5 8t31.5 -27q8 -22 -2 -39t-35 -28q-20 -9 -48 -18.5t-74 -26.5zM392 226q0 66 -30.5 103t-88.5 37q-54 0 -86 -37.5t-32 -104.5q0 -66 30.5 -102t86.5 -36q57 0 88.5 37t31.5 103z" />
    <glyph glyph-name="uniF731" unicode="&#xf731;" horiz-adv-x="393" 
d="M192 344l-74 -70q-15 -15 -34.5 -23t-37.5 8q-17 16 -12 36.5t19 35.5l131 129q10 10 27 25t41 15q29 0 38.5 -19.5t9.5 -46.5v-378q0 -23 -13.5 -39.5t-40.5 -16.5t-40.5 16.5t-13.5 39.5v288z" />
    <glyph glyph-name="uniF732" unicode="&#xf732;" horiz-adv-x="432" 
d="M125 382q-8 -4 -17 -8t-19 -5.5t-19.5 1.5t-16.5 14q-12 17 -5.5 38t29.5 38q28 20 63 30t73 10q45 0 77 -11.5t51.5 -31t28.5 -44t9 -49.5q0 -37 -15 -65t-38 -50t-50 -40l-51.5 -35.5t-43 -36t-23.5 -41.5h185q30 0 42 -15.5t12 -32.5t-12.5 -32.5t-41.5 -15.5h-255
q-27 0 -38 15t-11 38q0 43 17 75t43 57.5t55.5 46l55.5 39.5t43 39t17 45q0 20 -15.5 34.5t-48.5 14.5q-37 0 -81 -22z" />
    <glyph glyph-name="uniF739" unicode="&#xf739;" horiz-adv-x="523" 
d="M139.024 -101.964q11.999 -4 31.998 -7.99902q19.998 -4 43.9971 -4q42.9971 0 74.4951 17.999t52.9971 48.4971t31.998 70.9951q10.499 40.498 11.499 85.4951q-26.998 -35.998 -68.9951 -54.9971q-41.998 -18.999 -89.9951 -18.999t-86.4941 16.499
q-38.498 16.499 -65.4961 45.998q-26.999 29.498 -40.998 69.9951q-13.999 40.498 -13.999 87.4951q0 44.9971 14.499 88.9941t43.4971 78.4951q28.999 34.498 72.4961 55.9971q43.4971 21.498 102.494 21.498q107.993 0 172.489 -75.9951t64.4961 -227.986
q0 -92.9941 -15.499 -167.989t-48.9971 -127.992t-85.9951 -81.4951t-127.492 -28.498q-48.9971 0 -77.9951 8.99902q-28.998 9 -36.998 13.999q-17.999 9 -28.498 25.499t-2.5 38.4971q5 13.999 13.499 19.999q8.5 6 18.499 7q10 1 20.999 -1t19.999 -5zM380.01 249.015
q0 26.998 -7 54.9971q-7 27.998 -21.999 49.9961q-14.999 21.999 -39.4971 35.998q-24.499 13.999 -59.4961 13.999q-29.999 0 -52.9971 -11.999q-22.999 -11.999 -38.498 -31.998t-23.498 -45.9971q-8 -25.998 -8 -54.9971q0 -26.998 9 -50.4961
q8.99902 -23.499 24.998 -40.498t38.498 -26.498q22.498 -9.5 48.4971 -9.5q22.998 0 46.4971 7.5q23.498 7.49902 41.9971 22.498q18.499 15 29.998 36.998q11.5 21.999 11.5 49.9971z" />
    <glyph glyph-name="uniF730" unicode="&#xf730;" horiz-adv-x="553" 
d="M32 245q0 51 15 97t46 81.5t76.5 56t107.5 20.5q61 0 106.5 -20.5t76 -56t45.5 -81.5t15 -97t-15 -97t-45.5 -81.5t-76 -56t-106.5 -20.5q-62 0 -107.5 20.5t-76.5 56t-46 81.5t-15 97zM141 245q0 -70 35.5 -114.5t100.5 -44.5q64 0 99 44.5t35 114.5t-35 114.5t-99 44.5
q-65 0 -100.5 -44.5t-35.5 -114.5z" />
    <glyph glyph-name="comma" unicode="," horiz-adv-x="234" 
d="M93 -96q-14 -26 -32 -34t-41 4q-41 22 -13 74l80 150q13 26 32 33.5t39 -3.5q23 -12 24 -34t-9 -39z" />
    <glyph glyph-name="exclam" unicode="!" horiz-adv-x="239" 
d="M50 64q0 28 17 46.5t52 18.5q34 0 52 -18.5t18 -46.5q0 -29 -18 -46.5t-52 -17.5q-35 0 -52 17.5t-17 46.5zM62 637q0 23 14.5 40.5t42.5 17.5t42 -17.5t14 -40.5v-378q0 -25 -14 -42t-42 -17t-42.5 17t-14.5 42v378z" />
    <glyph glyph-name="exclamdown" unicode="&#xa1;" horiz-adv-x="239" 
d="M50 626.004q0 -27.998 17 -46.4971t52 -18.499q34 0 52 18.499t18 46.4971q0 28.998 -18 46.4971t-52 17.499q-35 0 -52 -17.499t-17 -46.4971zM62 53.0391q0 -22.999 14.5 -40.498t42.5 -17.499t42 17.499t14 40.498v377.977q0 24.999 -14 41.998q-14 16.998 -42 16.998
t-42.5 -16.998q-14.5 -16.999 -14.5 -41.998v-377.977z" />
    <glyph glyph-name="bar" unicode="|" horiz-adv-x="215" 
d="M60 749q0 21 12 36t36 15t35.5 -15t11.5 -36v-809q0 -21 -11.5 -35.5t-35.5 -14.5t-36 14.5t-12 35.5v809z" />
    <glyph glyph-name="brokenbar" unicode="&#xa6;" horiz-adv-x="215" 
d="M60 244q0 21 12 36t36 15t35.5 -15t11.5 -36v-304q0 -21 -11.5 -35.5t-35.5 -14.5t-36 14.5t-12 35.5v304zM60 749q0 21 12 36t36 15t35.5 -15t11.5 -36v-304q0 -21 -11.5 -35.5t-35.5 -14.5t-36 14.5t-12 35.5v304z" />
    <glyph glyph-name="quotesinglbase" unicode="&#x201a;" horiz-adv-x="234" 
d="M93 -96q-14 -26 -32 -34t-41 4q-41 22 -13 74l80 150q13 26 32 33.5t39 -3.5q23 -12 24 -34t-9 -39z" />
    <glyph glyph-name="quotedblbase" unicode="&#x201e;" horiz-adv-x="388" 
d="M247 -96q-14 -26 -32 -34t-41 4q-41 22 -13 74l80 150q13 26 32 33.5t39 -3.5q23 -12 24 -34t-9 -39zM93 -96q-14 -26 -32 -34t-41 4q-41 22 -13 74l80 150q13 26 32 33.5t39 -3.5q23 -12 24 -34t-9 -39z" />
    <glyph glyph-name="quotedblright" unicode="&#x201d;" horiz-adv-x="388" 
d="M247 515q-14 -26 -32 -34t-41 4q-41 22 -13 74l80 150q13 26 32 33.5t39 -3.5q23 -12 24 -34t-9 -39zM93 515q-14 -26 -32 -34t-41 4q-41 22 -13 74l80 150q13 26 32 33.5t39 -3.5q23 -12 24 -34t-9 -39z" />
    <glyph glyph-name="dotlessi" unicode="&#x131;" horiz-adv-x="233" 
d="M60 432q0 23 14 40.5t42 17.5q29 0 43 -17.5t14 -40.5v-374q0 -24 -14 -41t-43 -17q-28 0 -42 17t-14 41v374z" />
    <glyph glyph-name="bracketleft" unicode="[" horiz-adv-x="309" 
d="M112 -70q-29 0 -43 16.5t-14 41.5v713q0 23 12 41t43 18h120q24 0 39 -12.5t15 -35.5q0 -25 -15 -36.5t-39 -11.5h-67v-638h67q24 0 39 -12.5t15 -35.5q0 -25 -15 -36.5t-39 -11.5h-118z" />
    <glyph glyph-name="bracketright" unicode="]" horiz-adv-x="309" 
d="M191.007 -70q28.998 0 42.9971 16.5t13.999 41.5v713q0 23 -11.999 41t-42.9971 18h-119.993q-23.998 0 -38.9971 -12.5t-14.999 -35.5q0 -25 14.999 -36.5t38.9971 -11.5h66.9961v-638h-66.9961q-23.998 0 -38.9971 -12.5t-14.999 -35.5q0 -25 14.999 -36.5
t38.9971 -11.5h117.993z" />
    <glyph glyph-name="braceleft" unicode="{" horiz-adv-x="338" 
d="M139 345q30 -14 43 -40t13 -59v-171q0 -27 9.5 -43.5t34.5 -16.5q10 0 19.5 2.5t18.5 4.5q17 3 30 -3.5t18 -24.5q5 -17 -3.5 -33t-28.5 -27q-14 -8 -31.5 -11t-37.5 -3q-37 0 -63 12t-42 33t-23 49t-7 60v160q0 23 -8 37t-22 25q-13 11 -19 22.5t-6 26.5q0 27 25 48
q14 11 22 25t8 37v160q0 33 7 61t23 49t42 33t63 12q41 0 69 -14q20 -10 28.5 -26.5t3.5 -33.5q-6 -19 -18.5 -26t-29.5 -3q-9 2 -18.5 5t-19.5 3q-25 0 -34.5 -16.5t-9.5 -43.5v-172q0 -33 -13 -59t-43 -39z" />
    <glyph glyph-name="braceright" unicode="}" horiz-adv-x="338" 
d="M193.009 345q-29.998 -14 -42.998 -40q-12.999 -26 -12.999 -59v-171q0 -27 -9.49902 -43.5q-9.5 -16.5 -34.498 -16.5q-9.99902 0 -19.499 2.5q-9.49902 2.5 -18.499 4.5q-16.999 3 -29.998 -3.5t-17.999 -24.5q-4.99902 -17 3.5 -33q8.5 -16 28.498 -27
q13.999 -8 31.498 -11t37.498 -3q36.998 0 62.9961 12t41.9971 33t22.999 49t7 60v160q0 23 7.99902 37q8 14 21.999 25q12.999 11 18.998 22.5q6 11.5 6 26.5q0 27 -24.998 48q-13.999 11 -21.999 25q-7.99902 14 -7.99902 37v160q0 33 -7 61t-22.999 49t-41.9971 33
t-62.9961 12q-40.9971 0 -68.9961 -14q-19.998 -10 -28.498 -26.5q-8.49902 -16.5 -3.5 -33.5q6 -19 18.499 -26t29.498 -3q9 2 18.499 5q9.5 3 19.499 3q24.998 0 34.498 -16.5q9.49902 -16.5 9.49902 -43.5v-172q0 -33 12.999 -59q13 -26 42.998 -39z" />
    <glyph glyph-name="parenleft" unicode="(" horiz-adv-x="307" 
d="M45 345q0 65 11.5 123.5t30.5 108.5t44 90.5t52 68.5t52 33t44 -13q17 -17 12 -39.5t-22 -45.5q-24 -32 -44.5 -68.5t-35.5 -77t-23 -85.5t-7 -95q-1 -50 7 -95t23 -85.5t35.5 -76.5t44.5 -69q17 -23 22 -45.5t-12 -39.5q-20 -20 -45.5 -13t-50.5 33q-27 28 -52 68.5
t-44 90.5t-30.5 108.5t-11.5 123.5z" />
    <glyph glyph-name="tilde" unicode="&#x2dc;" 
d="M321 633q13 0 21 6.5l18 14.5q14 12 28.5 14.5t29.5 -10.5q13 -11 11 -28.5t-15 -33.5q-17 -22 -42.5 -35t-51.5 -13q-21 0 -38 6.5t-31.5 15t-27.5 15t-26 6.5t-22 -6t-20 -16q-14 -11 -27 -13t-27 9q-13 11 -11.5 29t15.5 35q19 21 43 34t49 13q22 0 39.5 -6.5
t32.5 -15l27.5 -15t24.5 -6.5z" />
    <glyph glyph-name="parenright" unicode=")" horiz-adv-x="307" 
d="M260.003 345q0 65 -11.499 123.5q-11.5 58.5 -30.499 108.5q-18.998 50 -43.9971 90.5q-24.998 40.5 -51.9971 68.5q-26.998 28 -51.9961 33q-24.999 5 -43.998 -13q-16.999 -17 -11.999 -39.5t21.999 -45.5q23.998 -32 44.4971 -68.5t35.498 -77t22.998 -85.5
q8 -45 7 -95q1 -50 -7 -95q-7.99902 -45 -22.998 -85.5t-35.498 -76.5t-44.4971 -69q-16.999 -23 -21.999 -45.5t11.999 -39.5q19.999 -20 45.498 -13q25.498 7 50.4961 33q26.999 28 51.9971 68.5q24.999 40.5 43.9971 90.5q18.999 50 30.499 108.5
q11.499 58.5 11.499 123.5z" />
    <glyph glyph-name="uni04AE" unicode="&#x4ae;" horiz-adv-x="566" 
d="M225 299l-197 282q-17 26 -19 52.5t25 46.5q14 10 27.5 11t25.5 -4t22.5 -15t18.5 -23l161 -242l156 242q7 11 16.5 21t21 15t24.5 4.5t27 -9.5q24 -16 21.5 -40.5t-16.5 -45.5l-194 -290v-242q0 -26 -15.5 -43.5t-44.5 -17.5q-30 0 -45 17.5t-15 43.5v237z" />
    <glyph glyph-name="quotedblleft" unicode="&#x201c;" horiz-adv-x="388" 
d="M293.006 515q13.999 -26 31.998 -34t40.9971 4q40.998 22 12.999 74l-79.9951 150q-12.999 26 -31.998 33.5q-18.998 7.5 -38.9971 -3.5q-22.999 -12 -23.999 -34t9 -39zM139.006 515q13.999 -26 31.998 -34t40.9971 4q40.998 22 12.999 74l-79.9951 150
q-12.999 26 -31.998 33.5q-18.998 7.5 -38.9971 -3.5q-22.999 -12 -23.999 -34t9 -39z" />
    <glyph glyph-name="quoteleft" unicode="&#x2018;" horiz-adv-x="234" 
d="M139.006 515q13.999 -26 31.998 -34t40.9971 4q40.998 22 12.999 74l-79.9951 150q-12.999 26 -31.998 33.5q-18.998 7.5 -38.9971 -3.5q-22.999 -12 -23.999 -34t9 -39z" />
    <glyph glyph-name="quoteright" unicode="&#x2019;" horiz-adv-x="234" 
d="M93 515q-14 -26 -32 -34t-41 4q-41 22 -13 74l80 150q13 26 32 33.5t39 -3.5q23 -12 24 -34t-9 -39z" />
    <glyph glyph-name="periodcentered" unicode="&#xb7;" horiz-adv-x="239" 
d="M50 329q0 28 17.5 49t51.5 21t52 -21t18 -49q0 -29 -18 -49t-52 -20t-51.5 20t-17.5 49z" />
    <glyph glyph-name="bullet" unicode="&#x2022;" horiz-adv-x="426" 
d="M85 309q0 26 7.5 49.5t23.5 41t40 28t56 10.5t56.5 -10.5t40.5 -28t24 -41t8 -49.5q0 -54 -32 -90.5t-97 -36.5t-96 36.5t-31 90.5z" />
    <glyph glyph-name="guilsinglleft" unicode="&#x2039;" horiz-adv-x="336" 
d="M197 433q18 19 40.5 23t39.5 -16q16 -18 12 -38t-24 -40l-115 -113l118 -118q20 -20 22.5 -42t-14.5 -39q-17 -16 -39 -12t-39 20l-140 140q-48 49 2 97z" />
    <glyph glyph-name="guilsinglright" unicode="&#x203a;" horiz-adv-x="336" 
d="M137.012 60.0264q-17.999 -18.999 -40.4971 -22.999q-22.499 -3.99902 -39.498 16q-15.999 17.998 -11.999 37.9971t23.999 39.998l114.992 112.993l-117.992 117.992q-19.999 19.999 -22.499 41.998q-2.5 21.998 14.499 38.9971q16.999 15.999 38.998 11.999
q21.998 -3.99902 38.9971 -19.998l139.992 -139.992q47.9971 -48.9971 -2 -96.9941z" />
    <glyph glyph-name="guillemotleft" unicode="&#xab;" horiz-adv-x="552" 
d="M413 433q18 19 40.5 23t39.5 -16q16 -18 12 -38t-24 -40l-115 -113l118 -118q20 -20 22.5 -42t-14.5 -39q-17 -16 -39 -12t-39 20l-140 140q-48 49 2 97zM197 433q18 19 40.5 23t39.5 -16q16 -18 12 -38t-24 -40l-115 -113l118 -118q20 -20 22.5 -42t-14.5 -39
q-17 -16 -39 -12t-39 20l-140 140q-48 49 2 97z" />
    <glyph glyph-name="guillemotright" unicode="&#xbb;" horiz-adv-x="552" 
d="M353.012 60.0264q-17.999 -18.999 -40.4971 -22.999q-22.499 -3.99902 -39.498 16q-15.999 17.998 -11.999 37.9971t23.999 39.998l114.992 112.993l-117.992 117.992q-19.999 19.999 -22.499 41.998q-2.5 21.998 14.499 38.9971q16.999 15.999 38.998 11.999
q21.998 -3.99902 38.9971 -19.998l139.992 -139.992q47.9971 -48.9971 -2 -96.9941zM137.012 60.0264q-17.999 -18.999 -40.4971 -22.999q-22.499 -3.99902 -39.498 16q-15.999 17.998 -11.999 37.9971t23.999 39.998l114.992 112.993l-117.992 117.992
q-19.999 19.999 -22.499 41.998q-2.5 21.998 14.499 38.9971q16.999 15.999 38.998 11.999q21.998 -3.99902 38.9971 -19.998l139.992 -139.992q47.9971 -48.9971 -2 -96.9941z" />
    <glyph glyph-name="germandbls" unicode="&#xdf;" horiz-adv-x="554" 
d="M60 476q0 52 11 94t35 70.5t63 44t95 15.5q94 0 147.5 -38t53.5 -107q0 -38 -16 -65.5t-35.5 -49.5l-35.5 -39t-16 -33q0 -14 12.5 -25.5t31 -24l40 -27.5t40 -35.5t31 -47t12.5 -62.5q0 -30 -9.5 -58.5t-31 -50t-55 -34.5t-81.5 -13q-25 0 -54 4t-54 18q-23 12 -30.5 32
t1.5 38q10 20 27.5 20t34.5 -6q23 -8 39 -11.5t35 -3.5q34 0 49 18t15 44q0 23 -12.5 40t-30.5 31.5t-40 28t-40 29t-30.5 35.5t-12.5 47q0 33 16 56t35 44t35 42t16 49q0 29 -23 44t-62 15q-28 0 -46 -9t-28.5 -27t-14.5 -45t-4 -64v-601q0 -24 -14 -41t-43 -17
q-28 0 -42 17t-14 41v618z" />
    <glyph glyph-name="ring" unicode="&#x2da;" 
d="M259 729q51 0 80 -26t29 -71t-29 -71t-80 -26q-50 0 -79.5 26t-29.5 71t29 71t80 26zM212 632q0 -20 13.5 -32.5t33.5 -12.5t33.5 12.5t13.5 32.5t-13.5 32.5t-33.5 12.5t-33.5 -12.5t-13.5 -32.5z" />
    <glyph glyph-name="breve" unicode="&#x2d8;" 
d="M259 548q-57 0 -92.5 23t-51.5 50q-9 16 -7 33t15 26q18 12 34 5.5t28 -21.5q14 -17 30.5 -29t43.5 -12t43.5 12.5t31.5 29.5q12 15 28.5 20.5t33.5 -5.5q14 -9 14.5 -25.5t-8.5 -32.5q-8 -13 -20.5 -26.5t-30 -24t-40.5 -17t-52 -6.5z" />
    <glyph glyph-name="ogonek" unicode="&#x2db;" horiz-adv-x="386" 
d="M244 -22q-8 -8 -17.5 -19t-18 -23.5t-14 -27t-5.5 -29.5q0 -23 11 -32t28 -9q10 0 18.5 2l16.5 4q26 8 36 -10q8 -12 4 -28t-23 -27q-14 -8 -31.5 -13.5t-43.5 -5.5q-54 0 -88 29t-34 79q0 48 28 91t72 68q16 9 36.5 12t31.5 -10t7 -27t-14 -24z" />
    <glyph glyph-name="uni00AD" unicode="&#xad;" horiz-adv-x="358" 
d="M58 217q-24 0 -39 13t-15 37q0 23 15 36.5t39 13.5h244q24 0 39 -13.5t15 -36.5q0 -24 -15 -37t-39 -13h-244z" />
    <glyph glyph-name="cedilla" unicode="&#xb8;" horiz-adv-x="405" 
d="M127 -164q12 -3 25.5 -6t27.5 -3q43 0 43 32q0 18 -14 26.5t-45 13.5q-17 2 -22 12.5t-2 22.5l16 70q9 36 43 31q17 -2 23.5 -13.5t2.5 -28.5l-7 -36q30 -2 50 -11.5t32 -23t16.5 -30t4.5 -32.5q0 -20 -7 -38t-22 -31.5t-39 -22t-57 -8.5t-53.5 4.5t-36.5 12.5
q-14 8 -18.5 20.5t0.5 24.5q5 13 16.5 15t22.5 -1z" />
    <glyph glyph-name="ampersand" unicode="&#x26;" horiz-adv-x="663" 
d="M534 27l-28 23.5t-28 24.5q-41 -38 -95 -61.5t-122 -23.5q-44 0 -83 11t-68.5 33.5t-47 57t-17.5 82.5q0 67 37.5 114.5t103.5 94.5q-29 41 -45 78t-16 78q0 70 46 115.5t130 45.5q42 0 72.5 -11t50 -29t29 -41.5t9.5 -48.5q0 -50 -32 -95.5t-103 -98.5q35 -42 69 -76.5
l74 -73.5q16 26 25 54.5t17 57.5q8 30 21 40.5t34 8.5q23 -2 31.5 -17.5t6.5 -40.5q-4 -39 -19.5 -84.5t-42.5 -89.5q17 -17 33.5 -31.5l31.5 -26.5q26 -21 29 -42t-9 -37q-11 -14 -23.5 -17t-25 0t-24.5 10.5t-21 15.5zM268 86q42 0 77.5 14.5t61.5 39.5l-57.5 56
t-107.5 118q-49 -38 -66 -67.5t-17 -64.5q0 -18 7 -35.5t21 -31t34.5 -21.5t46.5 -8zM237 545q0 -44 39 -100q43 32 67 62t24 56q0 23 -16 38t-46 15q-29 0 -48.5 -18.5t-19.5 -52.5z" />
    <glyph glyph-name="question" unicode="?" horiz-adv-x="412" 
d="M204 700q48 0 82.5 -13t57 -35t33 -49.5t10.5 -55.5q0 -30 -8 -53.5t-20.5 -44t-29.5 -38l-35 -34.5q-32 -30 -50 -55.5t-18 -65.5q0 -24 -12 -40t-39 -16q-26 0 -38 16t-12 40q0 53 21.5 89.5t54.5 69.5l28.5 29.5t21.5 27.5t14 29t5 34q0 27 -19.5 48t-59.5 21
q-21 0 -44.5 -7t-47.5 -18q-22 -10 -40 -8t-28 20q-8 16 -2.5 35.5t31.5 35.5q32 20 69.5 29t74.5 9zM107 64q0 28 17.5 46.5t51.5 18.5t52 -18.5t18 -46.5q0 -29 -18 -46.5t-52 -17.5t-51.5 17.5t-17.5 46.5z" />
    <glyph glyph-name="afii10075" unicode="&#x439;" horiz-adv-x="554" 
d="M381 311l-216 -283q-9 -12 -21.5 -20t-29.5 -8q-28 0 -41 16.5t-13 41.5v374q0 24 14.5 41t42.5 17t42 -17t14 -41v-255l212 280q11 15 23.5 24t31.5 9q29 0 41.5 -17t12.5 -41v-374q0 -25 -14 -41.5t-43 -16.5q-28 0 -42 16.5t-14 41.5v253zM278 548q-57 0 -92.5 23
t-51.5 50q-9 16 -7 33t15 26q18 12 34 5.5t28 -21.5q14 -17 30.5 -29t43.5 -12t43.5 12.5t31.5 29.5q12 15 28.5 20.5t33.5 -5.5q14 -9 14.5 -25.5t-8.5 -32.5q-8 -13 -20.5 -26.5t-30 -24t-40.5 -17t-52 -6.5z" />
    <glyph glyph-name="H" unicode="H" horiz-adv-x="708" 
d="M513 299h-318v-238q0 -26 -15.5 -43.5t-44.5 -17.5q-30 0 -45 17.5t-15 43.5v567q0 26 15 44t45 18q29 0 44.5 -18t15.5 -44v-222h318v222q0 26 15 44t45 18q29 0 44.5 -18t15.5 -44v-567q0 -26 -15.5 -43.5t-44.5 -17.5q-30 0 -45 17.5t-15 43.5v238z" />
    <glyph glyph-name="afii10027" unicode="&#x419;" horiz-adv-x="708" 
d="M195 209l323 447q11 14 24.5 24t33.5 10q31 0 44 -18t13 -44v-567q0 -25 -14 -43t-45 -18q-32 0 -46.5 18t-14.5 43v418l-325 -444q-10 -13 -23.5 -24t-32.5 -11q-28 0 -42.5 16t-14.5 45v567q0 25 14 43.5t46 18.5q31 0 45.5 -18.5t14.5 -43.5v-419zM350 734
q-57 0 -98 19t-60 45q-11 15 -12 32t12 29q9 8 17.5 10t16.5 0t16 -7.5t15 -12.5q21 -20 43.5 -29t49.5 -9t49 8.5t43 28.5q14 14 31 20t34 -9q14 -12 12 -29t-13 -32q-19 -26 -59 -45t-97 -19z" />
    <glyph glyph-name="Eth" unicode="&#xd0;" horiz-adv-x="711" 
d="M90 317h-44q-21 0 -31 10.5t-10 27.5t10 28t31 11h44v218q0 26 11.5 44.5t43.5 24.5q29 6 73 10t95 4q353 0 353 -347q0 -81 -22 -146.5t-65.5 -111.5t-110 -70.5t-154.5 -24.5q-54 0 -93.5 2t-74.5 8q-56 10 -56 64v248zM314 102q120 0 173 64.5t53 181.5q0 116 -54 178
t-173 62q-30 0 -55.5 -2t-47.5 -4v-188h133q21 0 31 -11t10 -28t-10 -27.5t-31 -10.5h-133v-210q26 -3 49 -4t55 -1z" />
    <glyph glyph-name="Dcroat" unicode="&#x110;" horiz-adv-x="711" 
d="M90 317h-44q-21 0 -31 10.5t-10 27.5t10 28t31 11h44v218q0 26 11.5 44.5t43.5 24.5q29 6 73 10t95 4q353 0 353 -347q0 -81 -22 -146.5t-65.5 -111.5t-110 -70.5t-154.5 -24.5q-54 0 -93.5 2t-74.5 8q-56 10 -56 64v248zM314 102q120 0 173 64.5t53 181.5q0 116 -54 178
t-173 62q-30 0 -55.5 -2t-47.5 -4v-188h133q21 0 31 -11t10 -28t-10 -27.5t-31 -10.5h-133v-210q26 -3 49 -4t55 -1z" />
    <glyph glyph-name="afii10147" unicode="&#x472;" horiz-adv-x="747" 
d="M45 345q0 74 20.5 139t62 113t103 75.5t142.5 27.5t143 -27.5t103 -75.5t62 -113t21 -139q0 -75 -21 -139.5t-62 -112.5t-103 -75.5t-143 -27.5t-142.5 27.5t-103 75.5t-62 112.5t-20.5 139.5zM373 97q45 0 80.5 15t61 42t40 64t18.5 81h-400q4 -44 18.5 -81t40 -64
t61 -42t80.5 -15zM373 593q-44 0 -78.5 -14.5t-59.5 -40t-40.5 -61t-19.5 -76.5h397q-5 41 -20 76.5t-40.5 61t-60 40t-78.5 14.5z" />
    <glyph glyph-name="afii10195" unicode="&#x473;" horiz-adv-x="549" 
d="M35 245q0 54 15.5 101t46 81t75 53.5t102.5 19.5t103 -19.5t75.5 -54t46 -81t15.5 -100.5t-15.5 -101t-46 -81t-75.5 -53.5t-103 -19.5t-102.5 19.5t-75 53.5t-46 81t-15.5 101zM274 86q54 0 86 32.5t37 85.5h-245q5 -53 37 -85.5t85 -32.5zM274 404q-53 0 -84.5 -31.5
t-37.5 -82.5h244q-5 51 -37 82.5t-85 31.5z" />
    <glyph glyph-name="Thorn" unicode="&#xde;" horiz-adv-x="579" 
d="M75 628q0 26 15 44t45 18q29 0 44.5 -18t15.5 -44v-11q23 3 45.5 5t45.5 2q58 0 106.5 -12t83 -38t54 -67.5t19.5 -101.5q0 -61 -21.5 -104.5t-58 -71t-85.5 -40.5t-103 -13q-20 0 -42.5 0.5t-43.5 3.5v-119q0 -26 -15.5 -43.5t-44.5 -17.5q-30 0 -45 17.5t-15 43.5v567z
M282 519q-24 0 -45.5 -2l-41.5 -4v-230q19 -2 38.5 -2.5t39.5 -0.5q31 0 58.5 6t47.5 20.5t32 38t12 59.5q0 60 -36.5 87.5t-104.5 27.5z" />
    <glyph glyph-name="uni04C0" unicode="&#x4c0;" horiz-adv-x="270" 
d="M75 628q0 26 15 44t45 18q29 0 44.5 -18t15.5 -44v-567q0 -26 -15.5 -43.5t-44.5 -17.5q-30 0 -45 17.5t-15 43.5v567z" />
    <glyph glyph-name="thorn" unicode="&#xfe;" horiz-adv-x="544" 
d="M60 632q0 23 14 40.5t42 17.5q29 0 43 -17.5t14 -40.5v-208q21 35 56.5 55.5t89.5 20.5q47 0 82.5 -18t59.5 -49.5t36 -76t12 -96.5q0 -58 -13 -107.5t-41 -85.5t-70.5 -56.5t-100.5 -20.5q-35 0 -63.5 5.5t-47.5 13.5v-151q0 -24 -14 -41t-43 -17q-28 0 -42 17t-14 41
v774zM296 404q-40 0 -64 -19.5t-37 -50.5t-17.5 -69.5t-4.5 -77.5v-78q21 -12 46.5 -17.5t52.5 -5.5q34 0 57 13.5t37 37t20.5 55.5t6.5 70q0 64 -23 103t-74 39z" />
    <glyph glyph-name="pi" unicode="&#x3c0;" horiz-adv-x="568" 
d="M497 490q27 0 40.5 -14t13.5 -37t-13.5 -36t-40.5 -13h-9v-332q0 -24 -14 -41t-43 -17q-28 0 -42 17t-14 41v332h-182v-332q0 -24 -14 -41t-43 -17q-28 0 -42 17t-14 41v332h-10q-26 0 -39.5 13t-13.5 36t13.5 37t39.5 14h427z" />
    <glyph glyph-name="mu" unicode="&#xb5;" horiz-adv-x="552" 
d="M60 432q0 24 14 41t43 17q28 0 42 -17t14 -41v-230q0 -50 18.5 -81t66.5 -31q36 0 59.5 17.5t37 47t18.5 68t6 80.5v129q0 24 14 41t43 17q28 0 42 -17t14 -41v-374q0 -23 -14 -40.5t-42 -17.5q-29 0 -43 17.5t-14 40.5v15q-17 -43 -47.5 -63t-70.5 -20q-23 0 -45.5 7
t-42.5 28v-167q0 -24 -14 -41t-43 -17q-28 0 -42 17t-14 41v574z" />
    <glyph glyph-name="uni04E8" unicode="&#x4e8;" horiz-adv-x="747" 
d="M45 345q0 74 20.5 139t62 113t103 75.5t142.5 27.5t143 -27.5t103 -75.5t62 -113t21 -139q0 -75 -21 -139.5t-62 -112.5t-103 -75.5t-143 -27.5t-142.5 27.5t-103 75.5t-62 112.5t-20.5 139.5zM373 97q45 0 80.5 15t61 42t40 64t18.5 81h-400q4 -44 18.5 -81t40 -64
t61 -42t80.5 -15zM373 593q-44 0 -78.5 -14.5t-59.5 -40t-40.5 -61t-19.5 -76.5h397q-5 41 -20 76.5t-40.5 61t-60 40t-78.5 14.5z" />
    <glyph glyph-name="uni04E9" unicode="&#x4e9;" horiz-adv-x="549" 
d="M35 245q0 54 15.5 101t46 81t75 53.5t102.5 19.5t103 -19.5t75.5 -54t46 -81t15.5 -100.5t-15.5 -101t-46 -81t-75.5 -53.5t-103 -19.5t-102.5 19.5t-75 53.5t-46 81t-15.5 101zM274 86q54 0 86 32.5t37 85.5h-245q5 -53 37 -85.5t85 -32.5zM274 404q-53 0 -84.5 -31.5
t-37.5 -82.5h244q-5 51 -37 82.5t-85 31.5z" />
    <glyph glyph-name="ff" unicode="&#xfb00;" horiz-adv-x="567" 
d="M60 492q0 57 12.5 96.5t35.5 64.5t57 36t77 11q42 0 70.5 -9t49.5 -22q40 31 105 31q32 0 55 -4t40 -12q26 -11 35 -29t2 -38q-8 -22 -24.5 -27t-38.5 2q-13 4 -28 8t-36 4q-32 0 -46 -20.5t-14 -57.5v-36h81q54 0 54 -45q0 -46 -54 -46h-81v-541q0 -24 -14 -41t-43 -17
q-28 0 -42 17t-14 41v541h-126v-541q0 -24 -14 -41t-43 -17q-28 0 -42 17t-14 41v634zM299 490q0 32 2.5 57t10.5 48q-13 5 -30.5 9.5t-37.5 4.5q-43 0 -57 -25.5t-14 -64.5v-29h126z" />
    <glyph glyph-name="fi" unicode="&#xfb01;" horiz-adv-x="472" 
d="M299 394h-126v-536q0 -24 -14 -41t-43 -17q-28 0 -42 17t-14 41v631q0 56 9.5 92.5t30.5 62.5q23 29 60.5 42.5t81.5 13.5t73.5 -7.5t46.5 -16.5q19 -11 24 -26t0 -33q-7 -22 -23.5 -26.5t-38.5 0.5q-17 5 -35.5 9t-41.5 4q-38 0 -56 -21.5t-18 -58.5v-34h181
q31 0 44.5 -18t13.5 -41v-373q0 -24 -14 -41t-43 -17q-28 0 -42 17t-14 41v336z" />
    <glyph glyph-name="fl" unicode="&#xfb02;" horiz-adv-x="472" 
d="M299 599q-11 4 -25 6.5t-29 2.5q-40 0 -56 -22t-16 -60v-36h33q54 0 54 -48q0 -23 -13.5 -35.5t-40.5 -12.5h-33v-536q0 -24 -14 -41t-43 -17q-28 0 -42 17t-14 41v633q0 58 12 98t35 65t56.5 35.5t76.5 10.5q40 0 74.5 -7t56.5 -18q30 -16 35.5 -39t5.5 -51v-527
q0 -24 -14 -41t-43 -17q-28 0 -42 17t-14 41v541z" />
    <glyph glyph-name="uni018F" unicode="&#x18f;" horiz-adv-x="656" 
d="M312 593q-41 0 -74.5 -9t-66.5 -21q-10 -3 -21 -5.5t-21.5 -2t-19.5 5.5t-15 16q-11 23 -2 43.5t37 36.5q34 19 85 31t102 12q84 0 140.5 -26.5t91 -74t49 -112.5t14.5 -141q0 -64 -13.5 -127.5t-47 -114t-89.5 -82t-140 -31.5q-74 0 -126.5 23.5t-85.5 64t-48.5 94.5
t-15.5 115q0 46 7.5 71.5t23 38t38.5 15t53 2.5h322q-5 81 -47 129.5t-130 48.5zM324 95q44 0 75.5 15.5t51.5 44t29.5 69t9.5 91.5h-324q-2 -14 -2.5 -30t1.5 -30q5 -77 47 -118.5t112 -41.5z" />
    <glyph glyph-name="uni01DD" unicode="&#x1dd;" horiz-adv-x="497" 
d="M35 203q0 46 16.5 67t56.5 21h242q-3 56 -30.5 87t-83.5 31q-26 0 -50.5 -5.5t-50.5 -14.5q-23 -8 -41 -5t-25 19q-9 21 0 39t33 30q14 7 31.5 12.5t36 9t37 5t34.5 1.5q57 0 99 -18.5t69 -52.5t40 -80.5t13 -101.5q0 -56 -14 -103.5t-41.5 -81.5t-69.5 -53t-97 -19
q-98 0 -151.5 56.5t-53.5 156.5zM244 81q56 0 81 38t26 97h-212q-2 -72 26 -103.5t79 -31.5z" />
    <glyph glyph-name="uni04D8" unicode="&#x4d8;" horiz-adv-x="656" 
d="M312 593q-41 0 -74.5 -9t-66.5 -21q-10 -3 -21 -5.5t-21.5 -2t-19.5 5.5t-15 16q-11 23 -2 43.5t37 36.5q34 19 85 31t102 12q84 0 140.5 -26.5t91 -74t49 -112.5t14.5 -141q0 -64 -13.5 -127.5t-47 -114t-89.5 -82t-140 -31.5q-74 0 -126.5 23.5t-85.5 64t-48.5 94.5
t-15.5 115q0 46 7.5 71.5t23 38t38.5 15t53 2.5h322q-5 81 -47 129.5t-130 48.5zM324 95q44 0 75.5 15.5t51.5 44t29.5 69t9.5 91.5h-324q-2 -14 -2.5 -30t1.5 -30q5 -77 47 -118.5t112 -41.5z" />
    <glyph glyph-name="uni04D9" unicode="&#x4d9;" horiz-adv-x="497" 
d="M35 203q0 46 16.5 67t56.5 21h242q-3 56 -30.5 87t-83.5 31q-26 0 -50.5 -5.5t-50.5 -14.5q-23 -8 -41 -5t-25 19q-9 21 0 39t33 30q14 7 31.5 12.5t36 9t37 5t34.5 1.5q57 0 99 -18.5t69 -52.5t40 -80.5t13 -101.5q0 -56 -14 -103.5t-41.5 -81.5t-69.5 -53t-97 -19
q-98 0 -151.5 56.5t-53.5 156.5zM244 81q56 0 81 38t26 97h-212q-2 -72 26 -103.5t79 -31.5z" />
    <glyph glyph-name="backslash" unicode="\" horiz-adv-x="330" 
d="M-19 720q-8 24 -5 46.5t29 30.5t41.5 -4.5t23.5 -35.5l279 -791q8 -22 3.5 -43.5t-27.5 -29.5q-25 -8 -41 4.5t-25 37.5z" />
    <glyph glyph-name="fraction" unicode="&#x2044;" horiz-adv-x="118" 
d="M-16 4q-9 -25 -24 -37t-40 -4q-23 8 -24.5 28.5t6.5 42.5l233 661q8 23 22.5 37t39.5 5q23 -8 24.5 -27.5t-6.5 -43.5z" />
    <glyph glyph-name="product" unicode="&#x220f;" horiz-adv-x="681" 
d="M75 630q0 26 14.5 43t43.5 17h414q30 0 44.5 -17.5t14.5 -42.5v-769q0 -26 -15 -43.5t-45 -17.5t-45 17.5t-15 43.5v722h-291v-722q0 -26 -15.5 -43.5t-44.5 -17.5q-30 0 -45 17.5t-15 43.5v769z" />
    <glyph glyph-name="dagger" unicode="&#x2020;" horiz-adv-x="380" 
d="M142 490v149q0 21 12 36t36 15t35.5 -15t11.5 -36v-149h90q24 0 36 -13.5t12 -33.5t-12 -33t-36 -13h-90v-547q0 -21 -11.5 -35.5t-35.5 -14.5t-36 14.5t-12 35.5v547h-90q-24 0 -35.5 13t-11.5 33t11.5 33.5t35.5 13.5h90z" />
    <glyph glyph-name="daggerdbl" unicode="&#x2021;" horiz-adv-x="380" 
d="M142 490v149q0 21 12 36t36 15t35.5 -15t11.5 -36v-149h90q24 0 36 -13.5t12 -33.5t-12 -33t-36 -13h-90v-287h90q24 0 36 -13.5t12 -33.5t-12 -33t-36 -13h-90v-167q0 -21 -11.5 -35.5t-35.5 -14.5t-36 14.5t-12 35.5v167h-90q-24 0 -35.5 13t-11.5 33t11.5 33.5
t35.5 13.5h90v287h-90q-24 0 -35.5 13t-11.5 33t11.5 33.5t35.5 13.5h90z" />
    <glyph glyph-name="uni0259" unicode="&#x259;" horiz-adv-x="497" 
d="M35 203q0 46 16.5 67t56.5 21h242q-3 56 -30.5 87t-83.5 31q-26 0 -50.5 -5.5t-50.5 -14.5q-23 -8 -41 -5t-25 19q-9 21 0 39t33 30q14 7 31.5 12.5t36 9t37 5t34.5 1.5q57 0 99 -18.5t69 -52.5t40 -80.5t13 -101.5q0 -56 -14 -103.5t-41.5 -81.5t-69.5 -53t-97 -19
q-98 0 -151.5 56.5t-53.5 156.5zM244 81q56 0 81 38t26 97h-212q-2 -72 26 -103.5t79 -31.5z" />
    <glyph glyph-name="slash" unicode="/" horiz-adv-x="330" 
d="M346.999 720q7.99902 24 4.99902 46.5q-2.99902 22.5 -28.998 30.5q-25.998 8 -41.4971 -4.5t-23.499 -35.5l-278.982 -791q-8 -22 -3.5 -43.5t27.498 -29.5q24.999 -8 40.998 4.5t24.998 37.5z" />
    <glyph glyph-name="eight" unicode="8" horiz-adv-x="541" 
d="M57 528q0 40 16.5 71.5t45 54t67.5 34.5t84 12q46 0 84.5 -11t67 -33t44.5 -53.5t16 -73.5q0 -53 -28 -94t-74 -73q68 -37 99 -78t31 -101q0 -41 -17 -76t-48.5 -61t-75 -41t-97.5 -15q-49 0 -93 11t-77 34t-52.5 58.5t-19.5 85.5q0 60 32.5 106.5t97.5 84.5
q-53 33 -78 69.5t-25 88.5zM136 186q0 -48 38 -74t97 -26q62 0 97 27.5t35 68.5q0 26 -15 47.5t-39 38.5t-54 30.5t-60 24.5q-58 -32 -78.5 -67t-20.5 -70zM164 523q0 -21 12 -38.5t31.5 -32.5t45 -27.5t52.5 -22.5q41 29 57 59.5t16 58.5q0 43 -31 63.5t-78 20.5
q-44 0 -74.5 -21t-30.5 -60z" />
    <glyph glyph-name="two" unicode="2" horiz-adv-x="554" 
d="M149 568q-21 -10 -41.5 -12t-32.5 17q-10 15 -7 35t26 37q38 28 89 41.5t95 13.5q53 0 91.5 -13.5t64 -37.5t37.5 -56.5t12 -71.5q0 -55 -22.5 -95t-56 -71.5t-73.5 -58.5t-75 -55.5t-60 -63t-29 -81.5h280q23 0 38.5 -11.5t15.5 -36.5q0 -23 -15.5 -35.5t-38.5 -12.5
h-328q-32 0 -46.5 18t-14.5 44q0 67 23.5 115.5t58.5 85.5t76 66t76 57t58.5 59t23.5 71q0 33 -25 58t-79 25q-53 0 -121 -31z" />
    <glyph glyph-name="ordmasculine" unicode="&#xba;" horiz-adv-x="370" 
d="M23 509q0 88 42 139.5t120 51.5t120 -51.5t42 -139.5t-42 -138.5t-120 -50.5t-120 50.5t-42 138.5zM249 509q0 53 -16 80.5t-48 27.5q-34 0 -49 -27.5t-15 -80.5q0 -106 64 -106t64 106z" />
    <glyph glyph-name="onesuperior" unicode="&#xb9;" horiz-adv-x="281" 
d="M128 566l-50 -45q-10 -10 -26.5 -14t-30.5 10q-11 11 -10 27.5t16 31.5l100 99q9 10 22 17.5t30 7.5q24 0 34 -15t10 -38v-265q0 -52 -48 -52q-47 0 -47 52v184z" />
    <glyph glyph-name="twosuperior" unicode="&#xb2;" horiz-adv-x="311" 
d="M244 415q28 0 39 -12t11 -30q0 -43 -50 -43h-182q-24 0 -33 11.5t-9 32.5q0 34 12 59t30 44t38.5 33l38.5 26.5t30 24.5t12 27q0 11 -7.5 18t-25.5 7q-17 0 -35 -6t-37 -14q-15 -6 -29.5 -3.5t-22.5 16.5q-8 15 -3 31t20 27q24 19 55.5 27.5t60.5 8.5q61 0 93.5 -28
t32.5 -75q0 -28 -10.5 -48t-26 -35t-34.5 -27l-36 -23t-29.5 -22.5t-16.5 -26.5h114v0z" />
    <glyph glyph-name="degree" unicode="&#xb0;" horiz-adv-x="550" 
d="M116 541q0 72 42 115.5t117 43.5q74 0 116 -43.5t42 -115.5t-42 -116t-116 -44q-75 0 -117 44t-42 116zM201 541q0 -38 19.5 -58t54.5 -20t54 20t19 58t-19 57.5t-54 19.5t-54.5 -19.5t-19.5 -57.5z" />
    <glyph glyph-name="ordfeminine" unicode="&#xaa;" horiz-adv-x="401" 
d="M108 601q-11 -3 -25 1t-20 21q-6 18 2.5 31t28.5 22q23 11 55.5 17.5t58.5 6.5q76 0 117.5 -32.5t41.5 -101.5v-183q0 -53 -51 -53q-41 0 -50 39q-14 -20 -41.5 -34.5t-66.5 -14.5q-57 0 -90 31t-33 86q0 63 44.5 96.5t113.5 33.5q27 0 43 -3t30 -6v6q0 28 -13.5 42
t-50.5 14q-23 0 -46.5 -6.5t-47.5 -12.5zM188 395q24 0 39 9.5t24 23t12 29.5t3 30v11q-13 4 -26.5 6t-32.5 2q-35 0 -51 -19t-16 -46q0 -22 15 -34t33 -12z" />
    <glyph glyph-name="threesuperior" unicode="&#xb3;" horiz-adv-x="331" 
d="M148 406q55 0 55 42t-77 42q-18 0 -26.5 7t-11 17t1.5 20.5t12 17.5l70 57h-87q-50 0 -50 41q0 18 11 29t39 11h165q17 0 27.5 -8.5t13 -21t-2 -26t-17.5 -23.5l-79 -62q51 -4 82 -30t31 -73q0 -64 -43 -95t-112 -31q-32 0 -61.5 7.5t-45.5 19.5q-32 24 -18 57
q8 17 21 19t24 -1q20 -6 39.5 -11t38.5 -5z" />
    <glyph glyph-name="section" unicode="&#xa7;" horiz-adv-x="562" 
d="M92 525q0 79 52 127t158 48q45 0 86 -10t67 -26q48 -29 30 -70q-11 -22 -28 -22t-37 6l-55.5 17.5t-60.5 8.5q-52 0 -75 -23t-23 -57q0 -26 12 -43t31 -30t43 -22.5l48 -18.5q37 -15 68 -32.5t53 -40t34 -50.5t12 -62q0 -32 -9.5 -57.5t-25 -46t-34.5 -35t-38 -23.5
q31 -23 50.5 -55.5t19.5 -84.5q0 -38 -13 -70t-39.5 -55t-66 -36.5t-91.5 -13.5q-45 0 -86 10t-67 26q-48 29 -30 70q11 22 28 22t37 -6l55.5 -17.5t60.5 -8.5q52 0 75 23t23 57q0 25 -12 42.5t-31 30.5t-43 22.5l-48 18.5q-37 15 -68 32t-53 39t-34 50t-12 64
q0 32 9.5 57.5t25 45.5t34.5 34.5t38 24.5q-31 23 -50.5 55.5t-19.5 84.5zM169 240q0 -43 26 -66.5t67 -41.5q14 -7 29.5 -12.5t30.5 -12.5q9 4 21 12t23 20t19 29t8 40q0 43 -26 66.5t-67 41.5l-61 24q-9 -4 -21 -11.5t-23 -19.5t-18.5 -29t-7.5 -40z" />
    <glyph glyph-name="sterling" unicode="&#xa3;" horiz-adv-x="554" 
d="M125 351q-14 30 -26.5 66.5t-12.5 84.5q0 93 58 145.5t158 52.5q62 -1 109.5 -18t76.5 -46q13 -13 15 -30.5t-6 -31.5q-10 -17 -26 -19.5t-35 3.5l-62.5 24t-71.5 12q-47 0 -72 -25.5t-25 -69.5q0 -33 10.5 -63t22.5 -58l12 -27h118q25 0 37 -12.5t12 -33.5
q0 -20 -12 -33t-37 -13h-89q4 -19 4 -45q0 -35 -11 -65t-30 -48h223q27 0 40 -14t13 -37q0 -22 -13 -36t-40 -14h-362q-27 0 -40.5 14t-13.5 36q0 23 13 37t40 14q34 0 53 28t19 67q0 17 -2.5 33t-7.5 30h-63q-25 0 -37 13t-12 33q0 21 12 33.5t37 12.5h24z" />
    <glyph glyph-name="afii10037" unicode="&#x423;" horiz-adv-x="585" 
d="M32 583q-17 28 -15.5 56.5t27.5 42.5q26 15 49.5 4t40.5 -43l189 -349l141 342q12 29 30.5 44.5t49.5 4.5q14 -5 21 -14.5t9 -21t-0.5 -24t-7.5 -24.5l-172 -402q-21 -49 -41 -88t-43 -66t-50.5 -41t-63.5 -14q-24 0 -49 4t-47 16q-23 13 -33.5 33.5t-1.5 43.5
q9 24 27.5 28t37.5 -2q15 -5 28.5 -10t31.5 -5q27 0 44.5 22.5t32.5 60.5z" />
    <glyph glyph-name="questiondown" unicode="&#xbf;" horiz-adv-x="412" 
d="M202.013 -9.95703q-47.9971 0 -82.4951 12.999t-56.9971 34.998q-22.498 21.998 -32.9971 49.4971q-10.5 27.498 -10.5 55.4961q0 29.998 8 53.4971q7.99902 23.498 20.498 43.9971q12.5 20.499 29.499 37.998l34.9971 34.498q31.998 29.998 49.9971 55.4961
t17.999 65.4961q0 23.998 11.999 39.998q12 15.998 38.998 15.998q25.998 0 37.998 -15.998q11.999 -16 11.999 -39.998q0 -52.9971 -21.499 -89.4941q-21.499 -36.498 -54.4961 -69.4961l-28.499 -29.498q-12.499 -13.499 -21.498 -27.498q-9 -14 -13.999 -28.999
q-5 -14.999 -5 -33.998q0 -26.998 19.499 -47.9971q19.498 -20.998 59.4961 -20.998q20.999 0 44.4971 6.99902q23.499 7 47.4971 17.999q21.999 10 39.998 8t27.998 -19.999q7.99902 -15.999 2.5 -35.498q-5.5 -19.499 -31.498 -35.498q-31.998 -19.998 -69.4961 -28.998
q-37.498 -8.99902 -74.4951 -8.99902zM299.007 626.004q0 -27.998 -17.499 -46.4971t-51.4971 -18.499t-51.9971 18.499t-17.999 46.4971q0 28.998 17.999 46.4971t51.9971 17.499t51.4971 -17.499t17.499 -46.4971z" />
    <glyph glyph-name="onehalf" unicode="&#xbd;" horiz-adv-x="755" 
d="M128 566l-50 -45q-10 -10 -26.5 -14t-30.5 10q-11 11 -10 27.5t16 31.5l100 99q9 10 22 17.5t30 7.5q24 0 34 -15t10 -38v-265q0 -52 -48 -52q-47 0 -47 52v184zM688 86q28 0 39 -12t11 -30q0 -43 -50 -43h-182q-24 0 -33 11.5t-9 32.5q0 34 12 59t30 44t38.5 33
l38.5 26.5t30 24.5t12 27q0 11 -7.5 18t-25.5 7q-17 0 -35 -6t-37 -14q-15 -6 -29.5 -3.5t-22.5 16.5q-8 15 -3 31t20 27q24 19 55.5 27.5t60.5 8.5q61 0 93.5 -28t32.5 -75q0 -28 -10.5 -48t-26 -35t-34.5 -27l-36 -23t-29.5 -22.5t-16.5 -26.5h114v0zM274 4
q-9 -25 -24 -37t-40 -4q-23 8 -24.5 28.5t6.5 42.5l233 661q8 23 22.5 37t39.5 5q23 -8 24.5 -27.5t-6.5 -43.5z" />
    <glyph glyph-name="onequarter" unicode="&#xbc;" horiz-adv-x="724" 
d="M278 4q-9 -25 -24 -37t-40 -4q-23 8 -24.5 28.5t6.5 42.5l233 661q8 23 22.5 37t39.5 5q23 -8 24.5 -27.5t-6.5 -43.5zM651 49q0 -23 -10.5 -35.5t-33.5 -12.5t-33 12.5t-10 35.5v43h-124q-18 0 -29 8t-15 20t-1 26t13 26l147 174q11 13 22.5 21.5t29.5 8.5q28 0 36 -17
t8 -36v-159h15q38 0 38 -36q0 -17 -9 -26.5t-29 -9.5h-15v-43zM489 164h78v88zM128 566l-50 -45q-10 -10 -26.5 -14t-30.5 10q-11 11 -10 27.5t16 31.5l100 99q9 10 22 17.5t30 7.5q24 0 34 -15t10 -38v-265q0 -52 -48 -52q-47 0 -47 52v184z" />
    <glyph glyph-name="threequarters" unicode="&#xbe;" horiz-adv-x="763" 
d="M148 406q55 0 55 42t-77 42q-18 0 -26.5 7t-11 17t1.5 20.5t12 17.5l70 57h-87q-50 0 -50 41q0 18 11 29t39 11h165q17 0 27.5 -8.5t13 -21t-2 -26t-17.5 -23.5l-79 -62q51 -4 82 -30t31 -73q0 -64 -43 -95t-112 -31q-32 0 -61.5 7.5t-45.5 19.5q-32 24 -18 57
q8 17 21 19t24 -1q20 -6 39.5 -11t38.5 -5zM320 4q-9 -25 -24 -37t-40 -4q-23 8 -24.5 28.5t6.5 42.5l233 661q8 23 22.5 37t39.5 5q23 -8 24.5 -27.5t-6.5 -43.5zM690 49q0 -23 -10.5 -35.5t-33.5 -12.5t-33 12.5t-10 35.5v43h-124q-18 0 -29 8t-15 20t-1 26t13 26l147 174
q11 13 22.5 21.5t29.5 8.5q28 0 36 -17t8 -36v-159h15q38 0 38 -36q0 -17 -9 -26.5t-29 -9.5h-15v-43zM528 164h78v88z" />
    <glyph glyph-name="percent" unicode="%" horiz-adv-x="835" 
d="M23 509q0 88 42 139.5t120 51.5t120 -51.5t42 -139.5t-42 -138.5t-120 -50.5t-120 50.5t-42 138.5zM249 509q0 53 -16 80.5t-48 27.5q-34 0 -49 -27.5t-15 -80.5q0 -106 64 -106t64 106zM488 180q0 88 42 139.5t120 51.5t120 -51.5t42 -139.5t-42 -138.5t-120 -50.5
t-120 50.5t-42 138.5zM714 180q0 53 -16 80.5t-48 27.5q-34 0 -49 -27.5t-15 -80.5q0 -106 64 -106t64 106zM343 4q-9 -25 -24 -37t-40 -4q-23 8 -24.5 28.5t6.5 42.5l233 661q8 23 22.5 37t39.5 5q23 -8 24.5 -27.5t-6.5 -43.5z" />
    <glyph glyph-name="perthousand" unicode="&#x2030;" horiz-adv-x="1189" 
d="M852 180q0 88 42 139.5t120 51.5t120 -51.5t42 -139.5t-42 -138.5t-120 -50.5t-120 50.5t-42 138.5zM1078 180q0 53 -16 80.5t-48 27.5q-34 0 -49 -27.5t-15 -80.5q0 -106 64 -106t64 106zM23 509q0 88 42 139.5t120 51.5t120 -51.5t42 -139.5t-42 -138.5t-120 -50.5
t-120 50.5t-42 138.5zM249 509q0 53 -16 80.5t-48 27.5q-34 0 -49 -27.5t-15 -80.5q0 -106 64 -106t64 106zM488 180q0 88 42 139.5t120 51.5t120 -51.5t42 -139.5t-42 -138.5t-120 -50.5t-120 50.5t-42 138.5zM714 180q0 53 -16 80.5t-48 27.5q-34 0 -49 -27.5t-15 -80.5
q0 -106 64 -106t64 106zM343 4q-9 -25 -24 -37t-40 -4q-23 8 -24.5 28.5t6.5 42.5l233 661q8 23 22.5 37t39.5 5q23 -8 24.5 -27.5t-6.5 -43.5z" />
    <glyph glyph-name="cyrbreve" unicode="&#xf6d4;" 
d="M259 548q-57 0 -92.5 23t-51.5 50q-9 16 -7 33t15 26q18 12 34 5.5t28 -21.5q14 -17 30.5 -29t43.5 -12t43.5 12.5t31.5 29.5q12 15 28.5 20.5t33.5 -5.5q14 -9 14.5 -25.5t-8.5 -32.5q-8 -13 -20.5 -26.5t-30 -24t-40.5 -17t-52 -6.5z" />
    <glyph glyph-name="afii10029" unicode="&#x41b;" horiz-adv-x="627" 
d="M492 690q30 0 45 -18t15 -44v-567q0 -26 -15 -43.5t-45 -17.5t-45 17.5t-15 43.5v522h-185q-1 -45 -3 -101t-7 -114t-14 -115t-22 -105q-9 -31 -22.5 -58.5t-33 -48.5t-43.5 -33.5t-54 -12.5q-44 0 -63 23t-11 55q6 25 23 30.5t35 5.5q19 0 35.5 16t27.5 51
q20 63 30 175.5t12 276.5q1 29 16 45.5t41 16.5h298z" />
    <glyph glyph-name="afii10077" unicode="&#x43b;" horiz-adv-x="504" 
d="M331 390h-120q-1 -33 -3.5 -71.5t-7 -76.5t-10.5 -73.5t-15 -63.5q-18 -59 -50.5 -83.5t-75.5 -24.5q-29 0 -48.5 13.5t-18.5 42.5q1 25 13.5 35.5t35.5 10.5q34 0 47 46q9 31 14 66.5t8 73t4.5 75t3.5 72.5q2 31 19 44.5t40 13.5h220q28 0 42.5 -17.5t14.5 -40.5v-374
q0 -24 -14 -41t-43 -17q-28 0 -42 17t-14 41v332z" />
    <glyph glyph-name="Acute" unicode="&#xf6c9;" 
d="M208 741q-20 -9 -39.5 -9.5t-29.5 19.5q-10 19 -2.5 35.5t33.5 28.5l143 67q20 9 39 8t28 -20q19 -39 -33 -65z" />
    <glyph glyph-name="Breve" 
d="M260 734q-57 0 -98 19t-60 45q-11 15 -12 32t12 29q9 8 17.5 10t16.5 0t16 -7.5t15 -12.5q21 -20 43.5 -29t49.5 -9t49 8.5t43 28.5q14 14 31 20t34 -9q14 -12 12 -29t-13 -32q-19 -26 -59 -45t-97 -19z" />
    <glyph glyph-name="cyrBreve" unicode="&#xf6d1;" 
d="M260 734q-57 0 -98 19t-60 45q-11 15 -12 32t12 29q9 8 17.5 10t16.5 0t16 -7.5t15 -12.5q21 -20 43.5 -29t49.5 -9t49 8.5t43 28.5q14 14 31 20t34 -9q14 -12 12 -29t-13 -32q-19 -26 -59 -45t-97 -19z" />
    <glyph glyph-name="Caron" unicode="&#xf6ca;" horiz-adv-x="533" 
d="M302 739q-32 -18 -65 0l-120 65q-22 11 -28 29t5 35t27 18t34 -9l118 -66l106 63q20 11 36.5 8t24.5 -20t2.5 -32t-31.5 -29z" />
    <glyph glyph-name="Cedilla" horiz-adv-x="405" 
d="M127 -164q12 -3 25.5 -6t27.5 -3q43 0 43 32q0 18 -14 26.5t-45 13.5q-17 2 -22 12.5t-2 22.5l16 70q9 36 43 31q17 -2 23.5 -13.5t2.5 -28.5l-7 -36q30 -2 50 -11.5t32 -23t16.5 -30t4.5 -32.5q0 -20 -7 -38t-22 -31.5t-39 -22t-57 -8.5t-53.5 4.5t-36.5 12.5
q-14 8 -18.5 20.5t0.5 24.5q5 13 16.5 15t22.5 -1z" />
    <glyph glyph-name="Circumflex" horiz-adv-x="533" 
d="M229 873q32 18 65 0l120 -65q22 -11 27 -28t-4 -34t-25.5 -19.5t-35.5 8.5l-116 64l-108 -61q-20 -11 -36.5 -8t-24.5 20t-2.5 32t31.5 29z" />
    <glyph glyph-name="Dieresis" unicode="&#xf6cb;" 
d="M82 796q0 29 21 44.5t51 15.5q32 0 53 -15.5t21 -44.5t-21 -43.5t-53 -14.5q-30 0 -51 14.5t-21 43.5zM290 796q0 29 20.5 44.5t52.5 15.5q31 0 52 -15.5t21 -44.5t-21 -43.5t-52 -14.5q-32 0 -52.5 14.5t-20.5 43.5z" />
    <glyph glyph-name="Dotaccent" 
d="M179 804q0 34 24 49t56 15t56 -15t24 -49t-24 -48.5t-56 -14.5t-56 14.5t-24 48.5z" />
    <glyph glyph-name="Hungarumlaut" unicode="&#xf6cf;" horiz-adv-x="533" 
d="M102 741q-20 -9 -39.5 -9.5t-29.5 19.5q-10 19 -2.5 35.5t33.5 28.5l143 67q20 9 39 8t28 -20t2 -35.5t-35 -29.5zM328 741q-20 -9 -39.5 -9.5t-29.5 19.5q-10 19 -2.5 35.5t33.5 28.5l143 67q20 9 39 8t28 -20t2 -35.5t-35 -29.5z" />
    <glyph glyph-name="Grave" unicode="&#xf6ce;" 
d="M171 805q-27 14 -34 31t1 34q10 20 28.5 20.5t38.5 -8.5l143 -67q26 -12 33.5 -29t-2.5 -35q-10 -19 -29.5 -19t-39.5 9z" />
    <glyph glyph-name="Macron" unicode="&#xf6d0;" 
d="M137 748q-48 0 -48 39q0 40 48 40h245q48 0 48 -40q0 -39 -48 -39h-245z" />
    <glyph glyph-name="Ogonek" horiz-adv-x="386" 
d="M244 -22q-8 -8 -17.5 -19t-18 -23.5t-14 -27t-5.5 -29.5q0 -23 11 -32t28 -9q10 0 18.5 2l16.5 4q26 8 36 -10q8 -12 4 -28t-23 -27q-14 -8 -31.5 -13.5t-43.5 -5.5q-54 0 -88 29t-34 79q0 48 28 91t72 68q16 9 36.5 12t31.5 -10t7 -27t-14 -24z" />
    <glyph glyph-name="Ring" 
d="M259 875q58 0 88.5 -25.5t30.5 -67.5q0 -43 -30.5 -68.5t-88.5 -25.5t-88.5 25.5t-30.5 68.5q0 42 30.5 67.5t88.5 25.5zM214 782q0 -18 11.5 -31t33.5 -13q21 0 33.5 12.5t12.5 31.5q0 18 -13 30.5t-33 12.5q-21 0 -33 -12t-12 -31z" />
    <glyph glyph-name="Tilde" 
d="M327 812q13 0 23 6t21 15q13 11 28.5 15t29.5 -8t11 -29.5t-17 -33.5q-19 -22 -45 -34t-51 -12q-22 0 -40.5 7t-35 15l-31.5 15t-28 7q-14 0 -24.5 -6t-23.5 -17q-13 -10 -26.5 -13.5t-26.5 6.5q-14 11 -12 30t17 34q20 22 45 34t50 12q21 0 40.5 -6.5t36.5 -15t32 -15
t27 -6.5z" />
    <glyph glyph-name="agrave" unicode="&#xe0;" horiz-adv-x="503" 
d="M335 76q-20 -35 -58.5 -60.5t-101.5 -25.5q-76 0 -118 40t-42 107q0 46 18 77t48 50.5t69 28t80 8.5q36 0 63.5 -2.5t41.5 -4.5v11q0 20 -3.5 38.5t-14.5 32.5t-31 22t-53 8q-17 0 -31.5 -2t-28 -5.5t-28 -8l-30.5 -9.5q-18 -5 -34.5 0t-22.5 23t1 33t24 26
q27 18 71 27.5t92 9.5q103 0 150 -49t47 -137v-256q0 -24 -12.5 -41t-41.5 -17q-28 0 -41 17t-13 41v18zM205 78q32 0 56 11.5t40.5 30t25 41.5t8.5 47v17q-20 3 -40.5 4t-48.5 1q-54 0 -87 -19.5t-33 -64.5q0 -30 20.5 -49t58.5 -19zM122 638q-24 17 -29 33.5t5 31.5
q11 17 30 16t36 -12l121 -80q24 -16 27.5 -33.5t-7.5 -31.5q-12 -17 -30.5 -15t-35.5 14z" />
    <glyph glyph-name="aacute" unicode="&#xe1;" horiz-adv-x="503" 
d="M335 76q-20 -35 -58.5 -60.5t-101.5 -25.5q-76 0 -118 40t-42 107q0 46 18 77t48 50.5t69 28t80 8.5q36 0 63.5 -2.5t41.5 -4.5v11q0 20 -3.5 38.5t-14.5 32.5t-31 22t-53 8q-17 0 -31.5 -2t-28 -5.5t-28 -8l-30.5 -9.5q-18 -5 -34.5 0t-22.5 23t1 33t24 26
q27 18 71 27.5t92 9.5q103 0 150 -49t47 -137v-256q0 -24 -12.5 -41t-41.5 -17q-28 0 -41 17t-13 41v18zM205 78q32 0 56 11.5t40.5 30t25 41.5t8.5 47v17q-20 3 -40.5 4t-48.5 1q-54 0 -87 -19.5t-33 -64.5q0 -30 20.5 -49t58.5 -19zM248 560q-17 -12 -35.5 -13.5
t-30.5 15.5q-11 15 -7 33t28 34l120 78q17 11 35.5 11.5t29.5 -16.5q10 -16 5 -32.5t-29 -33.5z" />
    <glyph glyph-name="acircumflex" unicode="&#xe2;" horiz-adv-x="503" 
d="M335 76q-20 -35 -58.5 -60.5t-101.5 -25.5q-76 0 -118 40t-42 107q0 46 18 77t48 50.5t69 28t80 8.5q36 0 63.5 -2.5t41.5 -4.5v11q0 20 -3.5 38.5t-14.5 32.5t-31 22t-53 8q-17 0 -31.5 -2t-28 -5.5t-28 -8l-30.5 -9.5q-18 -5 -34.5 0t-22.5 23t1 33t24 26
q27 18 71 27.5t92 9.5q103 0 150 -49t47 -137v-256q0 -24 -12.5 -41t-41.5 -17q-28 0 -41 17t-13 41v18zM205 78q32 0 56 11.5t40.5 30t25 41.5t8.5 47v17q-20 3 -40.5 4t-48.5 1q-54 0 -87 -19.5t-33 -64.5q0 -30 20.5 -49t58.5 -19zM241 632l-92 -71q-14 -11 -31 -12.5
t-28 13.5q-8 12 -5.5 28t21.5 30l105 77q18 14 34 13.5t34 -13.5l110 -79q20 -14 20.5 -31t-8.5 -28q-11 -14 -27.5 -13.5t-30.5 11.5z" />
    <glyph glyph-name="atilde" unicode="&#xe3;" horiz-adv-x="503" 
d="M335 76q-20 -35 -58.5 -60.5t-101.5 -25.5q-76 0 -118 40t-42 107q0 46 18 77t48 50.5t69 28t80 8.5q36 0 63.5 -2.5t41.5 -4.5v11q0 20 -3.5 38.5t-14.5 32.5t-31 22t-53 8q-17 0 -31.5 -2t-28 -5.5t-28 -8l-30.5 -9.5q-18 -5 -34.5 0t-22.5 23t1 33t24 26
q27 18 71 27.5t92 9.5q103 0 150 -49t47 -137v-256q0 -24 -12.5 -41t-41.5 -17q-28 0 -41 17t-13 41v18zM205 78q32 0 56 11.5t40.5 30t25 41.5t8.5 47v17q-20 3 -40.5 4t-48.5 1q-54 0 -87 -19.5t-33 -64.5q0 -30 20.5 -49t58.5 -19zM299 633q13 0 21 6.5l18 14.5
q14 12 28.5 14.5t29.5 -10.5q13 -11 11 -28.5t-15 -33.5q-17 -22 -42.5 -35t-51.5 -13q-21 0 -38 6.5t-31.5 15t-27.5 15t-26 6.5t-22 -6t-20 -16q-14 -11 -27 -13t-27 9q-13 11 -11.5 29t15.5 35q19 21 43 34t49 13q22 0 39.5 -6.5t32.5 -15l27.5 -15t24.5 -6.5z" />
    <glyph glyph-name="adieresis" unicode="&#xe4;" horiz-adv-x="503" 
d="M335 76q-20 -35 -58.5 -60.5t-101.5 -25.5q-76 0 -118 40t-42 107q0 46 18 77t48 50.5t69 28t80 8.5q36 0 63.5 -2.5t41.5 -4.5v11q0 20 -3.5 38.5t-14.5 32.5t-31 22t-53 8q-17 0 -31.5 -2t-28 -5.5t-28 -8l-30.5 -9.5q-18 -5 -34.5 0t-22.5 23t1 33t24 26
q27 18 71 27.5t92 9.5q103 0 150 -49t47 -137v-256q0 -24 -12.5 -41t-41.5 -17q-28 0 -41 17t-13 41v18zM205 78q32 0 56 11.5t40.5 30t25 41.5t8.5 47v17q-20 3 -40.5 4t-48.5 1q-54 0 -87 -19.5t-33 -64.5q0 -30 20.5 -49t58.5 -19zM87 618q0 27 16.5 44t46.5 17
q29 0 46 -17t17 -44q0 -29 -17 -45t-46 -16q-30 0 -46.5 16t-16.5 45zM278 618q0 27 16 44t46 17q29 0 46 -17t17 -44q0 -29 -17 -45t-46 -16q-30 0 -46 16t-16 45z" />
    <glyph glyph-name="aring" unicode="&#xe5;" horiz-adv-x="503" 
d="M335 76q-20 -35 -58.5 -60.5t-101.5 -25.5q-76 0 -118 40t-42 107q0 46 18 77t48 50.5t69 28t80 8.5q36 0 63.5 -2.5t41.5 -4.5v11q0 20 -3.5 38.5t-14.5 32.5t-31 22t-53 8q-17 0 -31.5 -2t-28 -5.5t-28 -8l-30.5 -9.5q-18 -5 -34.5 0t-22.5 23t1 33t24 26
q27 18 71 27.5t92 9.5q103 0 150 -49t47 -137v-256q0 -24 -12.5 -41t-41.5 -17q-28 0 -41 17t-13 41v18zM205 78q32 0 56 11.5t40.5 30t25 41.5t8.5 47v17q-20 3 -40.5 4t-48.5 1q-54 0 -87 -19.5t-33 -64.5q0 -30 20.5 -49t58.5 -19zM241 729q51 0 80 -26t29 -71t-29 -71
t-80 -26q-50 0 -79.5 26t-29.5 71t29 71t80 26zM194 632q0 -20 13.5 -32.5t33.5 -12.5t33.5 12.5t13.5 32.5t-13.5 32.5t-33.5 12.5t-33.5 -12.5t-13.5 -32.5z" />
    <glyph glyph-name="ccedilla" unicode="&#xe7;" horiz-adv-x="461" 
d="M420 37q-28 -22 -65 -33.5t-79 -13.5l-7 -33q30 -2 50 -11.5t32 -23t16.5 -30t4.5 -32.5q0 -20 -7.5 -38t-23 -31.5t-39 -22t-55.5 -8.5q-33 0 -53.5 4.5t-36.5 12.5q-14 8 -18.5 20.5t0.5 24.5q5 13 16.5 15t22.5 -1q12 -3 25.5 -6t27.5 -3q43 0 43 32q0 18 -14 26.5
t-45 13.5q-17 2 -22 12.5t-2 22.5l14 62q-81 17 -125.5 79.5t-44.5 165.5q0 60 16.5 108t47 81.5t74.5 51.5t99 18q81 0 129 -28q23 -14 28 -31.5t-3 -35.5t-24 -23.5t-42 2.5q-20 6 -38.5 10.5t-46.5 4.5q-58 0 -91 -42t-33 -116q0 -72 34.5 -111t90.5 -39q28 0 50.5 8.5
t45.5 19.5q25 12 42 8.5t26 -18.5q11 -17 5.5 -36t-25.5 -36z" />
    <glyph glyph-name="egrave" unicode="&#xe8;" horiz-adv-x="506" 
d="M147 204q2 -57 37 -90t93 -33q32 0 57.5 8t48.5 18q24 10 39 5t23 -19q8 -16 3.5 -33.5t-24.5 -30.5q-32 -22 -73.5 -30.5t-84.5 -8.5q-113 0 -172 66t-59 187q0 58 16 105.5t46.5 81t73.5 52t97 18.5q49 0 87 -14.5t64.5 -41t40 -63t13.5 -80.5q0 -11 -1.5 -25t-3.5 -22
q-7 -25 -21.5 -37.5t-44.5 -12.5h-255zM268 409q-54 0 -85 -32.5t-36 -93.5h221q1 8 1 13v12q0 43 -24.5 72t-76.5 29zM157 638q-24 17 -29 33.5t5 31.5q11 17 30 16t36 -12l121 -80q24 -16 27.5 -33.5t-7.5 -31.5q-12 -17 -30.5 -15t-35.5 14z" />
    <glyph glyph-name="eacute" unicode="&#xe9;" horiz-adv-x="506" 
d="M147 204q2 -57 37 -90t93 -33q32 0 57.5 8t48.5 18q24 10 39 5t23 -19q8 -16 3.5 -33.5t-24.5 -30.5q-32 -22 -73.5 -30.5t-84.5 -8.5q-113 0 -172 66t-59 187q0 58 16 105.5t46.5 81t73.5 52t97 18.5q49 0 87 -14.5t64.5 -41t40 -63t13.5 -80.5q0 -11 -1.5 -25t-3.5 -22
q-7 -25 -21.5 -37.5t-44.5 -12.5h-255zM268 409q-54 0 -85 -32.5t-36 -93.5h221q1 8 1 13v12q0 43 -24.5 72t-76.5 29zM273 560q-17 -12 -35.5 -13.5t-30.5 15.5q-11 15 -7 33t28 34l120 78q17 11 35.5 11.5t29.5 -16.5q10 -16 5 -32.5t-29 -33.5z" />
    <glyph glyph-name="ecircumflex" unicode="&#xea;" horiz-adv-x="506" 
d="M147 204q2 -57 37 -90t93 -33q32 0 57.5 8t48.5 18q24 10 39 5t23 -19q8 -16 3.5 -33.5t-24.5 -30.5q-32 -22 -73.5 -30.5t-84.5 -8.5q-113 0 -172 66t-59 187q0 58 16 105.5t46.5 81t73.5 52t97 18.5q49 0 87 -14.5t64.5 -41t40 -63t13.5 -80.5q0 -11 -1.5 -25t-3.5 -22
q-7 -25 -21.5 -37.5t-44.5 -12.5h-255zM268 409q-54 0 -85 -32.5t-36 -93.5h221q1 8 1 13v12q0 43 -24.5 72t-76.5 29zM265 632l-92 -71q-14 -11 -31 -12.5t-28 13.5q-8 12 -5.5 28t21.5 30l105 77q18 14 34 13.5t34 -13.5l110 -79q20 -14 20.5 -31t-8.5 -28
q-11 -14 -27.5 -13.5t-30.5 11.5z" />
    <glyph glyph-name="edieresis" unicode="&#xeb;" horiz-adv-x="506" 
d="M147 204q2 -57 37 -90t93 -33q32 0 57.5 8t48.5 18q24 10 39 5t23 -19q8 -16 3.5 -33.5t-24.5 -30.5q-32 -22 -73.5 -30.5t-84.5 -8.5q-113 0 -172 66t-59 187q0 58 16 105.5t46.5 81t73.5 52t97 18.5q49 0 87 -14.5t64.5 -41t40 -63t13.5 -80.5q0 -11 -1.5 -25t-3.5 -22
q-7 -25 -21.5 -37.5t-44.5 -12.5h-255zM268 409q-54 0 -85 -32.5t-36 -93.5h221q1 8 1 13v12q0 43 -24.5 72t-76.5 29zM109 618q0 27 16.5 44t46.5 17q29 0 46 -17t17 -44q0 -29 -17 -45t-46 -16q-30 0 -46.5 16t-16.5 45zM300 618q0 27 16 44t46 17q29 0 46 -17t17 -44
q0 -29 -17 -45t-46 -16q-30 0 -46 16t-16 45z" />
    <glyph glyph-name="igrave" unicode="&#xec;" horiz-adv-x="233" 
d="M60 432q0 23 14 40.5t42 17.5q29 0 43 -17.5t14 -40.5v-374q0 -24 -14 -41t-43 -17q-28 0 -42 17t-14 41v374zM1 638q-24 17 -29 33.5t5 31.5q11 17 30 16t36 -12l121 -80q24 -16 27.5 -33.5t-7.5 -31.5q-12 -17 -30.5 -15t-35.5 14z" />
    <glyph glyph-name="iacute" unicode="&#xed;" horiz-adv-x="233" 
d="M60 432q0 23 14 40.5t42 17.5q29 0 43 -17.5t14 -40.5v-374q0 -24 -14 -41t-43 -17q-28 0 -42 17t-14 41v374zM129 560q-17 -12 -35.5 -13.5t-30.5 15.5q-11 15 -7 33t28 34l120 78q17 11 35.5 11.5t29.5 -16.5q10 -16 5 -32.5t-29 -33.5z" />
    <glyph glyph-name="icircumflex" unicode="&#xee;" horiz-adv-x="233" 
d="M60 432q0 23 14 40.5t42 17.5q29 0 43 -17.5t14 -40.5v-374q0 -24 -14 -41t-43 -17q-28 0 -42 17t-14 41v374zM112 632l-92 -71q-14 -11 -31 -12.5t-28 13.5q-8 12 -5.5 28t21.5 30l105 77q18 14 34 13.5t34 -13.5l110 -79q20 -14 20.5 -31t-8.5 -28q-11 -14 -27.5 -13.5
t-30.5 11.5z" />
    <glyph glyph-name="idieresis" unicode="&#xef;" horiz-adv-x="233" 
d="M-40 618q0 27 16.5 44t46.5 17q29 0 46 -17t17 -44q0 -29 -17 -45t-46 -16q-30 0 -46.5 16t-16.5 45zM151 618q0 27 16 44t46 17q29 0 46 -17t17 -44q0 -29 -17 -45t-46 -16q-30 0 -46 16t-16 45zM60 432q0 23 14 40.5t42 17.5q29 0 43 -17.5t14 -40.5v-374
q0 -24 -14 -41t-43 -17q-28 0 -42 17t-14 41v374z" />
    <glyph glyph-name="ntilde" unicode="&#xf1;" horiz-adv-x="552" 
d="M60 432q0 23 14 40.5t42 17.5q29 0 43 -17.5t14 -40.5v-15q23 43 63 63t85 20q49 0 81.5 -14.5t52.5 -42.5t28.5 -67.5t8.5 -89.5v-228q0 -24 -14 -41t-43 -17q-28 0 -42 17t-14 41v230q0 50 -18.5 81t-66.5 31q-36 0 -59.5 -17.5t-37 -47t-18.5 -68t-6 -80.5v-129
q0 -24 -14 -41t-43 -17q-28 0 -42 17t-14 41v374zM340 633q13 0 21 6.5l18 14.5q14 12 28.5 14.5t29.5 -10.5q13 -11 11 -28.5t-15 -33.5q-17 -22 -42.5 -35t-51.5 -13q-21 0 -38 6.5t-31.5 15t-27.5 15t-26 6.5t-22 -6t-20 -16q-14 -11 -27 -13t-27 9q-13 11 -11.5 29
t15.5 35q19 21 43 34t49 13q22 0 39.5 -6.5t32.5 -15l27.5 -15t24.5 -6.5z" />
    <glyph glyph-name="ograve" unicode="&#xf2;" horiz-adv-x="549" 
d="M35 245q0 54 15.5 101t46 81t75 53.5t102.5 19.5t103 -19.5t75.5 -54t46 -81t15.5 -100.5t-15.5 -101t-46 -81t-75.5 -53.5t-103 -19.5t-102.5 19.5t-75 53.5t-46 81t-15.5 101zM151 245q0 -34 8 -63t23.5 -50.5t38.5 -33.5t53 -12q31 0 54.5 12t39 33.5t23 50.5t7.5 63
t-7.5 63t-23 50.5t-39 33.5t-54.5 12t-54 -12t-38.5 -33.5t-23 -50.5t-7.5 -63zM156 638q-24 17 -29 33.5t5 31.5q11 17 30 16t36 -12l121 -80q24 -16 27.5 -33.5t-7.5 -31.5q-12 -17 -30.5 -15t-35.5 14z" />
    <glyph glyph-name="oacute" unicode="&#xf3;" horiz-adv-x="549" 
d="M35 245q0 54 15.5 101t46 81t75 53.5t102.5 19.5t103 -19.5t75.5 -54t46 -81t15.5 -100.5t-15.5 -101t-46 -81t-75.5 -53.5t-103 -19.5t-102.5 19.5t-75 53.5t-46 81t-15.5 101zM151 245q0 -34 8 -63t23.5 -50.5t38.5 -33.5t53 -12q31 0 54.5 12t39 33.5t23 50.5t7.5 63
t-7.5 63t-23 50.5t-39 33.5t-54.5 12t-54 -12t-38.5 -33.5t-23 -50.5t-7.5 -63zM288 560q-17 -12 -35.5 -13.5t-30.5 15.5q-11 15 -7 33t28 34l120 78q17 11 35.5 11.5t29.5 -16.5q10 -16 5 -32.5t-29 -33.5z" />
    <glyph glyph-name="ocircumflex" unicode="&#xf4;" horiz-adv-x="549" 
d="M35 245q0 54 15.5 101t46 81t75 53.5t102.5 19.5t103 -19.5t75.5 -54t46 -81t15.5 -100.5t-15.5 -101t-46 -81t-75.5 -53.5t-103 -19.5t-102.5 19.5t-75 53.5t-46 81t-15.5 101zM151 245q0 -34 8 -63t23.5 -50.5t38.5 -33.5t53 -12q31 0 54.5 12t39 33.5t23 50.5t7.5 63
t-7.5 63t-23 50.5t-39 33.5t-54.5 12t-54 -12t-38.5 -33.5t-23 -50.5t-7.5 -63zM270 632l-92 -71q-14 -11 -31 -12.5t-28 13.5q-8 12 -5.5 28t21.5 30l105 77q18 14 34 13.5t34 -13.5l110 -79q20 -14 20.5 -31t-8.5 -28q-11 -14 -27.5 -13.5t-30.5 11.5z" />
    <glyph glyph-name="otilde" unicode="&#xf5;" horiz-adv-x="549" 
d="M35 245q0 54 15.5 101t46 81t75 53.5t102.5 19.5t103 -19.5t75.5 -54t46 -81t15.5 -100.5t-15.5 -101t-46 -81t-75.5 -53.5t-103 -19.5t-102.5 19.5t-75 53.5t-46 81t-15.5 101zM151 245q0 -34 8 -63t23.5 -50.5t38.5 -33.5t53 -12q31 0 54.5 12t39 33.5t23 50.5t7.5 63
t-7.5 63t-23 50.5t-39 33.5t-54.5 12t-54 -12t-38.5 -33.5t-23 -50.5t-7.5 -63zM336 633q13 0 21 6.5l18 14.5q14 12 28.5 14.5t29.5 -10.5q13 -11 11 -28.5t-15 -33.5q-17 -22 -42.5 -35t-51.5 -13q-21 0 -38 6.5t-31.5 15t-27.5 15t-26 6.5t-22 -6t-20 -16
q-14 -11 -27 -13t-27 9q-13 11 -11.5 29t15.5 35q19 21 43 34t49 13q22 0 39.5 -6.5t32.5 -15l27.5 -15t24.5 -6.5z" />
    <glyph glyph-name="odieresis" unicode="&#xf6;" horiz-adv-x="549" 
d="M35 245q0 54 15.5 101t46 81t75 53.5t102.5 19.5t103 -19.5t75.5 -54t46 -81t15.5 -100.5t-15.5 -101t-46 -81t-75.5 -53.5t-103 -19.5t-102.5 19.5t-75 53.5t-46 81t-15.5 101zM151 245q0 -34 8 -63t23.5 -50.5t38.5 -33.5t53 -12q31 0 54.5 12t39 33.5t23 50.5t7.5 63
t-7.5 63t-23 50.5t-39 33.5t-54.5 12t-54 -12t-38.5 -33.5t-23 -50.5t-7.5 -63zM116 618q0 27 16.5 44t46.5 17q29 0 46 -17t17 -44q0 -29 -17 -45t-46 -16q-30 0 -46.5 16t-16.5 45zM307 618q0 27 16 44t46 17q29 0 46 -17t17 -44q0 -29 -17 -45t-46 -16q-30 0 -46 16
t-16 45z" />
    <glyph glyph-name="ugrave" unicode="&#xf9;" horiz-adv-x="552" 
d="M492 58q0 -23 -14 -40.5t-42 -17.5q-29 0 -43 17.5t-14 40.5v15q-23 -43 -63 -63t-85 -20q-49 0 -81.5 14.5t-52.5 42.5t-28.5 67.5t-8.5 89.5v228q0 24 14 41t43 17q28 0 42 -17t14 -41v-230q0 -50 18.5 -81t66.5 -31q36 0 59.5 17.5t37 47t18.5 68t6 80.5v129
q0 24 14 41t43 17q28 0 42 -17t14 -41v-374zM166 638q-24 17 -29 33.5t5 31.5q11 17 30 16t36 -12l121 -80q24 -16 27.5 -33.5t-7.5 -31.5q-12 -17 -30.5 -15t-35.5 14z" />
    <glyph glyph-name="uacute" unicode="&#xfa;" horiz-adv-x="552" 
d="M492 58q0 -23 -14 -40.5t-42 -17.5q-29 0 -43 17.5t-14 40.5v15q-23 -43 -63 -63t-85 -20q-49 0 -81.5 14.5t-52.5 42.5t-28.5 67.5t-8.5 89.5v228q0 24 14 41t43 17q28 0 42 -17t14 -41v-230q0 -50 18.5 -81t66.5 -31q36 0 59.5 17.5t37 47t18.5 68t6 80.5v129
q0 24 14 41t43 17q28 0 42 -17t14 -41v-374zM299 560q-17 -12 -35.5 -13.5t-30.5 15.5q-11 15 -7 33t28 34l120 78q17 11 35.5 11.5t29.5 -16.5q10 -16 5 -32.5t-29 -33.5z" />
    <glyph glyph-name="ucircumflex" unicode="&#xfb;" horiz-adv-x="552" 
d="M492 58q0 -23 -14 -40.5t-42 -17.5q-29 0 -43 17.5t-14 40.5v15q-23 -43 -63 -63t-85 -20q-49 0 -81.5 14.5t-52.5 42.5t-28.5 67.5t-8.5 89.5v228q0 24 14 41t43 17q28 0 42 -17t14 -41v-230q0 -50 18.5 -81t66.5 -31q36 0 59.5 17.5t37 47t18.5 68t6 80.5v129
q0 24 14 41t43 17q28 0 42 -17t14 -41v-374zM274 632l-92 -71q-14 -11 -31 -12.5t-28 13.5q-8 12 -5.5 28t21.5 30l105 77q18 14 34 13.5t34 -13.5l110 -79q20 -14 20.5 -31t-8.5 -28q-11 -14 -27.5 -13.5t-30.5 11.5z" />
    <glyph glyph-name="udieresis" unicode="&#xfc;" horiz-adv-x="552" 
d="M492 58q0 -23 -14 -40.5t-42 -17.5q-29 0 -43 17.5t-14 40.5v15q-23 -43 -63 -63t-85 -20q-49 0 -81.5 14.5t-52.5 42.5t-28.5 67.5t-8.5 89.5v228q0 24 14 41t43 17q28 0 42 -17t14 -41v-230q0 -50 18.5 -81t66.5 -31q36 0 59.5 17.5t37 47t18.5 68t6 80.5v129
q0 24 14 41t43 17q28 0 42 -17t14 -41v-374zM119 618q0 27 16.5 44t46.5 17q29 0 46 -17t17 -44q0 -29 -17 -45t-46 -16q-30 0 -46.5 16t-16.5 45zM310 618q0 27 16 44t46 17q29 0 46 -17t17 -44q0 -29 -17 -45t-46 -16q-30 0 -46 16t-16 45z" />
    <glyph glyph-name="yacute" unicode="&#xfd;" horiz-adv-x="465" 
d="M21 401q-11 24 -6 48.5t32 35.5q29 11 48.5 -1.5t30.5 -39.5l117 -310l103 306q10 31 28.5 43.5t45.5 2.5q27 -9 28.5 -32t-6.5 -46l-156 -413q-22 -59 -42.5 -98.5t-42.5 -63t-47.5 -33.5t-57.5 -10q-17 0 -40 4t-41 14q-23 13 -31.5 31.5t0.5 38.5t25 22.5t34 -2.5
l25 -8t29 -4q35 0 55.5 33t38.5 81zM249 560q-17 -12 -35.5 -13.5t-30.5 15.5q-11 15 -7 33t28 34l120 78q17 11 35.5 11.5t29.5 -16.5q10 -16 5 -32.5t-29 -33.5z" />
    <glyph glyph-name="ydieresis" unicode="&#xff;" horiz-adv-x="465" 
d="M21 401q-11 24 -6 48.5t32 35.5q29 11 48.5 -1.5t30.5 -39.5l117 -310l103 306q10 31 28.5 43.5t45.5 2.5q27 -9 28.5 -32t-6.5 -46l-156 -413q-22 -59 -42.5 -98.5t-42.5 -63t-47.5 -33.5t-57.5 -10q-17 0 -40 4t-41 14q-23 13 -31.5 31.5t0.5 38.5t25 22.5t34 -2.5
l25 -8t29 -4q35 0 55.5 33t38.5 81zM80 618q0 27 16.5 44t46.5 17q29 0 46 -17t17 -44q0 -29 -17 -45t-46 -16q-30 0 -46.5 16t-16.5 45zM271 618q0 27 16 44t46 17q29 0 46 -17t17 -44q0 -29 -17 -45t-46 -16q-30 0 -46 16t-16 45z" />
    <glyph glyph-name="amacron" unicode="&#x101;" horiz-adv-x="503" 
d="M335 76q-20 -35 -58.5 -60.5t-101.5 -25.5q-76 0 -118 40t-42 107q0 46 18 77t48 50.5t69 28t80 8.5q36 0 63.5 -2.5t41.5 -4.5v11q0 20 -3.5 38.5t-14.5 32.5t-31 22t-53 8q-17 0 -31.5 -2t-28 -5.5t-28 -8l-30.5 -9.5q-18 -5 -34.5 0t-22.5 23t1 33t24 26
q27 18 71 27.5t92 9.5q103 0 150 -49t47 -137v-256q0 -24 -12.5 -41t-41.5 -17q-28 0 -41 17t-13 41v18zM205 78q32 0 56 11.5t40.5 30t25 41.5t8.5 47v17q-20 3 -40.5 4t-48.5 1q-54 0 -87 -19.5t-33 -64.5q0 -30 20.5 -49t58.5 -19zM130 568q-47 0 -47 40t47 40h229
q25 0 36 -11t11 -29q0 -40 -47 -40h-229z" />
    <glyph glyph-name="abreve" unicode="&#x103;" horiz-adv-x="503" 
d="M335 76q-20 -35 -58.5 -60.5t-101.5 -25.5q-76 0 -118 40t-42 107q0 46 18 77t48 50.5t69 28t80 8.5q36 0 63.5 -2.5t41.5 -4.5v11q0 20 -3.5 38.5t-14.5 32.5t-31 22t-53 8q-17 0 -31.5 -2t-28 -5.5t-28 -8l-30.5 -9.5q-18 -5 -34.5 0t-22.5 23t1 33t24 26
q27 18 71 27.5t92 9.5q103 0 150 -49t47 -137v-256q0 -24 -12.5 -41t-41.5 -17q-28 0 -41 17t-13 41v18zM205 78q32 0 56 11.5t40.5 30t25 41.5t8.5 47v17q-20 3 -40.5 4t-48.5 1q-54 0 -87 -19.5t-33 -64.5q0 -30 20.5 -49t58.5 -19zM244 548q-57 0 -92.5 23t-51.5 50
q-9 16 -7 33t15 26q18 12 34 5.5t28 -21.5q14 -17 30.5 -29t43.5 -12t43.5 12.5t31.5 29.5q12 15 28.5 20.5t33.5 -5.5q14 -9 14.5 -25.5t-8.5 -32.5q-8 -13 -20.5 -26.5t-30 -24t-40.5 -17t-52 -6.5z" />
    <glyph glyph-name="aogonek" unicode="&#x105;" horiz-adv-x="498" 
d="M330 76q-20 -35 -58.5 -60.5t-101.5 -25.5q-76 0 -118 40t-42 107q0 46 18 77t48 50.5t69 28t80 8.5q36 0 63.5 -2.5t41.5 -4.5v11q0 20 -3.5 38.5t-14.5 32.5t-31 22t-53 8q-17 0 -31.5 -2t-28 -5t-28 -7.5l-30.5 -9.5q-18 -5 -34 -0.5t-23 22.5t0.5 33t24.5 26
q27 18 72 27.5t91 9.5q103 0 150 -49t47 -137v-268q0 -23 -5.5 -34.5t-17.5 -24.5q-8 -8 -17.5 -19.5t-18 -25.5t-14.5 -30t-6 -34t9 -29t30 -11q10 0 18.5 2.5t16.5 4.5q25 8 36 -11q8 -12 2.5 -28t-21.5 -27q-14 -9 -31.5 -14t-43.5 -5q-54 0 -88 27t-34 81q0 43 21 81
t56 68v59zM200 78q32 0 56 11.5t40.5 30t25 41.5t8.5 47v17q-20 3 -40.5 4t-48.5 1q-54 0 -87 -19.5t-33 -64.5q0 -30 20.5 -49t58.5 -19z" />
    <glyph glyph-name="cacute" unicode="&#x107;" horiz-adv-x="461" 
d="M420 36q-29 -23 -69.5 -34.5t-85.5 -11.5q-108 0 -169 65.5t-61 185.5q0 60 16.5 108t47 81.5t74.5 51.5t99 18q41 0 73.5 -7t55.5 -21q22 -14 27.5 -31.5t-2.5 -35.5t-24 -23.5t-42 2.5q-20 6 -38.5 10.5t-46.5 4.5q-58 0 -91 -42t-33 -116q0 -72 34.5 -111t90.5 -39
q28 0 50.5 8.5t45.5 19.5q25 12 42 8.5t26 -18.5q11 -17 5.5 -36.5t-25.5 -36.5zM272 560q-17 -12 -35.5 -13.5t-30.5 15.5q-11 15 -7 33t28 34l120 78q17 11 35.5 11.5t29.5 -16.5q10 -16 5 -32.5t-29 -33.5z" />
    <glyph glyph-name="ccircumflex" unicode="&#x109;" horiz-adv-x="461" 
d="M420 36q-29 -23 -69.5 -34.5t-85.5 -11.5q-108 0 -169 65.5t-61 185.5q0 60 16.5 108t47 81.5t74.5 51.5t99 18q41 0 73.5 -7t55.5 -21q22 -14 27.5 -31.5t-2.5 -35.5t-24 -23.5t-42 2.5q-20 6 -38.5 10.5t-46.5 4.5q-58 0 -91 -42t-33 -116q0 -72 34.5 -111t90.5 -39
q28 0 50.5 8.5t45.5 19.5q25 12 42 8.5t26 -18.5q11 -17 5.5 -36.5t-25.5 -36.5zM261 632l-92 -71q-14 -11 -31 -12.5t-28 13.5q-8 12 -5.5 28t21.5 30l105 77q18 14 34 13.5t34 -13.5l110 -79q20 -14 20.5 -31t-8.5 -28q-11 -14 -27.5 -13.5t-30.5 11.5z" />
    <glyph glyph-name="cdotaccent" unicode="&#x10b;" horiz-adv-x="461" 
d="M420 36q-29 -23 -69.5 -34.5t-85.5 -11.5q-108 0 -169 65.5t-61 185.5q0 60 16.5 108t47 81.5t74.5 51.5t99 18q41 0 73.5 -7t55.5 -21q22 -14 27.5 -31.5t-2.5 -35.5t-24 -23.5t-42 2.5q-20 6 -38.5 10.5t-46.5 4.5q-58 0 -91 -42t-33 -116q0 -72 34.5 -111t90.5 -39
q28 0 50.5 8.5t45.5 19.5q25 12 42 8.5t26 -18.5q11 -17 5.5 -36.5t-25.5 -36.5zM195 619q0 29 18 45t48 16q29 0 47.5 -16t18.5 -45q0 -30 -18.5 -45.5t-47.5 -15.5q-30 0 -48 15.5t-18 45.5z" />
    <glyph glyph-name="ccaron" unicode="&#x10d;" horiz-adv-x="461" 
d="M420 36q-29 -23 -69.5 -34.5t-85.5 -11.5q-108 0 -169 65.5t-61 185.5q0 60 16.5 108t47 81.5t74.5 51.5t99 18q41 0 73.5 -7t55.5 -21q22 -14 27.5 -31.5t-2.5 -35.5t-24 -23.5t-42 2.5q-20 6 -38.5 10.5t-46.5 4.5q-58 0 -91 -42t-33 -116q0 -72 34.5 -111t90.5 -39
q28 0 50.5 8.5t45.5 19.5q25 12 42 8.5t26 -18.5q11 -17 5.5 -36.5t-25.5 -36.5zM270 624l93 70q14 11 31 12t28 -13q9 -12 6 -27.5t-22 -29.5l-105 -78q-18 -14 -34 -13.5t-34 13.5l-108 78q-20 14 -22 30.5t7 28.5q11 15 28 15t31 -11z" />
    <glyph glyph-name="emacron" unicode="&#x113;" horiz-adv-x="506" 
d="M147 204q2 -57 37 -90t93 -33q32 0 57.5 8t48.5 18q24 10 39 5t23 -19q8 -16 3.5 -33.5t-24.5 -30.5q-32 -22 -73.5 -30.5t-84.5 -8.5q-113 0 -172 66t-59 187q0 58 16 105.5t46.5 81t73.5 52t97 18.5q49 0 87 -14.5t64.5 -41t40 -63t13.5 -80.5q0 -11 -1.5 -25t-3.5 -22
q-7 -25 -21.5 -37.5t-44.5 -12.5h-255zM268 409q-54 0 -85 -32.5t-36 -93.5h221q1 8 1 13v12q0 43 -24.5 72t-76.5 29zM155 568q-47 0 -47 40t47 40h229q25 0 36 -11t11 -29q0 -40 -47 -40h-229z" />
    <glyph glyph-name="edotaccent" unicode="&#x117;" horiz-adv-x="506" 
d="M147 204q2 -57 37 -90t93 -33q32 0 57.5 8t48.5 18q24 10 39 5t23 -19q8 -16 3.5 -33.5t-24.5 -30.5q-32 -22 -73.5 -30.5t-84.5 -8.5q-113 0 -172 66t-59 187q0 58 16 105.5t46.5 81t73.5 52t97 18.5q49 0 87 -14.5t64.5 -41t40 -63t13.5 -80.5q0 -11 -1.5 -25t-3.5 -22
q-7 -25 -21.5 -37.5t-44.5 -12.5h-255zM268 409q-54 0 -85 -32.5t-36 -93.5h221q1 8 1 13v12q0 43 -24.5 72t-76.5 29zM200 619q0 29 18 45t48 16q29 0 47.5 -16t18.5 -45q0 -30 -18.5 -45.5t-47.5 -15.5q-30 0 -48 15.5t-18 45.5z" />
    <glyph glyph-name="eogonek" unicode="&#x119;" horiz-adv-x="506" 
d="M147 204q2 -57 37 -90t93 -33q32 0 57.5 7.5t48.5 17.5q24 10 38.5 5.5t22.5 -18.5q8 -16 4 -34t-24 -31l-21 -11q-9 -8 -22 -21.5t-24.5 -31.5t-19.5 -39.5t-8 -44.5t12.5 -32.5t29.5 -9.5q11 0 19 2.5t16 4.5q25 8 36 -11q8 -12 2.5 -28t-21.5 -27q-14 -9 -31.5 -14
t-43.5 -5q-54 0 -88 30t-34 81q0 35 12 64.5t34 54.5q-121 0 -179 66t-58 187q0 58 16 105.5t46.5 81t73.5 52t97 18.5q49 0 87 -14.5t64.5 -41t40 -63t13.5 -80.5q0 -11 -1.5 -25t-3.5 -22q-7 -25 -21.5 -37.5t-44.5 -12.5h-255zM268 409q-54 0 -85 -32.5t-36 -93.5h221
q1 8 1 13v12q0 43 -24.5 72t-76.5 29z" />
    <glyph glyph-name="ecaron" unicode="&#x11b;" horiz-adv-x="506" 
d="M147 204q2 -57 37 -90t93 -33q32 0 57.5 8t48.5 18q24 10 39 5t23 -19q8 -16 3.5 -33.5t-24.5 -30.5q-32 -22 -73.5 -30.5t-84.5 -8.5q-113 0 -172 66t-59 187q0 58 16 105.5t46.5 81t73.5 52t97 18.5q49 0 87 -14.5t64.5 -41t40 -63t13.5 -80.5q0 -11 -1.5 -25t-3.5 -22
q-7 -25 -21.5 -37.5t-44.5 -12.5h-255zM268 409q-54 0 -85 -32.5t-36 -93.5h221q1 8 1 13v12q0 43 -24.5 72t-76.5 29zM274 624l93 70q14 11 31 12t28 -13q9 -12 6 -27.5t-22 -29.5l-105 -78q-18 -14 -34 -13.5t-34 13.5l-108 78q-20 14 -22 30.5t7 28.5q11 15 28 15t31 -11
z" />
    <glyph glyph-name="gcircumflex" unicode="&#x11d;" horiz-adv-x="513" 
d="M50 331q0 75 50.5 122t149.5 47q22 0 41.5 -2.5t36.5 -7.5h138q46 0 46 -40q0 -39 -46 -39h-35q9 -18 14.5 -38t5.5 -42q0 -36 -13 -67t-38 -53t-63 -34.5t-87 -12.5q-55 0 -95 15q-13 -8 -20 -19t-7 -22t7 -19t24 -14.5t47 -10.5t75 -6q46 -2 84.5 -9t66.5 -21.5
t43.5 -38t15.5 -58.5q0 -37 -15.5 -68t-47 -54t-78.5 -36t-110 -13q-66 0 -109 12.5t-69 32.5t-36.5 45t-10.5 51q0 34 18.5 62.5t53.5 48.5q-25 14 -36 36t-11 43q0 29 15 52.5t39 43.5q-44 44 -44 114zM249 4q-43 3 -78 9q-24 -11 -39 -28.5t-15 -40.5q0 -12 6.5 -24
t20.5 -21.5t37.5 -15.5t57.5 -6q78 0 111 22.5t33 52.5q0 26 -30 36.5t-104 15.5zM151 331q0 -36 25.5 -58.5t73.5 -22.5t73.5 22.5t25.5 58.5q0 37 -25.5 60t-73.5 23t-73.5 -23t-25.5 -60zM250 632l-92 -71q-14 -11 -31 -12.5t-28 13.5q-8 12 -5.5 28t21.5 30l105 77
q18 14 34 13.5t34 -13.5l110 -79q20 -14 20.5 -31t-8.5 -28q-11 -14 -27.5 -13.5t-30.5 11.5z" />
    <glyph glyph-name="gbreve" unicode="&#x11f;" horiz-adv-x="513" 
d="M50 331q0 75 50.5 122t149.5 47q22 0 41.5 -2.5t36.5 -7.5h138q46 0 46 -40q0 -39 -46 -39h-35q9 -18 14.5 -38t5.5 -42q0 -36 -13 -67t-38 -53t-63 -34.5t-87 -12.5q-55 0 -95 15q-13 -8 -20 -19t-7 -22t7 -19t24 -14.5t47 -10.5t75 -6q46 -2 84.5 -9t66.5 -21.5
t43.5 -38t15.5 -58.5q0 -37 -15.5 -68t-47 -54t-78.5 -36t-110 -13q-66 0 -109 12.5t-69 32.5t-36.5 45t-10.5 51q0 34 18.5 62.5t53.5 48.5q-25 14 -36 36t-11 43q0 29 15 52.5t39 43.5q-44 44 -44 114zM249 4q-43 3 -78 9q-24 -11 -39 -28.5t-15 -40.5q0 -12 6.5 -24
t20.5 -21.5t37.5 -15.5t57.5 -6q78 0 111 22.5t33 52.5q0 26 -30 36.5t-104 15.5zM151 331q0 -36 25.5 -58.5t73.5 -22.5t73.5 22.5t25.5 58.5q0 37 -25.5 60t-73.5 23t-73.5 -23t-25.5 -60zM254 548q-57 0 -92.5 23t-51.5 50q-9 16 -7 33t15 26q18 12 34 5.5t28 -21.5
q14 -17 30.5 -29t43.5 -12t43.5 12.5t31.5 29.5q12 15 28.5 20.5t33.5 -5.5q14 -9 14.5 -25.5t-8.5 -32.5q-8 -13 -20.5 -26.5t-30 -24t-40.5 -17t-52 -6.5z" />
    <glyph glyph-name="gdotaccent" unicode="&#x121;" horiz-adv-x="513" 
d="M50 331q0 75 50.5 122t149.5 47q22 0 41.5 -2.5t36.5 -7.5h138q46 0 46 -40q0 -39 -46 -39h-35q9 -18 14.5 -38t5.5 -42q0 -36 -13 -67t-38 -53t-63 -34.5t-87 -12.5q-55 0 -95 15q-13 -8 -20 -19t-7 -22t7 -19t24 -14.5t47 -10.5t75 -6q46 -2 84.5 -9t66.5 -21.5
t43.5 -38t15.5 -58.5q0 -37 -15.5 -68t-47 -54t-78.5 -36t-110 -13q-66 0 -109 12.5t-69 32.5t-36.5 45t-10.5 51q0 34 18.5 62.5t53.5 48.5q-25 14 -36 36t-11 43q0 29 15 52.5t39 43.5q-44 44 -44 114zM249 4q-43 3 -78 9q-24 -11 -39 -28.5t-15 -40.5q0 -12 6.5 -24
t20.5 -21.5t37.5 -15.5t57.5 -6q78 0 111 22.5t33 52.5q0 26 -30 36.5t-104 15.5zM151 331q0 -36 25.5 -58.5t73.5 -22.5t73.5 22.5t25.5 58.5q0 37 -25.5 60t-73.5 23t-73.5 -23t-25.5 -60zM187 619q0 29 18 45t48 16q29 0 47.5 -16t18.5 -45q0 -30 -18.5 -45.5
t-47.5 -15.5q-30 0 -48 15.5t-18 45.5z" />
    <glyph glyph-name="imacron" unicode="&#x12b;" horiz-adv-x="233" 
d="M60 432q0 23 14 40.5t42 17.5q29 0 43 -17.5t14 -40.5v-374q0 -24 -14 -41t-43 -17q-28 0 -42 17t-14 41v374zM3 568q-47 0 -47 40t47 40h229q25 0 36 -11t11 -29q0 -40 -47 -40h-229z" />
    <glyph glyph-name="iogonek" unicode="&#x12f;" horiz-adv-x="237" 
d="M152 -13q-8 -8 -18 -19.5t-19 -25.5t-15.5 -30t-6.5 -34t9 -29t30 -11q10 0 18.5 2.5t16.5 4.5q25 8 36 -11q8 -12 2.5 -28t-21.5 -27q-14 -9 -31.5 -14t-43.5 -5q-54 0 -88 27t-34 81q0 43 20 81t55 68v415q0 23 14 40.5t42 17.5q29 0 43 -17.5t14 -40.5v-386
q0 -23 -5.5 -34.5t-17.5 -24.5zM53 619q0 29 17.5 45t47.5 16q29 0 47.5 -16t18.5 -45q0 -30 -18.5 -45.5t-47.5 -15.5q-30 0 -47.5 15.5t-17.5 45.5z" />
    <glyph glyph-name="lacute" unicode="&#x13a;" horiz-adv-x="340" 
d="M60 632q0 23 14 40.5t42 17.5q29 0 43 -17.5t14 -40.5v-462q0 -42 13 -61t44 -19q14 0 29 4t24 8q19 8 36.5 3t24.5 -22q9 -23 -0.5 -41t-31.5 -30q-21 -12 -48 -17t-53 -5q-70 0 -110.5 38t-40.5 126v478zM153 741q-20 -9 -39.5 -9.5t-29.5 19.5q-10 19 -2.5 35.5
t33.5 28.5l143 67q20 9 39 8t28 -20q19 -39 -33 -65z" />
    <glyph glyph-name="nacute" unicode="&#x144;" horiz-adv-x="552" 
d="M60 432q0 23 14 40.5t42 17.5q29 0 43 -17.5t14 -40.5v-15q23 43 63 63t85 20q49 0 81.5 -14.5t52.5 -42.5t28.5 -67.5t8.5 -89.5v-228q0 -24 -14 -41t-43 -17q-28 0 -42 17t-14 41v230q0 50 -18.5 81t-66.5 31q-36 0 -59.5 -17.5t-37 -47t-18.5 -68t-6 -80.5v-129
q0 -24 -14 -41t-43 -17q-28 0 -42 17t-14 41v374zM287 560q-17 -12 -35.5 -13.5t-30.5 15.5q-11 15 -7 33t28 34l120 78q17 11 35.5 11.5t29.5 -16.5q10 -16 5 -32.5t-29 -33.5z" />
    <glyph glyph-name="ncaron" unicode="&#x148;" horiz-adv-x="552" 
d="M60 432q0 23 14 40.5t42 17.5q29 0 43 -17.5t14 -40.5v-15q23 43 63 63t85 20q49 0 81.5 -14.5t52.5 -42.5t28.5 -67.5t8.5 -89.5v-228q0 -24 -14 -41t-43 -17q-28 0 -42 17t-14 41v230q0 50 -18.5 81t-66.5 31q-36 0 -59.5 -17.5t-37 -47t-18.5 -68t-6 -80.5v-129
q0 -24 -14 -41t-43 -17q-28 0 -42 17t-14 41v374zM284 624l93 70q14 11 31 12t28 -13q9 -12 6 -27.5t-22 -29.5l-105 -78q-18 -14 -34 -13.5t-34 13.5l-108 78q-20 14 -22 30.5t7 28.5q11 15 28 15t31 -11z" />
    <glyph glyph-name="omacron" unicode="&#x14d;" horiz-adv-x="549" 
d="M35 245q0 54 15.5 101t46 81t75 53.5t102.5 19.5t103 -19.5t75.5 -54t46 -81t15.5 -100.5t-15.5 -101t-46 -81t-75.5 -53.5t-103 -19.5t-102.5 19.5t-75 53.5t-46 81t-15.5 101zM151 245q0 -34 8 -63t23.5 -50.5t38.5 -33.5t53 -12q31 0 54.5 12t39 33.5t23 50.5t7.5 63
t-7.5 63t-23 50.5t-39 33.5t-54.5 12t-54 -12t-38.5 -33.5t-23 -50.5t-7.5 -63zM160 568q-47 0 -47 40t47 40h229q25 0 36 -11t11 -29q0 -40 -47 -40h-229z" />
    <glyph glyph-name="obreve" unicode="&#x14f;" horiz-adv-x="549" 
d="M35 245q0 54 15.5 101t46 81t75 53.5t102.5 19.5t103 -19.5t75.5 -54t46 -81t15.5 -100.5t-15.5 -101t-46 -81t-75.5 -53.5t-103 -19.5t-102.5 19.5t-75 53.5t-46 81t-15.5 101zM151 245q0 -34 8 -63t23.5 -50.5t38.5 -33.5t53 -12q31 0 54.5 12t39 33.5t23 50.5t7.5 63
t-7.5 63t-23 50.5t-39 33.5t-54.5 12t-54 -12t-38.5 -33.5t-23 -50.5t-7.5 -63zM273 548q-57 0 -92.5 23t-51.5 50q-9 16 -7 33t15 26q18 12 34 5.5t28 -21.5q14 -17 30.5 -29t43.5 -12t43.5 12.5t31.5 29.5q12 15 28.5 20.5t33.5 -5.5q14 -9 14.5 -25.5t-8.5 -32.5
q-8 -13 -20.5 -26.5t-30 -24t-40.5 -17t-52 -6.5z" />
    <glyph glyph-name="ohungarumlaut" unicode="&#x151;" horiz-adv-x="549" 
d="M35 245q0 54 15.5 101t46 81t75 53.5t102.5 19.5t103 -19.5t75.5 -54t46 -81t15.5 -100.5t-15.5 -101t-46 -81t-75.5 -53.5t-103 -19.5t-102.5 19.5t-75 53.5t-46 81t-15.5 101zM151 245q0 -34 8 -63t23.5 -50.5t38.5 -33.5t53 -12q31 0 54.5 12t39 33.5t23 50.5t7.5 63
t-7.5 63t-23 50.5t-39 33.5t-54.5 12t-54 -12t-38.5 -33.5t-23 -50.5t-7.5 -63zM209 571q-16 -11 -33 -12.5t-29 13.5q-11 14 -7.5 30.5t26.5 30.5l112 75q17 11 34.5 12t28.5 -16q20 -31 -24 -61zM376 571q-16 -11 -33 -12.5t-29 13.5q-11 14 -7.5 30.5t26.5 30.5l112 75
q17 11 34.5 12t28.5 -16q20 -31 -24 -61z" />
    <glyph glyph-name="racute" unicode="&#x155;" horiz-adv-x="367" 
d="M60 432q0 23 14 40.5t42 17.5q29 0 43 -17t14 -37q16 29 44 46.5t61 17.5q31 0 51.5 -8.5t31 -22t12.5 -29t-4 -29.5q-17 -38 -63 -22q-11 4 -22.5 6.5t-24.5 2.5q-45 0 -65.5 -41.5t-20.5 -129.5v-169q0 -24 -14 -41t-43 -17q-28 0 -42 17t-14 41v374zM228 560
q-17 -12 -35.5 -13.5t-30.5 15.5q-11 15 -7 33t28 34l120 78q17 11 35.5 11.5t29.5 -16.5q10 -16 5 -32.5t-29 -33.5z" />
    <glyph glyph-name="rcaron" unicode="&#x159;" horiz-adv-x="367" 
d="M60 432q0 23 14 40.5t42 17.5q29 0 43 -17t14 -37q16 29 44 46.5t61 17.5q31 0 51.5 -8.5t31 -22t12.5 -29t-4 -29.5q-17 -38 -63 -22q-11 4 -22.5 6.5t-24.5 2.5q-45 0 -65.5 -41.5t-20.5 -129.5v-169q0 -24 -14 -41t-43 -17q-28 0 -42 17t-14 41v374zM216 624l93 70
q14 11 31 12t28 -13q9 -12 6 -27.5t-22 -29.5l-105 -78q-18 -14 -34 -13.5t-34 13.5l-108 78q-20 14 -22 30.5t7 28.5q11 15 28 15t31 -11z" />
    <glyph glyph-name="sacute" unicode="&#x15b;" horiz-adv-x="433" 
d="M219 500q44 0 81 -9.5t62 -23.5q24 -14 30 -31.5t-2 -34.5q-16 -34 -63 -19q-21 8 -48.5 17.5t-55.5 9.5q-35 0 -51 -12t-16 -33q0 -23 18.5 -36.5t46.5 -24t61 -21t61 -27.5t46.5 -44t18.5 -69q0 -72 -48 -112t-150 -40q-38 0 -82 9t-74 29q-42 30 -23 69q11 23 32 22
t41 -10q29 -13 58.5 -20.5t57.5 -7.5q74 0 74 51q0 24 -18.5 37.5t-46.5 24.5t-61 21.5t-61 28t-46.5 45t-18.5 71.5q0 70 49 105t128 35zM223 560q-17 -12 -35.5 -13.5t-30.5 15.5q-11 15 -7 33t28 34l120 78q17 11 35.5 11.5t29.5 -16.5q10 -16 5 -32.5t-29 -33.5z" />
    <glyph glyph-name="scircumflex" unicode="&#x15d;" horiz-adv-x="433" 
d="M219 500q44 0 81 -9.5t62 -23.5q24 -14 30 -31.5t-2 -34.5q-16 -34 -63 -19q-21 8 -48.5 17.5t-55.5 9.5q-35 0 -51 -12t-16 -33q0 -23 18.5 -36.5t46.5 -24t61 -21t61 -27.5t46.5 -44t18.5 -69q0 -72 -48 -112t-150 -40q-38 0 -82 9t-74 29q-42 30 -23 69q11 23 32 22
t41 -10q29 -13 58.5 -20.5t57.5 -7.5q74 0 74 51q0 24 -18.5 37.5t-46.5 24.5t-61 21.5t-61 28t-46.5 45t-18.5 71.5q0 70 49 105t128 35zM223 632l-92 -71q-14 -11 -31 -12.5t-28 13.5q-8 12 -5.5 28t21.5 30l105 77q18 14 34 13.5t34 -13.5l110 -79q20 -14 20.5 -31
t-8.5 -28q-11 -14 -27.5 -13.5t-30.5 11.5z" />
    <glyph glyph-name="umacron" unicode="&#x16b;" horiz-adv-x="552" 
d="M492 58q0 -23 -14 -40.5t-42 -17.5q-29 0 -43 17.5t-14 40.5v15q-23 -43 -63 -63t-85 -20q-49 0 -81.5 14.5t-52.5 42.5t-28.5 67.5t-8.5 89.5v228q0 24 14 41t43 17q28 0 42 -17t14 -41v-230q0 -50 18.5 -81t66.5 -31q36 0 59.5 17.5t37 47t18.5 68t6 80.5v129
q0 24 14 41t43 17q28 0 42 -17t14 -41v-374zM162 568q-47 0 -47 40t47 40h229q25 0 36 -11t11 -29q0 -40 -47 -40h-229z" />
    <glyph glyph-name="ubreve" unicode="&#x16d;" horiz-adv-x="552" 
d="M492 58q0 -23 -14 -40.5t-42 -17.5q-29 0 -43 17.5t-14 40.5v15q-23 -43 -63 -63t-85 -20q-49 0 -81.5 14.5t-52.5 42.5t-28.5 67.5t-8.5 89.5v228q0 24 14 41t43 17q28 0 42 -17t14 -41v-230q0 -50 18.5 -81t66.5 -31q36 0 59.5 17.5t37 47t18.5 68t6 80.5v129
q0 24 14 41t43 17q28 0 42 -17t14 -41v-374zM276 548q-57 0 -92.5 23t-51.5 50q-9 16 -7 33t15 26q18 12 34 5.5t28 -21.5q14 -17 30.5 -29t43.5 -12t43.5 12.5t31.5 29.5q12 15 28.5 20.5t33.5 -5.5q14 -9 14.5 -25.5t-8.5 -32.5q-8 -13 -20.5 -26.5t-30 -24t-40.5 -17
t-52 -6.5z" />
    <glyph glyph-name="uring" unicode="&#x16f;" horiz-adv-x="552" 
d="M492 58q0 -23 -14 -40.5t-42 -17.5q-29 0 -43 17.5t-14 40.5v15q-23 -43 -63 -63t-85 -20q-49 0 -81.5 14.5t-52.5 42.5t-28.5 67.5t-8.5 89.5v228q0 24 14 41t43 17q28 0 42 -17t14 -41v-230q0 -50 18.5 -81t66.5 -31q36 0 59.5 17.5t37 47t18.5 68t6 80.5v129
q0 24 14 41t43 17q28 0 42 -17t14 -41v-374zM277 729q51 0 80 -26t29 -71t-29 -71t-80 -26q-50 0 -79.5 26t-29.5 71t29 71t80 26zM230 632q0 -20 13.5 -32.5t33.5 -12.5t33.5 12.5t13.5 32.5t-13.5 32.5t-33.5 12.5t-33.5 -12.5t-13.5 -32.5z" />
    <glyph glyph-name="uhungarumlaut" unicode="&#x171;" horiz-adv-x="552" 
d="M492 58q0 -23 -14 -40.5t-42 -17.5q-29 0 -43 17.5t-14 40.5v15q-23 -43 -63 -63t-85 -20q-49 0 -81.5 14.5t-52.5 42.5t-28.5 67.5t-8.5 89.5v228q0 24 14 41t43 17q28 0 42 -17t14 -41v-230q0 -50 18.5 -81t66.5 -31q36 0 59.5 17.5t37 47t18.5 68t6 80.5v129
q0 24 14 41t43 17q28 0 42 -17t14 -41v-374zM208 571q-16 -11 -33 -12.5t-29 13.5q-11 14 -7.5 30.5t26.5 30.5l112 75q17 11 34.5 12t28.5 -16q20 -31 -24 -61zM375 571q-16 -11 -33 -12.5t-29 13.5q-11 14 -7.5 30.5t26.5 30.5l112 75q17 11 34.5 12t28.5 -16
q20 -31 -24 -61z" />
    <glyph glyph-name="uogonek" unicode="&#x173;" horiz-adv-x="552" 
d="M492 46q0 -23 -5.5 -34.5t-17.5 -24.5q-8 -8 -18 -19.5t-19 -25.5t-15.5 -30t-6.5 -34t9 -29t30 -11q10 0 18.5 2.5t16.5 4.5q25 8 36 -11q8 -12 2.5 -28t-21.5 -27q-14 -9 -31.5 -14t-43.5 -5q-54 0 -88 27t-34 81q0 43 20 81t55 68v56q-23 -43 -64 -63t-86 -20
q-49 0 -81.5 14.5t-52 42.5t-27.5 67.5t-8 89.5v228q0 24 14 41t43 17q28 0 42 -17t14 -41v-230q0 -50 17.5 -81t65.5 -31q36 0 59.5 17.5t37.5 47t19.5 68t6.5 80.5v129q0 24 14 41t43 17q28 0 42 -17t14 -41v-386z" />
    <glyph glyph-name="zacute" unicode="&#x17a;" horiz-adv-x="453" 
d="M365 490q23 0 37 -9t18.5 -23t1 -30t-15.5 -31l-242 -301h213q53 0 53 -48q0 -23 -13.5 -35.5t-39.5 -12.5h-296q-21 0 -34 9t-18 22.5t-1.5 29.5t14.5 31l246 302h-197q-26 0 -39.5 12.5t-13.5 35.5q0 48 53 48h274zM233 560q-17 -12 -35.5 -13.5t-30.5 15.5
q-11 15 -7 33t28 34l120 78q17 11 35.5 11.5t29.5 -16.5q10 -16 5 -32.5t-29 -33.5z" />
    <glyph glyph-name="zdotaccent" unicode="&#x17c;" horiz-adv-x="453" 
d="M365 490q23 0 37 -9t18.5 -23t1 -30t-15.5 -31l-242 -301h213q53 0 53 -48q0 -23 -13.5 -35.5t-39.5 -12.5h-296q-21 0 -34 9t-18 22.5t-1.5 29.5t14.5 31l246 302h-197q-26 0 -39.5 12.5t-13.5 35.5q0 48 53 48h274zM163 619q0 29 18 45t48 16q29 0 47.5 -16t18.5 -45
q0 -30 -18.5 -45.5t-47.5 -15.5q-30 0 -48 15.5t-18 45.5z" />
    <glyph glyph-name="zcaron" unicode="&#x17e;" horiz-adv-x="453" 
d="M365 490q23 0 37 -9t18.5 -23t1 -30t-15.5 -31l-242 -301h213q53 0 53 -48q0 -23 -13.5 -35.5t-39.5 -12.5h-296q-21 0 -34 9t-18 22.5t-1.5 29.5t14.5 31l246 302h-197q-26 0 -39.5 12.5t-13.5 35.5q0 48 53 48h274zM240 624l93 70q14 11 31 12t28 -13q9 -12 6 -27.5
t-22 -29.5l-105 -78q-18 -14 -34 -13.5t-34 13.5l-108 78q-20 14 -22 30.5t7 28.5q11 15 28 15t31 -11z" />
    <glyph glyph-name="uni01D0" unicode="&#x1d0;" horiz-adv-x="237" 
d="M62 432q0 23 14 40.5t42 17.5q29 0 43 -17.5t14 -40.5v-374q0 -24 -14 -41t-43 -17q-28 0 -42 17t-14 41v374zM124 624l93 70q14 11 31 12t28 -13q9 -12 6 -27.5t-22 -29.5l-105 -78q-18 -14 -34 -13.5t-34 13.5l-108 78q-20 14 -22 30.5t7 28.5q11 15 28 15t31 -11z" />
    <glyph glyph-name="gcaron" unicode="&#x1e7;" horiz-adv-x="513" 
d="M50 331q0 75 50.5 122t149.5 47q22 0 41.5 -2.5t36.5 -7.5h138q46 0 46 -40q0 -39 -46 -39h-35q9 -18 14.5 -38t5.5 -42q0 -36 -13 -67t-38 -53t-63 -34.5t-87 -12.5q-55 0 -95 15q-13 -8 -20 -19t-7 -22t7 -19t24 -14.5t47 -10.5t75 -6q46 -2 84.5 -9t66.5 -21.5
t43.5 -38t15.5 -58.5q0 -37 -15.5 -68t-47 -54t-78.5 -36t-110 -13q-66 0 -109 12.5t-69 32.5t-36.5 45t-10.5 51q0 34 18.5 62.5t53.5 48.5q-25 14 -36 36t-11 43q0 29 15 52.5t39 43.5q-44 44 -44 114zM249 4q-43 3 -78 9q-24 -11 -39 -28.5t-15 -40.5q0 -12 6.5 -24
t20.5 -21.5t37.5 -15.5t57.5 -6q78 0 111 22.5t33 52.5q0 26 -30 36.5t-104 15.5zM151 331q0 -36 25.5 -58.5t73.5 -22.5t73.5 22.5t25.5 58.5q0 37 -25.5 60t-73.5 23t-73.5 -23t-25.5 -60zM260 624l93 70q14 11 31 12t28 -13q9 -12 6 -27.5t-22 -29.5l-105 -78
q-18 -14 -34 -13.5t-34 13.5l-108 78q-20 14 -22 30.5t7 28.5q11 15 28 15t31 -11z" />
    <glyph glyph-name="afii10100" unicode="&#x453;" horiz-adv-x="390" 
d="M340 490q27 0 40.5 -14t13.5 -37t-13.5 -36t-40.5 -13h-167v-332q0 -24 -14 -41t-43 -17q-28 0 -42 17t-14 41v374q0 23 14.5 40.5t41.5 17.5h224zM224 560q-17 -12 -35.5 -13.5t-30.5 15.5q-11 15 -7 33t28 34l120 78q17 11 35.5 11.5t29.5 -16.5q10 -16 5 -32.5
t-29 -33.5z" />
    <glyph glyph-name="afii10109" unicode="&#x45c;" horiz-adv-x="463" 
d="M60 432q0 23 13.5 40.5t41.5 17.5q29 0 42.5 -17.5t13.5 -40.5v-164l170 193q23 26 44.5 28.5t39.5 -14.5q15 -15 13 -36t-21 -41l-142 -151l159 -149q19 -18 21.5 -40.5t-12.5 -38.5q-20 -22 -43 -18t-44 26l-185 188v-157q0 -24 -13.5 -41t-42.5 -17q-28 0 -41.5 17
t-13.5 41v374zM254 560q-17 -12 -35.5 -13.5t-30.5 15.5q-11 15 -7 33t28 34l120 78q17 11 35.5 11.5t29.5 -16.5q10 -16 5 -32.5t-29 -33.5z" />
    <glyph glyph-name="afii10110" unicode="&#x45e;" horiz-adv-x="465" 
d="M21 401q-11 24 -6 48.5t32 35.5q29 11 48.5 -1.5t30.5 -39.5l117 -310l103 306q10 31 28.5 43.5t45.5 2.5q27 -9 28.5 -32t-6.5 -46l-156 -413q-22 -59 -42.5 -98.5t-42.5 -63t-47.5 -33.5t-57.5 -10q-17 0 -40 4t-41 14q-23 13 -31.5 31.5t0.5 38.5t25 22.5t34 -2.5
l25 -8t29 -4q35 0 55.5 33t38.5 81zM236 548q-57 0 -92.5 23t-51.5 50q-9 16 -7 33t15 26q18 12 34 5.5t28 -21.5q14 -17 30.5 -29t43.5 -12t43.5 12.5t31.5 29.5q12 15 28.5 20.5t33.5 -5.5q14 -9 14.5 -25.5t-8.5 -32.5q-8 -13 -20.5 -26.5t-30 -24t-40.5 -17t-52 -6.5z
" />
    <glyph glyph-name="Delta" unicode="&#x2206;" horiz-adv-x="607" 
d="M590 92q7 -16 7 -32.5t-6 -29.5t-19 -21.5t-32 -8.5h-471q-42 0 -53.5 27t3.5 64l225 561q19 48 61 48q23 0 36.5 -12t21.5 -31zM132 103h335l-167 430z" />
    <glyph glyph-name="summation" unicode="&#x2211;" horiz-adv-x="543" 
d="M268 244l-239 347q-11 15 -13 32.5t3.5 32.5t19.5 24.5t36 9.5h395q23 0 40.5 -12t17.5 -42t-17.5 -42t-40.5 -12h-298l202 -288q33 -48 0 -95l-205 -291h301q23 0 40.5 -12t17.5 -42t-17.5 -42t-40.5 -12h-396q-27 0 -40.5 10.5t-17.5 25.5t0.5 31.5t12.5 28.5z" />
    <glyph glyph-name="Omega" unicode="&#x2126;" horiz-adv-x="743" 
d="M371 593q-48 0 -87.5 -14t-67.5 -41t-43.5 -66t-15.5 -90q0 -44 10.5 -75.5t27 -53.5t38 -36.5t44.5 -24.5q26 -11 32.5 -24t6.5 -35v-72q0 -23 -12.5 -42t-40.5 -19h-171q-26 0 -41.5 12t-15.5 36q0 25 15.5 37t41.5 12h124v24q-37 9 -70.5 30t-59 54.5t-40.5 78.5
t-15 101q0 70 23.5 128t67.5 99.5t107 64.5t142 23t142 -23t107.5 -64.5t68 -99.5t23.5 -128q0 -56 -15.5 -101t-41 -78t-59 -54.5t-69.5 -30.5v-24h123q27 0 42.5 -12t15.5 -37q0 -24 -15.5 -36t-42.5 -12h-171q-28 0 -40 19t-12 42v72q0 22 6.5 35t32.5 24
q22 10 43.5 24.5t38.5 36.5t27.5 53.5t10.5 75.5q0 51 -15.5 90t-44 66t-68 41t-87.5 14z" />
    <glyph glyph-name="afii61352" unicode="&#x2116;" horiz-adv-x="1079" 
d="M968 294q54 0 54 -48q0 -23 -13.5 -35.5t-40.5 -12.5h-204q-26 0 -39.5 12.5t-13.5 35.5q0 48 53 48h204zM705 509q0 88 42 139.5t120 51.5t120 -51.5t42 -139.5t-42 -138.5t-120 -50.5t-120 50.5t-42 138.5zM931 509q0 53 -16 80.5t-48 27.5q-34 0 -49 -27.5t-15 -80.5
q0 -106 64 -106t64 106zM520 628q0 25 11.5 43.5t42.5 18.5q32 0 43.5 -18.5t11.5 -43.5v-567q0 -27 -15.5 -44t-41.5 -17q-18 0 -31 9t-23 21l-334 443v-412q0 -25 -12 -43t-43 -18t-42.5 18t-11.5 43v566q0 24 12 43.5t44 19.5q20 0 34.5 -9.5t24.5 -23.5l330 -444v415z
" />
    <glyph glyph-name="quotesingle" unicode="'" horiz-adv-x="204" 
d="M55 649q0 21 11.5 36t35.5 15t35.5 -15t11.5 -36v-135q0 -21 -11.5 -35.5t-35.5 -14.5t-35.5 14.5t-11.5 35.5v135z" />
    <glyph glyph-name="quotedbl" unicode="&#x22;" horiz-adv-x="338" 
d="M55 649q0 21 11.5 36t35.5 15t35.5 -15t11.5 -36v-135q0 -21 -11.5 -35.5t-35.5 -14.5t-35.5 14.5t-11.5 35.5v135zM188 649q0 21 12 36t36 15t35.5 -15t11.5 -36v-135q0 -21 -11.5 -35.5t-35.5 -14.5t-36 14.5t-12 35.5v135z" />
    <glyph glyph-name="uni04EF" unicode="&#x4ef;" horiz-adv-x="465" 
d="M21 401q-11 24 -6 48.5t32 35.5q29 11 48.5 -1.5t30.5 -39.5l117 -310l103 306q10 31 28.5 43.5t45.5 2.5q27 -9 28.5 -32t-6.5 -46l-156 -413q-22 -59 -42.5 -98.5t-42.5 -63t-47.5 -33.5t-57.5 -10q-17 0 -40 4t-41 14q-23 13 -31.5 31.5t0.5 38.5t25 22.5t34 -2.5
l25 -8t29 -4q35 0 55.5 33t38.5 81zM119 568q-47 0 -47 40t47 40h229q25 0 36 -11t11 -29q0 -40 -47 -40h-229z" />
    <glyph glyph-name="uni04E7" unicode="&#x4e7;" horiz-adv-x="549" 
d="M35 245q0 54 15.5 101t46 81t75 53.5t102.5 19.5t103 -19.5t75.5 -54t46 -81t15.5 -100.5t-15.5 -101t-46 -81t-75.5 -53.5t-103 -19.5t-102.5 19.5t-75 53.5t-46 81t-15.5 101zM151 245q0 -34 8 -63t23.5 -50.5t38.5 -33.5t53 -12q31 0 54.5 12t39 33.5t23 50.5t7.5 63
t-7.5 63t-23 50.5t-39 33.5t-54.5 12t-54 -12t-38.5 -33.5t-23 -50.5t-7.5 -63zM116 618q0 27 16.5 44t46.5 17q29 0 46 -17t17 -44q0 -29 -17 -45t-46 -16q-30 0 -46.5 16t-16.5 45zM307 618q0 27 16 44t46 17q29 0 46 -17t17 -44q0 -29 -17 -45t-46 -16q-30 0 -46 16
t-16 45z" />
    <glyph glyph-name="uni04E5" unicode="&#x4e5;" horiz-adv-x="554" 
d="M381 311l-216 -283q-9 -12 -21.5 -20t-29.5 -8q-28 0 -41 16.5t-13 41.5v374q0 24 14.5 41t42.5 17t42 -17t14 -41v-255l212 280q11 15 23.5 24t31.5 9q29 0 41.5 -17t12.5 -41v-374q0 -25 -14 -41.5t-43 -16.5q-28 0 -42 16.5t-14 41.5v253zM120 618q0 27 16.5 44
t46.5 17q29 0 46 -17t17 -44q0 -29 -17 -45t-46 -16q-30 0 -46.5 16t-16.5 45zM311 618q0 27 16 44t46 17q29 0 46 -17t17 -44q0 -29 -17 -45t-46 -16q-30 0 -46 16t-16 45z" />
    <glyph glyph-name="uni04E3" unicode="&#x4e3;" horiz-adv-x="554" 
d="M381 311l-216 -283q-9 -12 -21.5 -20t-29.5 -8q-28 0 -41 16.5t-13 41.5v374q0 24 14.5 41t42.5 17t42 -17t14 -41v-255l212 280q11 15 23.5 24t31.5 9q29 0 41.5 -17t12.5 -41v-374q0 -25 -14 -41.5t-43 -16.5q-28 0 -42 16.5t-14 41.5v253zM163 568q-47 0 -47 40t47 40
h229q25 0 36 -11t11 -29q0 -40 -47 -40h-229z" />
    <glyph glyph-name="uni04DF" unicode="&#x4df;" horiz-adv-x="451" 
d="M211 404q-24 0 -47.5 -6t-49.5 -16q-49 -18 -66 15q-8 19 -1.5 36.5t26.5 29.5q33 20 73.5 28.5t78.5 8.5q44 0 77 -10t54.5 -28t32 -42t10.5 -52q0 -38 -21.5 -69.5t-58.5 -42.5q41 -9 66.5 -38t25.5 -74q0 -69 -48 -111.5t-145 -42.5q-41 0 -85.5 7.5t-73.5 24.5
q-40 25 -24 65q14 35 61 20q25 -8 53.5 -14.5t57.5 -6.5q52 0 71 19.5t19 43.5q0 33 -25.5 47.5t-73.5 14.5h-40q-26 0 -37 9t-11 29q0 21 12 30t36 9h36q42 0 66.5 14.5t24.5 46.5q0 23 -16.5 39t-57.5 16zM62 618q0 27 16.5 44t46.5 17q29 0 46 -17t17 -44q0 -29 -17 -45
t-46 -16q-30 0 -46.5 16t-16.5 45zM253 618q0 27 16 44t46 17q29 0 46 -17t17 -44q0 -29 -17 -45t-46 -16q-30 0 -46 16t-16 45z" />
    <glyph glyph-name="uni04DD" unicode="&#x4dd;" horiz-adv-x="643" 
d="M273 218l-169 -191q-20 -23 -43 -26.5t-43 18.5q-14 16 -10.5 37.5t22.5 41.5l145 150l-134 151q-18 21 -18.5 41t14.5 35q17 17 39 14t42 -29l155 -192v164q0 23 10.5 40.5t38.5 17.5t38.5 -17.5t10.5 -40.5v-165l155 192q21 26 42.5 29t37.5 -14q31 -31 -7 -75
l-129 -148l145 -155q18 -19 21 -40t-11 -38q-17 -20 -40 -18t-43 25l-171 193v-160q0 -24 -10.5 -41t-38.5 -17t-38.5 17t-10.5 41v160zM166 618q0 27 16.5 44t46.5 17q29 0 46 -17t17 -44q0 -29 -17 -45t-46 -16q-30 0 -46.5 16t-16.5 45zM357 618q0 27 16 44t46 17
q29 0 46 -17t17 -44q0 -29 -17 -45t-46 -16q-30 0 -46 16t-16 45z" />
    <glyph glyph-name="uni04F9" unicode="&#x4f9;" horiz-adv-x="653" 
d="M226 88q95 0 95 79q0 38 -19.5 57t-67.5 19q-19 0 -34 -1.5t-27 -3.5v-147q24 -3 53 -3zM60 69v364q0 28 16.5 42.5t39.5 14.5q24 0 40.5 -15t16.5 -43v-108q14 2 35 4t41 2q98 0 142 -44t44 -120q0 -50 -19 -83t-51 -52.5t-73 -27.5t-85 -8q-23 0 -52.5 2t-47.5 7
q-27 7 -37 23t-10 42zM480 58q0 -24 14 -41t42 -17q29 0 43 17t14 41v374q0 23 -14 40.5t-43 17.5q-28 0 -42 -17.5t-14 -40.5v-374zM168 618q0 27 16.5 44t46.5 17q29 0 46 -17t17 -44q0 -29 -17 -45t-46 -16q-30 0 -46.5 16t-16.5 45zM359 618q0 27 16 44t46 17
q29 0 46 -17t17 -44q0 -29 -17 -45t-46 -16q-30 0 -46 16t-16 45z" />
    <glyph glyph-name="uni04F5" unicode="&#x4f5;" horiz-adv-x="478" 
d="M305 182q-21 -13 -52 -22t-60 -9q-40 0 -71 9t-52.5 31.5t-33 59.5t-11.5 94v87q0 23 14 40.5t42 17.5q29 0 43 -17.5t14 -40.5v-70q0 -26 3 -47.5t11 -36.5t23 -23t38 -8q52 0 92 28v157q0 23 14 40.5t42 17.5q29 0 43 -17.5t14 -40.5v-374q0 -24 -14 -41t-43 -17
q-28 0 -42 17t-14 41v124zM64 618q0 27 16.5 44t46.5 17q29 0 46 -17t17 -44q0 -29 -17 -45t-46 -16q-30 0 -46.5 16t-16.5 45zM255 618q0 27 16 44t46 17q29 0 46 -17t17 -44q0 -29 -17 -45t-46 -16q-30 0 -46 16t-16 45z" />
    <glyph glyph-name="uni04A4" unicode="&#x4a4;" horiz-adv-x="928" 
d="M511 299h-316v-238q0 -26 -15.5 -43.5t-44.5 -17.5q-30 0 -45 17.5t-15 43.5v567q0 26 15 44t45 18q29 0 44.5 -18t15.5 -44v-222h316v222q0 26 15 44t45 18h295q26 0 41.5 -14.5t15.5 -39.5q0 -24 -15.5 -38.5t-41.5 -14.5h-235v-522q0 -26 -15.5 -43.5t-44.5 -17.5
q-30 0 -45 17.5t-15 43.5v238z" />
    <glyph glyph-name="uni04A5" unicode="&#x4a5;" horiz-adv-x="703" 
d="M653 490q27 0 40.5 -14t13.5 -37t-13.5 -36t-40.5 -13h-165v-332q0 -24 -14 -41t-43 -17q-28 0 -42 17t-14 41v145h-202v-145q0 -24 -14 -41t-43 -17q-28 0 -42 17t-14 41v374q0 23 14 40.5t42 17.5q29 0 43 -17.5t14 -40.5v-129h202v129q0 23 14.5 40.5t41.5 17.5h222z
" />
    <glyph glyph-name="trademark" unicode="&#x2122;" horiz-adv-x="850" 
d="M392 642q0 58 49 58q21 0 34.5 -10.5t22.5 -23.5l105 -144l104 144q8 11 21.5 22.5t36.5 11.5q25 0 37 -16.5t12 -39.5v-277q0 -23 -13.5 -40t-41.5 -17t-41.5 17t-13.5 40v165l-56 -80q-14 -19 -26 -25t-26 -6t-26 6t-26 24l-51 72v-156q0 -23 -11.5 -40t-39.5 -17
q-26 0 -38 17t-12 40v275zM319 597q23 0 37 12t14 34t-14 34.5t-37 12.5h-262q-23 0 -36.5 -12.5t-13.5 -34.5t13.5 -34t36.5 -12h76v-230q0 -23 13.5 -40t41.5 -17t41.5 17t13.5 40v230h76z" />
    <glyph glyph-name="scaron" unicode="&#x161;" horiz-adv-x="433" 
d="M219 500q44 0 81 -9.5t62 -23.5q24 -14 30 -31.5t-2 -34.5q-16 -34 -63 -19q-21 8 -48.5 17.5t-55.5 9.5q-35 0 -51 -12t-16 -33q0 -23 18.5 -36.5t46.5 -24t61 -21t61 -27.5t46.5 -44t18.5 -69q0 -72 -48 -112t-150 -40q-38 0 -82 9t-74 29q-42 30 -23 69q11 23 32 22
t41 -10q29 -13 58.5 -20.5t57.5 -7.5q74 0 74 51q0 24 -18.5 37.5t-46.5 24.5t-61 21.5t-61 28t-46.5 45t-18.5 71.5q0 70 49 105t128 35zM236 624l93 70q14 11 31 12t28 -13q9 -12 6 -27.5t-22 -29.5l-105 -78q-18 -14 -34 -13.5t-34 13.5l-108 78q-20 14 -22 30.5t7 28.5
q11 15 28 15t31 -11z" />
    <glyph glyph-name="uni04A2" unicode="&#x4a2;" horiz-adv-x="757" 
d="M513 299h-318v-238q0 -26 -15.5 -43.5t-44.5 -17.5q-30 0 -45 17.5t-15 43.5v567q0 26 15 44t45 18q29 0 44.5 -18t15.5 -44v-222h318v222q0 26 15 44t45 18q29 0 44.5 -18t15.5 -44v-521h35q28 0 41 -17.5t13 -41.5v-133q0 -26 -13.5 -43.5t-42.5 -17.5t-43 17.5
t-14 43.5v85h-36q-30 0 -45 17.5t-15 43.5v238z" />
    <glyph glyph-name="uni04A3" unicode="&#x4a3;" horiz-adv-x="582" 
d="M377 203h-204v-145q0 -24 -14 -41t-43 -17q-28 0 -42 17t-14 41v374q0 23 14 40.5t42 17.5q29 0 43 -17.5t14 -40.5v-129h204v129q0 23 14 40.5t42 17.5q29 0 43 -17.5t14 -40.5v-332h19q25 0 36.5 -15.5t11.5 -36.5v-110q0 -23 -11 -38.5t-37 -15.5t-37.5 15.5
t-11.5 38.5v62h-27q-28 0 -42 17t-14 41v145z" />
    <glyph glyph-name="asterisk" unicode="*" horiz-adv-x="365" 
d="M300 531q14 -8 19.5 -22.5t-3.5 -33.5q-6 -11 -13.5 -16.5t-15.5 -6.5t-16 1.5t-14 7.5l-34 25l2 -41q0 -17 -9.5 -29.5t-32.5 -12.5t-33.5 12.5t-9.5 29.5l2 41l-34 -25q-14 -10 -31.5 -8.5t-28.5 22.5q-10 19 -3.5 33.5t20.5 22.5l36 20l-36 21q-14 8 -20.5 22.5
t3.5 33.5q11 21 28.5 22t31.5 -9l34 -24l-2 41q0 17 10 29.5t33 12.5t33 -12.5t9 -29.5l-2 -41l34 24q13 9 30 8.5t29 -21.5q11 -19 4.5 -33.5t-20.5 -22.5l-37 -21z" />
    <glyph glyph-name="uni04D1" unicode="&#x4d1;" horiz-adv-x="503" 
d="M335 76q-20 -35 -58.5 -60.5t-101.5 -25.5q-76 0 -118 40t-42 107q0 46 18 77t48 50.5t69 28t80 8.5q36 0 63.5 -2.5t41.5 -4.5v11q0 20 -3.5 38.5t-14.5 32.5t-31 22t-53 8q-17 0 -31.5 -2t-28 -5.5t-28 -8l-30.5 -9.5q-18 -5 -34.5 0t-22.5 23t1 33t24 26
q27 18 71 27.5t92 9.5q103 0 150 -49t47 -137v-256q0 -24 -12.5 -41t-41.5 -17q-28 0 -41 17t-13 41v18zM205 78q32 0 56 11.5t40.5 30t25 41.5t8.5 47v17q-20 3 -40.5 4t-48.5 1q-54 0 -87 -19.5t-33 -64.5q0 -30 20.5 -49t58.5 -19zM246 548q-57 0 -92.5 23t-51.5 50
q-9 16 -7 33t15 26q18 12 34 5.5t28 -21.5q14 -17 30.5 -29t43.5 -12t43.5 12.5t31.5 29.5q12 15 28.5 20.5t33.5 -5.5q14 -9 14.5 -25.5t-8.5 -32.5q-8 -13 -20.5 -26.5t-30 -24t-40.5 -17t-52 -6.5z" />
    <glyph glyph-name="uni04D7" unicode="&#x4d7;" horiz-adv-x="506" 
d="M147 204q2 -57 37 -90t93 -33q32 0 57.5 8t48.5 18q24 10 39 5t23 -19q8 -16 3.5 -33.5t-24.5 -30.5q-32 -22 -73.5 -30.5t-84.5 -8.5q-113 0 -172 66t-59 187q0 58 16 105.5t46.5 81t73.5 52t97 18.5q49 0 87 -14.5t64.5 -41t40 -63t13.5 -80.5q0 -11 -1.5 -25t-3.5 -22
q-7 -25 -21.5 -37.5t-44.5 -12.5h-255zM268 409q-54 0 -85 -32.5t-36 -93.5h221q1 8 1 13v12q0 43 -24.5 72t-76.5 29zM264 548q-57 0 -92.5 23t-51.5 50q-9 16 -7 33t15 26q18 12 34 5.5t28 -21.5q14 -17 30.5 -29t43.5 -12t43.5 12.5t31.5 29.5q12 15 28.5 20.5t33.5 -5.5
q14 -9 14.5 -25.5t-8.5 -32.5q-8 -13 -20.5 -26.5t-30 -24t-40.5 -17t-52 -6.5z" />
    <glyph glyph-name="uni04B6" unicode="&#x4b6;" horiz-adv-x="655" 
d="M411 628q0 26 15 44t45 18t45 -18t15 -44v-521h35q28 0 41 -17.5t13 -41.5v-133q0 -26 -13.5 -43.5t-42.5 -17.5t-43 17.5t-14 43.5v85h-36q-30 0 -45 17.5t-15 43.5v221q-33 -23 -76.5 -35.5t-83.5 -12.5q-50 0 -90 11t-68 38t-43 73t-15 117v155q0 25 15.5 43.5
t44.5 18.5q30 0 45 -18.5t15 -43.5v-149q0 -40 7 -67t21 -43.5t35 -23.5t50 -7q35 0 72 14t71 37v239z" />
    <glyph glyph-name="uni04B7" unicode="&#x4b7;" horiz-adv-x="510" 
d="M305 182q-21 -13 -52 -22t-60 -9q-38 0 -69 9.5t-53 32t-34 59.5t-12 93v87q0 23 14 40.5t42 17.5q29 0 43 -17.5t14 -40.5v-70q0 -26 3 -47.5t11 -36.5t23 -23t38 -8q52 0 92 28v157q0 23 14 40.5t42 17.5q29 0 43 -17.5t14 -40.5v-332h19q25 0 36.5 -15.5t11.5 -36.5
v-110q0 -23 -11 -38.5t-37 -15.5t-37.5 15.5t-11.5 38.5v62h-27q-28 0 -42 17t-14 41v124z" />
    <glyph glyph-name="uni04AF" unicode="&#x4af;" horiz-adv-x="466" 
d="M290 33v-175q0 -24 -14 -41t-43 -17q-28 0 -42 17t-14 41v174l-153 368q-5 12 -7 24.5t0.5 24.5t10 21.5t21.5 14.5q26 10 46.5 -1.5t30.5 -38.5l109 -298l111 296q22 62 74 42q27 -11 29.5 -33t-7.5 -44z" />
    <glyph glyph-name="uni04A0" unicode="&#x4a0;" horiz-adv-x="664" 
d="M168 583h-115q-26 0 -41.5 14.5t-15.5 38.5q0 25 15.5 39.5t41.5 14.5h175q29 0 44.5 -18t15.5 -44v-252l245 281q20 23 43 30.5t46 -12.5q21 -19 16.5 -44t-23.5 -45l-215 -230l230 -241q22 -23 27 -49.5t-15 -46.5q-24 -23 -49 -16.5t-48 30.5l-257 282v-254
q0 -26 -15.5 -43.5t-44.5 -17.5q-30 0 -45 17.5t-15 43.5v522z" />
    <glyph glyph-name="uni04A1" unicode="&#x4a1;" horiz-adv-x="521" 
d="M119 390h-70q-26 0 -39.5 13t-13.5 36t13.5 37t39.5 14h125q29 0 42.5 -17.5t13.5 -40.5v-164l171 193q23 26 44 28.5t39 -14.5q15 -15 13 -36t-21 -41l-142 -151l159 -149q19 -18 21.5 -40.5t-12.5 -38.5q-20 -22 -43 -18t-44 26l-185 188v-157q0 -24 -13.5 -41
t-42.5 -17q-28 0 -41.5 17t-13.5 41v332z" />
    <glyph glyph-name="currency" unicode="&#xa4;" horiz-adv-x="629" 
d="M96 351q0 75 33 128l-50 52q-20 20 -24 43.5t16 42.5q21 20 43.5 15t38.5 -24l50 -59q54 31 123 31t122 -30l50 58q16 19 38.5 24t43.5 -15q20 -19 16 -42.5t-24 -43.5l-51 -52q34 -53 34 -128q0 -38 -8.5 -70.5t-24.5 -58.5l50 -51q20 -20 24 -43.5t-16 -42.5
q-21 -20 -43.5 -15t-38.5 24l-49 57q-54 -30 -123 -30q-68 0 -124 31l-49 -58q-16 -19 -38.5 -24t-43.5 15q-20 19 -16 42.5t24 43.5l50 51q-16 26 -24.5 58.5t-8.5 70.5zM192 350q0 -64 37 -101t97 -37t96.5 37t36.5 101t-36.5 101.5t-96.5 37.5q-30 0 -54.5 -10.5t-42 -29
t-27.5 -44t-10 -55.5z" />
    <glyph glyph-name="afii10050" unicode="&#x490;" horiz-adv-x="489" 
d="M380 690v60q0 23 12 40t40 17t40 -17t12 -40v-113q0 -24 -15 -39t-44 -15h-230v-522q0 -26 -15.5 -43.5t-44.5 -17.5q-30 0 -45 17.5t-15 43.5v567q0 25 14.5 43.5t43.5 18.5h247z" />
    <glyph glyph-name="afii10098" unicode="&#x491;" horiz-adv-x="383" 
d="M60 431q0 24 15.5 41.5t43.5 17.5h173v51q0 22 11 37.5t37 15.5t36.5 -15.5t10.5 -37.5v-98q0 -24 -14 -38.5t-42 -14.5h-153v-331q0 -26 -15.5 -42.5t-43.5 -16.5t-43.5 16.5t-15.5 42.5v372z" />
    <glyph glyph-name="partialdiff" unicode="&#x2202;" horiz-adv-x="544" 
d="M238 86q38 0 66 19t47 49.5t29.5 70.5t14.5 82q-10 42 -40 64t-73 22q-35 0 -62 -14t-45 -38t-27.5 -56t-9.5 -68q0 -27 5.5 -51t17.5 -42t31 -28t46 -10zM332 574q-26 14 -58.5 23t-61.5 15q-56 12 -48 55q4 19 17.5 27t42.5 6q90 -5 154 -39q66 -35 103 -97t37 -143
q0 -76 -15 -152.5t-49.5 -138.5t-90.5 -101t-137 -39q-96 0 -148.5 57t-52.5 151q0 57 16 110t47.5 93.5t78.5 64.5t109 24q50 0 87.5 -18t57.5 -52q-2 59 -23.5 95t-65.5 59z" />
    <glyph glyph-name="eth" unicode="&#xf0;" horiz-adv-x="541" 
d="M357 641q81 -51 115 -131t34 -192q0 -72 -14 -132t-43 -103.5t-73 -68t-105 -24.5q-115 0 -175.5 67.5t-60.5 183.5q0 51 12.5 96.5t38 79t65 53t93.5 19.5q50 0 89 -16t67 -54q-6 49 -36.5 90.5t-73.5 62.5l-52 -46q-8 -8 -22.5 -12t-25.5 8q-11 11 -7.5 23.5t14.5 23.5
l32 27q-23 6 -42.5 9.5l-36.5 6.5q-49 10 -43 51q5 26 23.5 32.5t47.5 3.5q32 -3 63.5 -10t59.5 -20l42 37q9 8 22 11t24 -8t7 -24t-12 -21zM270 86q38 0 61.5 17t37 47t18.5 70.5t5 86.5q-17 39 -47 62.5t-74 23.5q-61 0 -90.5 -39.5t-29.5 -111.5q0 -69 31 -112.5
t88 -43.5z" />
    <glyph glyph-name="paragraph" unicode="&#xb6;" horiz-adv-x="456" 
d="M146 290q-31 2 -57 18t-44.5 42.5t-29 62t-10.5 77.5t13 78.5t36.5 63.5t56.5 42.5t73 15.5q31 0 43.5 -13.5t12.5 -41.5v-695q0 -21 -11.5 -35.5t-35.5 -14.5t-35.5 14.5t-11.5 35.5v350zM285 639q0 21 12 36t36 15t36 -15t12 -36v-699q0 -21 -12 -35.5t-36 -14.5
t-36 14.5t-12 35.5v699z" />
    <glyph glyph-name="AE" unicode="&#xc6;" horiz-adv-x="867" 
d="M395 175h-201l-86 -133q-7 -11 -17 -21.5t-22 -16t-26 -5t-28 11.5q-11 8 -15.5 19t-4 22.5t5 23.5t11.5 22l380 554q11 17 26.5 27.5t38.5 10.5h323q26 0 41.5 -14.5t15.5 -39.5q0 -24 -15.5 -38.5t-41.5 -14.5h-271v-175h215q27 0 42.5 -14t15.5 -39q0 -24 -15.5 -39
t-42.5 -15h-215v-194h281q26 0 41.5 -14.5t15.5 -39.5q0 -24 -15.5 -38.5t-41.5 -14.5h-331q-29 0 -46.5 18.5t-17.5 44.5v112zM250 267h145v223z" />
    <glyph glyph-name="uni04D4" unicode="&#x4d4;" horiz-adv-x="872" 
d="M400 175h-201l-86 -133q-7 -11 -17 -21.5t-22 -16t-26 -5t-28 11.5q-11 8 -15.5 19t-4 22.5t5 23.5t11.5 22l380 554q11 17 26.5 27.5t38.5 10.5h323q26 0 41.5 -14.5t15.5 -39.5q0 -24 -15.5 -38.5t-41.5 -14.5h-271v-175h215q27 0 42.5 -14t15.5 -39q0 -24 -15.5 -39
t-42.5 -15h-215v-194h281q26 0 41.5 -14.5t15.5 -39.5q0 -24 -15.5 -38.5t-41.5 -14.5h-331q-29 0 -46.5 18.5t-17.5 44.5v112zM255 267h145v223z" />
    <glyph glyph-name="minus" unicode="&#x2212;" 
d="M98 275q-24 0 -38.5 12t-14.5 36q0 23 14.5 35.5t38.5 12.5h323q24 0 38.5 -12.5t14.5 -35.5q0 -24 -14.5 -36t-38.5 -12h-323z" />
    <glyph glyph-name="equal" unicode="=" horiz-adv-x="515" 
d="M97 172q-24 0 -38.5 12t-14.5 36q0 23 14.5 35.5t38.5 12.5h323q24 0 38.5 -12.5t14.5 -35.5q0 -24 -14.5 -36t-38.5 -12h-323zM97 316q-24 0 -38.5 12t-14.5 36q0 23 14.5 35.5t38.5 12.5h323q24 0 38.5 -12.5t14.5 -35.5q0 -24 -14.5 -36t-38.5 -12h-323z" />
    <glyph glyph-name="divide" unicode="&#xf7;" horiz-adv-x="515" 
d="M188 495q0 29 17.5 48.5t51.5 19.5t52 -19.5t18 -48.5t-18 -47.5t-52 -18.5t-51.5 18.5t-17.5 47.5zM188 150q0 29 17.5 48.5t51.5 19.5t52 -19.5t18 -48.5t-18 -47.5t-52 -18.5t-51.5 18.5t-17.5 47.5zM98 275q-24 0 -38.5 12t-14.5 36q0 23 14.5 35.5t38.5 12.5h319
q24 0 38.5 -12.5t14.5 -35.5q0 -24 -14.5 -36t-38.5 -12h-319z" />
    <glyph glyph-name="plus" unicode="+" horiz-adv-x="515" 
d="M205 275h-107q-24 0 -38.5 12t-14.5 36q0 23 14.5 35.5t38.5 12.5h107v107q0 23 11.5 41t40.5 18t40.5 -18t11.5 -41v-107h108q24 0 38.5 -12.5t14.5 -35.5q0 -24 -14.5 -36t-38.5 -12h-108v-107q0 -23 -11.5 -40.5t-40.5 -17.5t-40.5 17.5t-11.5 40.5v107z" />
    <glyph glyph-name="dotmath" unicode="&#x22c5;" horiz-adv-x="239" 
d="M50 329q0 28 17.5 49t51.5 21t52 -21t18 -49q0 -29 -18 -49t-52 -20t-51.5 20t-17.5 49z" />
    <glyph glyph-name="uni2215" unicode="&#x2215;" horiz-adv-x="330" 
d="M346.999 720q7.99902 24 4.99902 46.5q-2.99902 22.5 -28.998 30.5q-25.998 8 -41.4971 -4.5t-23.499 -35.5l-278.982 -791q-8 -22 -3.5 -43.5t27.498 -29.5q24.999 -8 40.998 4.5t24.998 37.5z" />
    <glyph glyph-name="logicalnot" unicode="&#xac;" horiz-adv-x="515" 
d="M363 280h-265q-24 0 -38.5 12t-14.5 36q0 23 14.5 35.5t38.5 12.5h318q26 0 40 -14t14 -40v-113q0 -23 -12.5 -40.5t-41.5 -17.5t-41 17.5t-12 40.5v71z" />
    <glyph glyph-name="plusminus" unicode="&#xb1;" horiz-adv-x="515" 
d="M205 300h-107q-24 0 -38.5 12t-14.5 36q0 23 14.5 35.5t38.5 12.5h107v97q0 23 11.5 41t40.5 18t40.5 -18t11.5 -41v-97h108q24 0 38.5 -12.5t14.5 -35.5q0 -24 -14.5 -36t-38.5 -12h-108v-19q0 -23 -11.5 -40.5t-40.5 -17.5t-40.5 17.5t-11.5 40.5v19zM98 115
q-24 0 -38.5 12t-14.5 36q0 23 14.5 35.5t38.5 12.5h319q24 0 38.5 -12.5t14.5 -35.5q0 -24 -14.5 -36t-38.5 -12h-319z" />
    <glyph glyph-name="less" unicode="&#x3c;" horiz-adv-x="515" 
d="M327 536q9 7 20 12.5t22.5 7t22 -3t18.5 -16.5q15 -24 3 -43.5t-32 -34.5l-161 -120l172 -136q20 -17 24.5 -37t-9.5 -38q-14 -17 -36 -16.5t-43 17.5l-202 157q-26 20 -26.5 49t27.5 50z" />
    <glyph glyph-name="greater" unicode="&#x3e;" horiz-adv-x="515" 
d="M189.02 128.033q-8.99902 -7 -19.998 -12.5q-11 -5.49902 -22.499 -6.99902t-21.999 2.99902q-10.499 4.5 -18.498 16.5q-14.999 23.998 -3 43.4971t31.998 34.498l160.99 119.992l-171.99 135.992q-19.998 16.999 -24.498 36.9971q-4.5 19.999 9.49902 37.998
q14 16.999 35.998 16.499q21.999 -0.5 42.9971 -17.499l201.988 -156.99q25.998 -19.999 26.498 -48.9971t-27.498 -49.9971z" />
    <glyph glyph-name="lessequal" unicode="&#x2264;" horiz-adv-x="515" 
d="M388 113q20 -14 28 -36t-8 -43q-15 -20 -38 -17.5t-43 18.5l-201 157q-19 15 -25 36t10 41q17 21 38.5 18t39.5 -17zM327 620q9 7 20 12.5t22.5 7t22 -3t18.5 -16.5q15 -24 3 -43.5t-32 -34.5l-161 -120l172 -136q20 -17 24.5 -37t-9.5 -38q-14 -17 -36 -16.5t-43 17.5
l-202 157q-26 20 -26.5 49t27.5 50z" />
    <glyph glyph-name="greaterequal" unicode="&#x2265;" horiz-adv-x="515" 
d="M327 270q18 14 40 17.5t38 -18.5q14 -20 9 -40t-24 -35l-201 -159q-20 -16 -43 -18.5t-38 17.5q-16 21 -7.5 42.5t27.5 36.5zM190 214q-9 -7 -20 -12.5t-22.5 -7t-22 3t-18.5 16.5q-15 24 -3 43.5t32 34.5l161 120l-172 136q-20 17 -24.5 37t9.5 38q14 17 36 16.5
t43 -17.5l202 -157q26 -20 26.5 -49t-27.5 -50z" />
    <glyph glyph-name="notequal" unicode="&#x2260;" horiz-adv-x="515" 
d="M260 171l-35 -101q-20 -63 -65 -48q-20 7 -26.5 24t4.5 49l26 76h-66q-24 0 -38.5 12t-14.5 36q0 23 14.5 35.5t38.5 12.5h99l17 49h-116q-24 0 -38.5 12t-14.5 36q0 23 14.5 35.5t38.5 12.5h149l37 105q20 65 67 49q23 -8 26.5 -28.5t-6.5 -47.5l-27 -78h73
q24 0 38.5 -12.5t14.5 -35.5q0 -24 -14.5 -36t-38.5 -12h-107l-17 -49h124q24 0 38.5 -12.5t14.5 -35.5q0 -24 -14.5 -36t-38.5 -12h-157z" />
    <glyph glyph-name="multiply" unicode="&#xd7;" horiz-adv-x="515" 
d="M405 252q17 -17 20.5 -37.5t-14.5 -40.5t-40 -16.5t-39 19.5l-76 75l-76 -76q-17 -17 -36 -20t-36 14q-16 16 -15 35.5t18 36.5l76 77l-76 75q-17 17 -21.5 37.5t14.5 41.5q19 22 41 17t39 -21l76 -75l75 76q17 17 36 19.5t35 -13.5q17 -17 15 -36.5t-19 -36.5l-73 -76z
" />
    <glyph glyph-name="approxequal" unicode="&#x2248;" horiz-adv-x="495" 
d="M329 253q14 0 25 3.5t26 15.5q16 13 34 17.5t34 -11.5q14 -14 10.5 -35t-20.5 -38q-48 -48 -106 -48q-22 0 -44 6.5t-43 14.5t-41 14.5t-38 6.5q-14 0 -27 -4.5t-28 -15.5q-16 -12 -32.5 -16t-31.5 10q-14 13 -12 34t21 40q50 48 106 48q23 0 47 -6.5t46 -14.5l41 -14.5
t33 -6.5zM329 417q14 0 25 3.5t26 15.5q16 13 34 17.5t34 -11.5q14 -14 10.5 -35t-20.5 -38q-48 -48 -106 -48q-22 0 -44 6.5t-43 14.5t-41 14.5t-38 6.5q-14 0 -27 -4.5t-28 -15.5q-16 -12 -32.5 -16t-31.5 10q-14 13 -12 34t21 40q50 48 106 48q23 0 47 -6.5t46 -14.5
l41 -14.5t33 -6.5z" />
    <glyph glyph-name="numbersign" unicode="#" horiz-adv-x="634" 
d="M267 56l48 137h-115l-55 -158q-9 -26 -23 -38.5t-38 -4.5q-23 7 -25 26.5t5 37.5l48 137h-33q-21 0 -33.5 11t-12.5 31t12.5 30.5t33.5 10.5h63l46 131h-50q-21 0 -33.5 11t-12.5 31t12.5 30.5t33.5 10.5h80l61 173q8 22 22.5 31.5t35.5 2.5q22 -7 24.5 -25t-4.5 -36
l-52 -146h116l61 173q8 22 22.5 31.5t35.5 2.5q22 -7 24.5 -25t-4.5 -36l-52 -146h48q20 0 32.5 -10.5t12.5 -30.5t-12.5 -31t-32.5 -11h-77l-46 -131h63q20 0 32.5 -10.5t12.5 -30.5t-12.5 -31t-32.5 -11h-93l-55 -158q-9 -26 -23 -38.5t-38 -4.5q-23 7 -25 26.5t5 37.5z
M230 276h115l46 131h-115z" />
    <glyph glyph-name="uni04D3" unicode="&#x4d3;" horiz-adv-x="503" 
d="M335 76q-20 -35 -58.5 -60.5t-101.5 -25.5q-76 0 -118 40t-42 107q0 46 18 77t48 50.5t69 28t80 8.5q36 0 63.5 -2.5t41.5 -4.5v11q0 20 -3.5 38.5t-14.5 32.5t-31 22t-53 8q-17 0 -31.5 -2t-28 -5.5t-28 -8l-30.5 -9.5q-18 -5 -34.5 0t-22.5 23t1 33t24 26
q27 18 71 27.5t92 9.5q103 0 150 -49t47 -137v-256q0 -24 -12.5 -41t-41.5 -17q-28 0 -41 17t-13 41v18zM205 78q32 0 56 11.5t40.5 30t25 41.5t8.5 47v17q-20 3 -40.5 4t-48.5 1q-54 0 -87 -19.5t-33 -64.5q0 -30 20.5 -49t58.5 -19zM86 618q0 27 16.5 44t46.5 17
q29 0 46 -17t17 -44q0 -29 -17 -45t-46 -16q-30 0 -46.5 16t-16.5 45zM277 618q0 27 16 44t46 17q29 0 46 -17t17 -44q0 -29 -17 -45t-46 -16q-30 0 -46 16t-16 45z" />
    <glyph glyph-name="uni04EB" unicode="&#x4eb;" horiz-adv-x="549" 
d="M116 618q0 27 16.5 44t46.5 17q29 0 46 -17t17 -44q0 -29 -17 -45t-46 -16q-30 0 -46.5 16t-16.5 45zM307 618q0 27 16 44t46 17q29 0 46 -17t17 -44q0 -29 -17 -45t-46 -16q-30 0 -46 16t-16 45zM35 245q0 54 15.5 101t46 81t75 53.5t102.5 19.5t103 -19.5t75.5 -54
t46 -81t15.5 -100.5t-15.5 -101t-46 -81t-75.5 -53.5t-103 -19.5t-102.5 19.5t-75 53.5t-46 81t-15.5 101zM274 86q54 0 86 32.5t37 85.5h-245q5 -53 37 -85.5t85 -32.5zM274 404q-53 0 -84.5 -31.5t-37.5 -82.5h244q-5 51 -37 82.5t-85 31.5z" />
    <glyph glyph-name="kcommaaccent" unicode="&#x137;" horiz-adv-x="462" 
d="M203 -213q14 13 24.5 28.5t10.5 34.5q0 12 -8.5 20t-22.5 14q-37 17 -23 53q7 17 23.5 22.5t39.5 0.5q35 -8 55.5 -32t20.5 -61q0 -40 -19.5 -70t-42.5 -47q-8 -6 -18.5 -11.5t-21 -8t-19.5 -0.5t-14 10q-13 19 15 47zM60 632q0 23 13.5 40.5t41.5 17.5q29 0 42.5 -17.5
t13.5 -40.5v-365l170 194q23 26 44.5 28.5t39.5 -14.5q15 -15 13 -36t-21 -41l-141 -150l158 -150q19 -18 21.5 -40.5t-12.5 -38.5q-20 -22 -43 -18t-44 26l-185 188v-157q0 -24 -13.5 -41t-42.5 -17q-28 0 -41.5 17t-13.5 41v574z" />
    <glyph glyph-name="lcommaaccent" unicode="&#x13c;" horiz-adv-x="340" 
d="M153 -213q14 13 24.5 28.5t10.5 34.5q0 12 -8.5 20t-22.5 14q-37 17 -23 53q7 17 23.5 22.5t39.5 0.5q35 -8 55.5 -32t20.5 -61q0 -40 -19.5 -70t-42.5 -47q-8 -6 -18.5 -11.5t-21 -8t-19.5 -0.5t-14 10q-13 19 15 47zM60 632q0 23 14 40.5t42 17.5q29 0 43 -17.5
t14 -40.5v-462q0 -42 13 -61t44 -19q14 0 29 4t24 8q19 8 36.5 3t24.5 -22q9 -23 -0.5 -41t-31.5 -30q-21 -12 -48 -17t-53 -5q-70 0 -110.5 38t-40.5 126v478z" />
    <glyph glyph-name="gcommaaccent" unicode="&#x123;" horiz-adv-x="513" 
d="M287 717q-17 -15 -26 -28.5t-9 -31.5q0 -12 8.5 -21t22.5 -14q35 -19 23 -52q-15 -33 -62 -22q-33 7 -53.5 31t-20.5 59q0 39 19 69t42 47q16 12 38 17.5t32 -8.5q13 -19 -14 -46zM50 331q0 75 50.5 122t149.5 47q22 0 41.5 -2.5t36.5 -7.5h138q46 0 46 -40
q0 -39 -46 -39h-35q9 -18 14.5 -38t5.5 -42q0 -36 -13 -67t-38 -53t-63 -34.5t-87 -12.5q-55 0 -95 15q-13 -8 -20 -19t-7 -22t7 -19t24 -14.5t47 -10.5t75 -6q46 -2 84.5 -9t66.5 -21.5t43.5 -38t15.5 -58.5q0 -37 -15.5 -68t-47 -54t-78.5 -36t-110 -13q-66 0 -109 12.5
t-69 32.5t-36.5 45t-10.5 51q0 34 18.5 62.5t53.5 48.5q-25 14 -36 36t-11 43q0 29 15 52.5t39 43.5q-44 44 -44 114zM249 4q-43 3 -78 9q-24 -11 -39 -28.5t-15 -40.5q0 -12 6.5 -24t20.5 -21.5t37.5 -15.5t57.5 -6q78 0 111 22.5t33 52.5q0 26 -30 36.5t-104 15.5z
M151 331q0 -36 25.5 -58.5t73.5 -22.5t73.5 22.5t25.5 58.5q0 37 -25.5 60t-73.5 23t-73.5 -23t-25.5 -60z" />
    <glyph glyph-name="scedilla" unicode="&#x15f;" horiz-adv-x="433" 
d="M219 500q44 0 81 -9.5t62 -23.5q24 -14 30 -31.5t-2 -34.5q-16 -34 -63 -19q-21 8 -48.5 17.5t-55.5 9.5q-35 0 -51 -12t-16 -33q0 -23 18.5 -36.5t46.5 -24t61 -21t61 -27.5t46.5 -44t18.5 -69q0 -67 -42 -106.5t-130 -44.5l-6 -34q30 -2 50 -11.5t32 -23t16.5 -30
t4.5 -32.5q0 -20 -7 -38t-22 -31.5t-39 -22t-57 -8.5t-53.5 4.5t-36.5 12.5q-14 8 -18.5 20.5t0.5 24.5q5 13 16.5 15t22.5 -1q12 -3 25.5 -6t27.5 -3q43 0 43 32q0 18 -14 26.5t-45 13.5q-17 2 -22 12.5t-2 22.5l13 59q-30 4 -59.5 12.5t-51.5 22.5q-42 30 -23 69
q11 23 32 22t41 -10q29 -13 58.5 -20.5t57.5 -7.5q74 0 74 51q0 24 -18.5 37.5t-46.5 24.5t-61 21.5t-61 28t-46.5 45t-18.5 71.5q0 70 49 105t128 35z" />
    <glyph glyph-name="scommaaccent" unicode="&#x219;" horiz-adv-x="433" 
d="M185 -213q14 13 25 28.5t11 34.5q0 12 -9 20.5t-23 13.5q-35 19 -23 53q8 17 24 22.5t39 0.5q35 -8 56 -32t21 -61q0 -40 -19.5 -70t-43.5 -47q-8 -6 -18.5 -11.5t-20.5 -8t-19 -0.5t-14 10q-8 11 -4 22t18 25zM219 500q44 0 81 -9.5t62 -23.5q24 -14 30 -31.5t-2 -34.5
q-16 -34 -63 -19q-21 8 -48.5 17.5t-55.5 9.5q-35 0 -51 -12t-16 -33q0 -23 18.5 -36.5t46.5 -24t61 -21t61 -27.5t46.5 -44t18.5 -69q0 -72 -48 -112t-150 -40q-38 0 -82 9t-74 29q-42 30 -23 69q11 23 32 22t41 -10q29 -13 58.5 -20.5t57.5 -7.5q74 0 74 51
q0 24 -18.5 37.5t-46.5 24.5t-61 21.5t-61 28t-46.5 45t-18.5 71.5q0 70 49 105t128 35z" />
    <glyph glyph-name="uni021B" unicode="&#x21b;" horiz-adv-x="337" 
d="M157 -213q14 13 24.5 28.5t10.5 34.5q0 12 -8.5 20.5t-22.5 13.5q-36 19 -23 53q7 17 23.5 22.5t39.5 0.5q35 -8 55.5 -32t20.5 -61q0 -40 -19.5 -70t-42.5 -47q-8 -6 -18.5 -11.5t-21 -8t-19.5 -0.5t-14 10q-13 19 15 47zM60 557q0 23 14 40.5t42 17.5q29 0 43 -17.5
t14 -40.5v-62h85q54 0 54 -48q0 -23 -13.5 -35.5t-40.5 -12.5h-85v-223q0 -42 12.5 -61.5t44.5 -19.5q14 0 29 4t24 8q19 8 35.5 3.5t24.5 -22.5q9 -23 -1 -40.5t-30 -29.5q-21 -12 -47.5 -17.5t-52.5 -5.5q-72 0 -112 39.5t-40 129.5v393z" />
    <glyph glyph-name="ncommaaccent" unicode="&#x146;" horiz-adv-x="552" 
d="M219 -213q14 13 24.5 28.5t10.5 34.5q0 12 -8.5 20.5t-22.5 13.5q-36 19 -23 53q7 17 23.5 22.5t39.5 0.5q35 -8 55.5 -32t20.5 -61q0 -40 -19.5 -70t-42.5 -47q-8 -6 -18.5 -11.5t-21 -8t-19.5 -0.5t-14 10q-13 19 15 47zM60 432q0 23 14 40.5t42 17.5q29 0 43 -17.5
t14 -40.5v-15q23 43 63 63t85 20q49 0 81.5 -14.5t52.5 -42.5t28.5 -67.5t8.5 -89.5v-228q0 -24 -14 -41t-43 -17q-28 0 -42 17t-14 41v230q0 50 -18.5 81t-66.5 31q-36 0 -59.5 -17.5t-37 -47t-18.5 -68t-6 -80.5v-129q0 -24 -14 -41t-43 -17q-28 0 -42 17t-14 41v374z" />
    <glyph glyph-name="rcommaaccent" unicode="&#x157;" horiz-adv-x="367" 
d="M83 -213q-14 -14 -18 -25t4 -22q5 -8 14 -10t19 0.5t20.5 8t18.5 11.5q24 17 43.5 47t19.5 70q0 37 -21 61t-56 32q-23 5 -39 -0.5t-24 -22.5q-12 -34 23 -53q14 -5 23 -13.5t9 -20.5q0 -19 -11 -34.5t-25 -28.5zM60 432q0 23 14 40.5t42 17.5q29 0 43 -17t14 -37
q16 29 44 46.5t61 17.5q31 0 51.5 -8.5t31 -22t12.5 -29t-4 -29.5q-17 -38 -63 -22q-11 4 -22.5 6.5t-24.5 2.5q-45 0 -65.5 -41.5t-20.5 -129.5v-169q0 -24 -14 -41t-43 -17q-28 0 -42 17t-14 41v374z" />
    <glyph glyph-name="tcommaaccent" unicode="&#x163;" horiz-adv-x="337" 
d="M157 -213q14 13 24.5 28.5t10.5 34.5q0 12 -8.5 20.5t-22.5 13.5q-36 19 -23 53q7 17 23.5 22.5t39.5 0.5q35 -8 55.5 -32t20.5 -61q0 -40 -19.5 -70t-42.5 -47q-8 -6 -18.5 -11.5t-21 -8t-19.5 -0.5t-14 10q-13 19 15 47zM60 557q0 23 14 40.5t42 17.5q29 0 43 -17.5
t14 -40.5v-62h85q54 0 54 -48q0 -23 -13.5 -35.5t-40.5 -12.5h-85v-223q0 -42 12.5 -61.5t44.5 -19.5q14 0 29 4t24 8q19 8 35.5 3.5t24.5 -22.5q9 -23 -1 -40.5t-30 -29.5q-21 -12 -47.5 -17.5t-52.5 -5.5q-72 0 -112 39.5t-40 129.5v393z" />
    <glyph glyph-name="uni04DB" unicode="&#x4db;" horiz-adv-x="497" 
d="M35 203q0 46 16.5 67t56.5 21h242q-3 56 -30.5 87t-83.5 31q-26 0 -50.5 -5.5t-50.5 -14.5q-23 -8 -41 -5t-25 19q-9 21 0 39t33 30q14 7 31.5 12.5t36 9t37 5t34.5 1.5q57 0 99 -18.5t69 -52.5t40 -80.5t13 -101.5q0 -56 -14 -103.5t-41.5 -81.5t-69.5 -53t-97 -19
q-98 0 -151.5 56.5t-53.5 156.5zM244 81q56 0 81 38t26 97h-212q-2 -72 26 -103.5t79 -31.5zM87 618q0 27 16.5 44t46.5 17q29 0 46 -17t17 -44q0 -29 -17 -45t-46 -16q-30 0 -46.5 16t-16.5 45zM278 618q0 27 16 44t46 17q29 0 46 -17t17 -44q0 -29 -17 -45t-46 -16
q-30 0 -46 16t-16 45z" />
    <glyph glyph-name="uni04F3" unicode="&#x4f3;" horiz-adv-x="465" 
d="M21 401q-11 24 -6 48.5t32 35.5q29 11 48.5 -1.5t30.5 -39.5l117 -310l103 306q10 31 28.5 43.5t45.5 2.5q27 -9 28.5 -32t-6.5 -46l-156 -413q-22 -59 -42.5 -98.5t-42.5 -63t-47.5 -33.5t-57.5 -10q-17 0 -40 4t-41 14q-23 13 -31.5 31.5t0.5 38.5t25 22.5t34 -2.5
l25 -8t29 -4q35 0 55.5 33t38.5 81zM166 571q-16 -11 -33 -12.5t-29 13.5q-11 14 -7.5 30.5t26.5 30.5l112 75q17 11 34.5 12t28.5 -16q20 -31 -24 -61zM333 571q-16 -11 -33 -12.5t-29 13.5q-11 14 -7.5 30.5t26.5 30.5l112 75q17 11 34.5 12t28.5 -16q20 -31 -24 -61z" />
    <glyph glyph-name="uni04F1" unicode="&#x4f1;" horiz-adv-x="465" 
d="M21 401q-11 24 -6 48.5t32 35.5q29 11 48.5 -1.5t30.5 -39.5l117 -310l103 306q10 31 28.5 43.5t45.5 2.5q27 -9 28.5 -32t-6.5 -46l-156 -413q-22 -59 -42.5 -98.5t-42.5 -63t-47.5 -33.5t-57.5 -10q-17 0 -40 4t-41 14q-23 13 -31.5 31.5t0.5 38.5t25 22.5t34 -2.5
l25 -8t29 -4q35 0 55.5 33t38.5 81zM81 618q0 27 16.5 44t46.5 17q29 0 46 -17t17 -44q0 -29 -17 -45t-46 -16q-30 0 -46.5 16t-16.5 45zM272 618q0 27 16 44t46 17q29 0 46 -17t17 -44q0 -29 -17 -45t-46 -16q-30 0 -46 16t-16 45z" />
    <glyph glyph-name="uni04AB" unicode="&#x4ab;" horiz-adv-x="461" 
d="M420 37q-23 -18 -51 -28.5t-60 -15.5v-55q0 -23 -11 -38.5t-37 -15.5t-37.5 15.5t-11.5 38.5v57q-84 15 -130.5 78.5t-46.5 167.5q0 60 16.5 108t47 81.5t74.5 51.5t99 18q81 0 129 -28q23 -14 28 -31.5t-3 -35.5t-24 -23.5t-42 2.5q-20 6 -38.5 10.5t-46.5 4.5
q-58 0 -91 -42t-33 -116q0 -72 34.5 -111t90.5 -39q28 0 50.5 8.5t45.5 19.5q25 12 42 8.5t26 -18.5q11 -17 5.5 -36t-25.5 -36z" />
    <glyph glyph-name="uni0499" unicode="&#x499;" horiz-adv-x="451" 
d="M211 404q-24 0 -47.5 -6t-49.5 -16q-49 -18 -66 15q-8 19 -1.5 36.5t26.5 29.5q33 20 73.5 28.5t78.5 8.5q44 0 77 -10t54.5 -28t32 -42t10.5 -52q0 -38 -21.5 -69.5t-58.5 -42.5q41 -9 66.5 -38t25.5 -74q0 -60 -36 -100t-109 -50v-56q0 -23 -11 -38.5t-37 -15.5
t-37.5 15.5t-11.5 38.5v54q-31 3 -60 10t-50 20q-40 25 -24 65q14 35 61 20q25 -8 53.5 -14.5t57.5 -6.5q52 0 71 19.5t19 43.5q0 33 -25.5 47.5t-73.5 14.5h-40q-26 0 -37 9t-11 29q0 21 12 30t36 9h36q42 0 66.5 14.5t24.5 46.5q0 23 -16.5 39t-57.5 16z" />
    <glyph glyph-name="hcircumflex" unicode="&#x125;" horiz-adv-x="552" 
d="M60 632q0 23 14 40.5t42 17.5q29 0 43 -17.5t14 -40.5v-215q23 43 63 63t85 20q49 0 81.5 -14.5t52.5 -42.5t28.5 -67.5t8.5 -89.5v-228q0 -24 -14 -41t-43 -17q-28 0 -42 17t-14 41v230q0 50 -18.5 81t-66.5 31q-36 0 -59.5 -17.5t-37 -47t-18.5 -68t-6 -80.5v-129
q0 -24 -14 -41t-43 -17q-28 0 -42 17t-14 41v574zM86 873q32 18 65 0l120 -65q22 -11 27 -28t-4 -34t-25.5 -19.5t-35.5 8.5l-116 64l-108 -61q-20 -11 -36.5 -8t-24.5 20t-2.5 32t31.5 29z" />
    <glyph glyph-name="Agrave" unicode="&#xc0;" horiz-adv-x="611" 
d="M429 195h-257l-52 -141q-5 -13 -12 -25t-17 -19.5t-23.5 -9.5t-29.5 5q-23 10 -26.5 33t6.5 49l225 564q19 49 61 49q23 0 36.5 -12.5t21.5 -30.5l232 -569q9 -23 4 -48t-31 -35q-29 -11 -50 1t-32 41zM204 289h191l-97 252zM165 805q-27 14 -34 31t1 34q10 20 28.5 20.5
t38.5 -8.5l143 -67q26 -12 33.5 -29t-2.5 -35q-10 -19 -29.5 -19t-39.5 9z" />
    <glyph glyph-name="Aacute" unicode="&#xc1;" horiz-adv-x="611" 
d="M429 195h-257l-52 -141q-5 -13 -12 -25t-17 -19.5t-23.5 -9.5t-29.5 5q-23 10 -26.5 33t6.5 49l225 564q19 49 61 49q23 0 36.5 -12.5t21.5 -30.5l232 -569q9 -23 4 -48t-31 -35q-29 -11 -50 1t-32 41zM204 289h191l-97 252zM325 741q-20 -9 -39.5 -9.5t-29.5 19.5
q-10 19 -2.5 35.5t33.5 28.5l143 67q20 9 39 8t28 -20q19 -39 -33 -65z" />
    <glyph glyph-name="Acircumflex" unicode="&#xc2;" horiz-adv-x="611" 
d="M429 195h-257l-52 -141q-5 -13 -12 -25t-17 -19.5t-23.5 -9.5t-29.5 5q-23 10 -26.5 33t6.5 49l225 564q19 49 61 49q23 0 36.5 -12.5t21.5 -30.5l232 -569q9 -23 4 -48t-31 -35q-29 -11 -50 1t-32 41zM204 289h191l-97 252zM266 873q32 18 65 0l120 -65q22 -11 27 -28
t-4 -34t-25.5 -19.5t-35.5 8.5l-116 64l-108 -61q-20 -11 -36.5 -8t-24.5 20t-2.5 32t31.5 29z" />
    <glyph glyph-name="Atilde" unicode="&#xc3;" horiz-adv-x="611" 
d="M429 195h-257l-52 -141q-5 -13 -12 -25t-17 -19.5t-23.5 -9.5t-29.5 5q-23 10 -26.5 33t6.5 49l225 564q19 49 61 49q23 0 36.5 -12.5t21.5 -30.5l232 -569q9 -23 4 -48t-31 -35q-29 -11 -50 1t-32 41zM204 289h191l-97 252zM377 812q13 0 23 6t21 15q13 11 28.5 15
t29.5 -8t11 -29.5t-17 -33.5q-19 -22 -45 -34t-51 -12q-22 0 -40.5 7t-35 15l-31.5 15t-28 7q-14 0 -24.5 -6t-23.5 -17q-13 -10 -26.5 -13.5t-26.5 6.5q-14 11 -12 30t17 34q20 22 45 34t50 12q21 0 40.5 -6.5t36.5 -15t32 -15t27 -6.5z" />
    <glyph glyph-name="Adieresis" unicode="&#xc4;" horiz-adv-x="611" 
d="M429 195h-257l-52 -141q-5 -13 -12 -25t-17 -19.5t-23.5 -9.5t-29.5 5q-23 10 -26.5 33t6.5 49l225 564q19 49 61 49q23 0 36.5 -12.5t21.5 -30.5l232 -569q9 -23 4 -48t-31 -35q-29 -11 -50 1t-32 41zM204 289h191l-97 252zM125 796q0 29 21 44.5t51 15.5q32 0 53 -15.5
t21 -44.5t-21 -43.5t-53 -14.5q-30 0 -51 14.5t-21 43.5zM333 796q0 29 20.5 44.5t52.5 15.5q31 0 52 -15.5t21 -44.5t-21 -43.5t-52 -14.5q-32 0 -52.5 14.5t-20.5 43.5z" />
    <glyph glyph-name="Aring" unicode="&#xc5;" horiz-adv-x="611" 
d="M353 674q2 -2 4.5 -7t4.5 -10l232 -568q9 -23 4.5 -47.5t-30.5 -35.5q-29 -12 -50.5 0t-32.5 40l-56 149h-258l-51 -141q-5 -13 -12 -25t-17.5 -19.5t-24 -9.5t-29.5 5q-22 9 -25.5 32.5t6.5 49.5l225 564q6 14 12 23q-35 9 -52.5 32t-17.5 56q0 42 30.5 67.5t88.5 25.5
t88.5 -25.5t30.5 -67.5q0 -33 -18.5 -56.5t-51.5 -31.5zM204 289h191l-97 252zM259 762q0 -18 11.5 -31t33.5 -13q21 0 33.5 12.5t12.5 31.5q0 18 -13 30.5t-33 12.5q-21 0 -33 -12t-12 -31z" />
    <glyph glyph-name="Amacron" unicode="&#x100;" horiz-adv-x="611" 
d="M429 195h-257l-52 -141q-5 -13 -12 -25t-17 -19.5t-23.5 -9.5t-29.5 5q-23 10 -26.5 33t6.5 49l225 564q19 49 61 49q23 0 36.5 -12.5t21.5 -30.5l232 -569q9 -23 4 -48t-31 -35q-29 -11 -50 1t-32 41zM204 289h191l-97 252zM179 748q-48 0 -48 39q0 40 48 40h245
q48 0 48 -40q0 -39 -48 -39h-245z" />
    <glyph glyph-name="Aogonek" unicode="&#x104;" horiz-adv-x="611" 
d="M568 -17q-8 -8 -17.5 -19t-18 -24.5t-14 -28t-5.5 -29.5q0 -23 11 -33.5t28 -10.5q10 0 18.5 2.5t16.5 4.5q25 8 36 -11q8 -12 2.5 -28t-21.5 -27q-14 -9 -31.5 -14t-43.5 -5q-54 0 -88 28.5t-34 80.5q0 48 23.5 87t63.5 68l-65 171h-258l-51 -141q-5 -13 -12 -25
t-17.5 -19.5t-24 -9t-29.5 4.5q-23 8 -26 32t7 50l225 564q19 49 61 49q23 0 36.5 -12.5t21.5 -30.5l232 -572q7 -19 9 -32.5t-2 -25t-12.5 -22t-20.5 -22.5zM204 289h191l-97 252z" />
    <glyph glyph-name="Abreve" unicode="&#x102;" horiz-adv-x="611" 
d="M429 195h-257l-52 -141q-5 -13 -12 -25t-17 -19.5t-23.5 -9.5t-29.5 5q-23 10 -26.5 33t6.5 49l225 564q19 49 61 49q23 0 36.5 -12.5t21.5 -30.5l232 -569q9 -23 4 -48t-31 -35q-29 -11 -50 1t-32 41zM204 289h191l-97 252zM305 734q-57 0 -98 19t-60 45q-11 15 -12 32
t12 29q9 8 17.5 10t16.5 0t16 -7.5t15 -12.5q21 -20 43.5 -29t49.5 -9t49 8.5t43 28.5q14 14 31 20t34 -9q14 -12 12 -29t-13 -32q-19 -26 -59 -45t-97 -19z" />
    <glyph glyph-name="Egrave" unicode="&#xc8;" horiz-adv-x="561" 
d="M75 628q0 26 15.5 44t45.5 18h338q26 0 41.5 -14.5t15.5 -39.5q0 -24 -15.5 -38.5t-41.5 -14.5h-279v-175h223q27 0 42.5 -14t15.5 -39q0 -24 -15.5 -39t-42.5 -15h-223v-194h289q26 0 41.5 -14.5t15.5 -39.5q0 -24 -15.5 -38.5t-41.5 -14.5h-347q-30 0 -46 18t-16 44
v566zM177 805q-27 14 -34 31t1 34q10 20 28.5 20.5t38.5 -8.5l143 -67q26 -12 33.5 -29t-2.5 -35q-10 -19 -29.5 -19t-39.5 9z" />
    <glyph glyph-name="Eacute" unicode="&#xc9;" horiz-adv-x="561" 
d="M75 628q0 26 15.5 44t45.5 18h338q26 0 41.5 -14.5t15.5 -39.5q0 -24 -15.5 -38.5t-41.5 -14.5h-279v-175h223q27 0 42.5 -14t15.5 -39q0 -24 -15.5 -39t-42.5 -15h-223v-194h289q26 0 41.5 -14.5t15.5 -39.5q0 -24 -15.5 -38.5t-41.5 -14.5h-347q-30 0 -46 18t-16 44
v566zM308 741q-20 -9 -39.5 -9.5t-29.5 19.5q-10 19 -2.5 35.5t33.5 28.5l143 67q20 9 39 8t28 -20q19 -39 -33 -65z" />
    <glyph glyph-name="Ecircumflex" unicode="&#xca;" horiz-adv-x="561" 
d="M75 628q0 26 15.5 44t45.5 18h338q26 0 41.5 -14.5t15.5 -39.5q0 -24 -15.5 -38.5t-41.5 -14.5h-279v-175h223q27 0 42.5 -14t15.5 -39q0 -24 -15.5 -39t-42.5 -15h-223v-194h289q26 0 41.5 -14.5t15.5 -39.5q0 -24 -15.5 -38.5t-41.5 -14.5h-347q-30 0 -46 18t-16 44
v566zM265 873q32 18 65 0l120 -65q22 -11 27 -28t-4 -34t-25.5 -19.5t-35.5 8.5l-116 64l-108 -61q-20 -11 -36.5 -8t-24.5 20t-2.5 32t31.5 29z" />
    <glyph glyph-name="Edieresis" unicode="&#xcb;" horiz-adv-x="561" 
d="M75 628q0 26 15.5 44t45.5 18h338q26 0 41.5 -14.5t15.5 -39.5q0 -24 -15.5 -38.5t-41.5 -14.5h-279v-175h223q27 0 42.5 -14t15.5 -39q0 -24 -15.5 -39t-42.5 -15h-223v-194h289q26 0 41.5 -14.5t15.5 -39.5q0 -24 -15.5 -38.5t-41.5 -14.5h-347q-30 0 -46 18t-16 44
v566zM115 796q0 29 21 44.5t51 15.5q32 0 53 -15.5t21 -44.5t-21 -43.5t-53 -14.5q-30 0 -51 14.5t-21 43.5zM323 796q0 29 20.5 44.5t52.5 15.5q31 0 52 -15.5t21 -44.5t-21 -43.5t-52 -14.5q-32 0 -52.5 14.5t-20.5 43.5z" />
    <glyph glyph-name="Emacron" unicode="&#x112;" horiz-adv-x="561" 
d="M75 628q0 26 15.5 44t45.5 18h338q26 0 41.5 -14.5t15.5 -39.5q0 -24 -15.5 -38.5t-41.5 -14.5h-279v-175h223q27 0 42.5 -14t15.5 -39q0 -24 -15.5 -39t-42.5 -15h-223v-194h289q26 0 41.5 -14.5t15.5 -39.5q0 -24 -15.5 -38.5t-41.5 -14.5h-347q-30 0 -46 18t-16 44
v566zM176 748q-48 0 -48 39q0 40 48 40h245q48 0 48 -40q0 -39 -48 -39h-245z" />
    <glyph glyph-name="Edotaccent" unicode="&#x116;" horiz-adv-x="561" 
d="M75 628q0 26 15.5 44t45.5 18h338q26 0 41.5 -14.5t15.5 -39.5q0 -24 -15.5 -38.5t-41.5 -14.5h-279v-175h223q27 0 42.5 -14t15.5 -39q0 -24 -15.5 -39t-42.5 -15h-223v-194h289q26 0 41.5 -14.5t15.5 -39.5q0 -24 -15.5 -38.5t-41.5 -14.5h-347q-30 0 -46 18t-16 44
v566zM214 804q0 34 24 49t56 15t56 -15t24 -49t-24 -48.5t-56 -14.5t-56 14.5t-24 48.5z" />
    <glyph glyph-name="Eogonek" unicode="&#x118;" horiz-adv-x="561" 
d="M75 628q0 26 15.5 44t45.5 18h338q26 0 41.5 -14.5t15.5 -39.5q0 -24 -15.5 -38.5t-41.5 -14.5h-279v-175h223q27 0 42.5 -14t15.5 -39q0 -24 -15.5 -39t-42.5 -15h-223v-194h289q26 0 41.5 -14.5t15.5 -39.5q0 -24 -15.5 -38.5t-41.5 -14.5h-32q-28 -26 -47.5 -56
t-19.5 -65q0 -21 11 -31t28 -10q10 0 18.5 2.5t16.5 4.5q25 8 36 -11q8 -14 2.5 -29t-21.5 -26q-14 -9 -31.5 -14t-43.5 -5q-53 0 -87.5 30t-34.5 80q0 38 15 71t39 59h-196q-30 0 -46 18t-16 44v566z" />
    <glyph glyph-name="Ecaron" unicode="&#x11a;" horiz-adv-x="561" 
d="M75 628q0 26 15.5 44t45.5 18h338q26 0 41.5 -14.5t15.5 -39.5q0 -24 -15.5 -38.5t-41.5 -14.5h-279v-175h223q27 0 42.5 -14t15.5 -39q0 -24 -15.5 -39t-42.5 -15h-223v-194h289q26 0 41.5 -14.5t15.5 -39.5q0 -24 -15.5 -38.5t-41.5 -14.5h-347q-30 0 -46 18t-16 44
v566zM342 739q-32 -18 -65 0l-120 65q-22 11 -28 29t5 35t27 18t34 -9l118 -66l106 63q20 11 36.5 8t24.5 -20t2.5 -32t-31.5 -29z" />
    <glyph glyph-name="uni04D6" unicode="&#x4d6;" horiz-adv-x="561" 
d="M75 628q0 26 15.5 44t45.5 18h338q26 0 41.5 -14.5t15.5 -39.5q0 -24 -15.5 -38.5t-41.5 -14.5h-279v-175h223q27 0 42.5 -14t15.5 -39q0 -24 -15.5 -39t-42.5 -15h-223v-194h289q26 0 41.5 -14.5t15.5 -39.5q0 -24 -15.5 -38.5t-41.5 -14.5h-347q-30 0 -46 18t-16 44
v566zM301 734q-57 0 -98 19t-60 45q-11 15 -12 32t12 29q9 8 17.5 10t16.5 0t16 -7.5t15 -12.5q21 -20 43.5 -29t49.5 -9t49 8.5t43 28.5q14 14 31 20t34 -9q14 -12 12 -29t-13 -32q-19 -26 -59 -45t-97 -19z" />
    <glyph glyph-name="Igrave" unicode="&#xcc;" horiz-adv-x="270" 
d="M75 628q0 26 15 44t45 18q29 0 44.5 -18t15.5 -44v-567q0 -26 -15.5 -43.5t-44.5 -17.5q-30 0 -45 17.5t-15 43.5v567zM-20 805q-27 14 -34 31t1 34q10 20 28.5 20.5t38.5 -8.5l143 -67q26 -12 33.5 -29t-2.5 -35q-10 -19 -29.5 -19t-39.5 9z" />
    <glyph glyph-name="Iacute" unicode="&#xcd;" horiz-adv-x="270" 
d="M75 628q0 26 15 44t45 18q29 0 44.5 -18t15.5 -44v-567q0 -26 -15.5 -43.5t-44.5 -17.5q-30 0 -45 17.5t-15 43.5v567zM146 741q-20 -9 -39.5 -9.5t-29.5 19.5q-10 19 -2.5 35.5t33.5 28.5l143 67q20 9 39 8t28 -20q19 -39 -33 -65z" />
    <glyph glyph-name="Icircumflex" unicode="&#xce;" horiz-adv-x="270" 
d="M75 628q0 26 15 44t45 18q29 0 44.5 -18t15.5 -44v-567q0 -26 -15.5 -43.5t-44.5 -17.5q-30 0 -45 17.5t-15 43.5v567zM99 873q32 18 65 0l120 -65q22 -11 27 -28t-4 -34t-25.5 -19.5t-35.5 8.5l-116 64l-108 -61q-20 -11 -36.5 -8t-24.5 20t-2.5 32t31.5 29z" />
    <glyph glyph-name="Idieresis" unicode="&#xcf;" horiz-adv-x="270" 
d="M75 628q0 26 15 44t45 18q29 0 44.5 -18t15.5 -44v-567q0 -26 -15.5 -43.5t-44.5 -17.5q-30 0 -45 17.5t-15 43.5v567zM-41 796q0 29 21 44.5t51 15.5q32 0 53 -15.5t21 -44.5t-21 -43.5t-53 -14.5q-30 0 -51 14.5t-21 43.5zM167 796q0 29 20.5 44.5t52.5 15.5
q31 0 52 -15.5t21 -44.5t-21 -43.5t-52 -14.5q-32 0 -52.5 14.5t-20.5 43.5z" />
    <glyph glyph-name="uni04D2" unicode="&#x4d2;" horiz-adv-x="611" 
d="M429 195h-257l-52 -141q-5 -13 -12 -25t-17 -19.5t-23.5 -9.5t-29.5 5q-23 10 -26.5 33t6.5 49l225 564q19 49 61 49q23 0 36.5 -12.5t21.5 -30.5l232 -569q9 -23 4 -48t-31 -35q-29 -11 -50 1t-32 41zM204 289h191l-97 252zM125 796q0 29 21 44.5t51 15.5q32 0 53 -15.5
t21 -44.5t-21 -43.5t-53 -14.5q-30 0 -51 14.5t-21 43.5zM333 796q0 29 20.5 44.5t52.5 15.5q31 0 52 -15.5t21 -44.5t-21 -43.5t-52 -14.5q-32 0 -52.5 14.5t-20.5 43.5z" />
    <glyph glyph-name="Imacron" unicode="&#x12a;" horiz-adv-x="270" 
d="M75 628q0 26 15 44t45 18q29 0 44.5 -18t15.5 -44v-567q0 -26 -15.5 -43.5t-44.5 -17.5q-30 0 -45 17.5t-15 43.5v567zM13 748q-48 0 -48 39q0 40 48 40h245q48 0 48 -40q0 -39 -48 -39h-245z" />
    <glyph glyph-name="Iogonek" unicode="&#x12e;" horiz-adv-x="274" 
d="M170 -13q-8 -8 -18 -19.5t-19 -25.5t-15.5 -30t-6.5 -34t9.5 -29t29.5 -11q10 0 18.5 2.5t16.5 4.5q25 8 36 -11q8 -12 2.5 -28t-21.5 -27q-14 -9 -31.5 -14t-43.5 -5q-54 0 -88 27t-34 81q0 88 72 149v611q0 26 15 44t45 18q29 0 44.5 -18t15.5 -44v-577q0 -23 -7.5 -37
t-19.5 -27z" />
    <glyph glyph-name="Idotaccent" unicode="&#x130;" horiz-adv-x="270" 
d="M75 628q0 26 15 44t45 18q29 0 44.5 -18t15.5 -44v-567q0 -26 -15.5 -43.5t-44.5 -17.5q-30 0 -45 17.5t-15 43.5v567zM54 804q0 34 24 49t56 15t56 -15t24 -49t-24 -48.5t-56 -14.5t-56 14.5t-24 48.5z" />
    <glyph glyph-name="Ccedilla" unicode="&#xc7;" horiz-adv-x="634" 
d="M368 593q-47 0 -83.5 -18t-61.5 -50t-38.5 -78t-13.5 -101q0 -60 15.5 -106.5t42.5 -78t63.5 -48t78.5 -16.5t75.5 11.5t66.5 31.5q25 14 45 12t31 -19q12 -18 7.5 -41t-30.5 -43q-36 -26 -82.5 -41.5t-108.5 -17.5l-6 -33q30 -2 50 -11.5t32 -23t16.5 -30t4.5 -32.5
q0 -20 -7 -38t-22 -31.5t-39 -22t-57 -8.5t-53.5 4.5t-36.5 12.5q-14 8 -18.5 20.5t0.5 24.5q5 13 16.5 15t22.5 -1q12 -3 25.5 -6t27.5 -3q43 0 43 32q0 18 -14 26.5t-45 13.5q-17 2 -22 12.5t-2 22.5l13 60q-66 9 -114.5 37.5t-80.5 74.5t-48 106.5t-16 132.5
q0 79 21.5 144.5t62.5 112.5t100.5 72.5t136.5 25.5q63 0 109 -12.5t76 -33.5q23 -16 27.5 -35.5t-3.5 -37.5q-17 -38 -76 -16q-29 11 -58.5 19.5t-72.5 8.5z" />
    <glyph glyph-name="Ydieresis" unicode="&#x178;" horiz-adv-x="566" 
d="M225 299l-197 282q-17 26 -19 52.5t25 46.5q14 10 27.5 11t25.5 -4t22.5 -15t18.5 -23l161 -242l156 242q7 11 16.5 21t21 15t24.5 4.5t27 -9.5q24 -16 21.5 -40.5t-16.5 -45.5l-194 -290v-242q0 -26 -15.5 -43.5t-44.5 -17.5q-30 0 -45 17.5t-15 43.5v237zM110 796
q0 29 21 44.5t51 15.5q32 0 53 -15.5t21 -44.5t-21 -43.5t-53 -14.5q-30 0 -51 14.5t-21 43.5zM318 796q0 29 20.5 44.5t52.5 15.5q31 0 52 -15.5t21 -44.5t-21 -43.5t-52 -14.5q-32 0 -52.5 14.5t-20.5 43.5z" />
    <glyph glyph-name="Yacute" unicode="&#xdd;" horiz-adv-x="566" 
d="M225 299l-197 282q-17 26 -19 52.5t25 46.5q14 10 27.5 11t25.5 -4t22.5 -15t18.5 -23l161 -242l156 242q7 11 16.5 21t21 15t24.5 4.5t27 -9.5q24 -16 21.5 -40.5t-16.5 -45.5l-194 -290v-242q0 -26 -15.5 -43.5t-44.5 -17.5q-30 0 -45 17.5t-15 43.5v237zM298 741
q-20 -9 -39.5 -9.5t-29.5 19.5q-10 19 -2.5 35.5t33.5 28.5l143 67q20 9 39 8t28 -20q19 -39 -33 -65z" />
    <glyph glyph-name="Scaron" unicode="&#x160;" horiz-adv-x="551" 
d="M269 590q-51 0 -75 -19t-24 -53t26 -54t64.5 -35t84 -29.5t84 -38.5t64.5 -61.5t26 -97.5q0 -46 -14 -85t-44 -67t-76.5 -44t-110.5 -16q-53 0 -101.5 10.5t-88.5 30.5q-34 18 -45.5 43t2.5 51q12 23 34.5 23.5t51.5 -11.5q39 -18 74 -27.5t76 -9.5q55 0 88 21.5t33 65.5
q0 38 -26 60t-64.5 37.5t-84 29.5t-84 37.5t-64.5 61.5t-26 101q0 83 57 134.5t172 51.5q48 0 93.5 -11t80.5 -31q29 -16 38.5 -37.5t-3.5 -46.5q-7 -14 -18 -19.5t-24 -5.5t-26.5 4t-26.5 10q-30 13 -60 20t-63 7zM318 739q-32 -18 -65 0l-120 65q-22 11 -28 29t5 35t27 18
t34 -9l118 -66l106 63q20 11 36.5 8t24.5 -20t2.5 -32t-31.5 -29z" />
    <glyph glyph-name="Sacute" unicode="&#x15a;" horiz-adv-x="551" 
d="M269 590q-51 0 -75 -19t-24 -53t26 -54t64.5 -35t84 -29.5t84 -38.5t64.5 -61.5t26 -97.5q0 -46 -14 -85t-44 -67t-76.5 -44t-110.5 -16q-53 0 -101.5 10.5t-88.5 30.5q-34 18 -45.5 43t2.5 51q12 23 34.5 23.5t51.5 -11.5q39 -18 74 -27.5t76 -9.5q55 0 88 21.5t33 65.5
q0 38 -26 60t-64.5 37.5t-84 29.5t-84 37.5t-64.5 61.5t-26 101q0 83 57 134.5t172 51.5q48 0 93.5 -11t80.5 -31q29 -16 38.5 -37.5t-3.5 -46.5q-7 -14 -18 -19.5t-24 -5.5t-26.5 4t-26.5 10q-30 13 -60 20t-63 7zM268 741q-20 -9 -39.5 -9.5t-29.5 19.5q-10 19 -2.5 35.5
t33.5 28.5l143 67q20 9 39 8t28 -20q19 -39 -33 -65z" />
    <glyph glyph-name="Scircumflex" unicode="&#x15c;" horiz-adv-x="551" 
d="M269 590q-51 0 -75 -19t-24 -53t26 -54t64.5 -35t84 -29.5t84 -38.5t64.5 -61.5t26 -97.5q0 -46 -14 -85t-44 -67t-76.5 -44t-110.5 -16q-53 0 -101.5 10.5t-88.5 30.5q-34 18 -45.5 43t2.5 51q12 23 34.5 23.5t51.5 -11.5q39 -18 74 -27.5t76 -9.5q55 0 88 21.5t33 65.5
q0 38 -26 60t-64.5 37.5t-84 29.5t-84 37.5t-64.5 61.5t-26 101q0 83 57 134.5t172 51.5q48 0 93.5 -11t80.5 -31q29 -16 38.5 -37.5t-3.5 -46.5q-7 -14 -18 -19.5t-24 -5.5t-26.5 4t-26.5 10q-30 13 -60 20t-63 7zM246 873q32 18 65 0l120 -65q22 -11 27 -28t-4 -34
t-25.5 -19.5t-35.5 8.5l-116 64l-108 -61q-20 -11 -36.5 -8t-24.5 20t-2.5 32t31.5 29z" />
    <glyph glyph-name="Scedilla" unicode="&#x15e;" horiz-adv-x="551" 
d="M192 -164q12 -3 25.5 -6t27.5 -3q43 0 43 32q0 18 -14 26.5t-45 13.5q-17 2 -22 12.5t-2 22.5l13 59q-37 4 -71 12.5t-63 23.5q-34 18 -45.5 44t2.5 52q12 23 34.5 23.5t51.5 -11.5q39 -18 74 -27.5t76 -9.5q55 0 88 21.5t33 65.5q0 38 -26 60t-64.5 37.5t-84 29.5
t-84 37.5t-64.5 61.5t-26 101q0 83 57 134.5t172 51.5q48 0 93.5 -10.5t80.5 -30.5q29 -16 38.5 -38t-3.5 -47q-7 -14 -18 -19.5t-24 -5.5t-26.5 4t-26.5 10q-30 13 -60 20t-63 7q-51 0 -75 -19t-24 -53t26 -54t64.5 -35t84 -29.5t84 -38.5t64.5 -61.5t26 -97.5
q0 -45 -13.5 -82.5t-41.5 -65.5t-71.5 -45t-103.5 -19l-6 -33q30 -3 50 -11.5t32 -21.5t16.5 -29t4.5 -32q0 -20 -7 -39t-22 -33t-39 -22.5t-57 -8.5t-53.5 4.5t-36.5 12.5q-14 8 -18.5 20.5t0.5 24.5q5 13 16.5 15t22.5 -1z" />
    <glyph glyph-name="Scommaaccent" unicode="&#x218;" horiz-adv-x="551" 
d="M236 -216q14 14 24 29t10 34q0 14 -8.5 22t-21.5 13q-17 9 -24 23.5t0 31.5q8 17 24 23t38 1q37 -8 58 -34t21 -63q0 -39 -19 -70.5t-43 -49.5q-8 -6 -18.5 -11.5t-21 -7.5t-19.5 -1t-15 9q-10 13 -4 25t19 26zM269 590q-51 0 -75 -19t-24 -53t26 -54t64.5 -35t84 -29.5
t84 -38.5t64.5 -61.5t26 -97.5q0 -46 -14 -85t-44 -67t-76.5 -44t-110.5 -16q-53 0 -101.5 10.5t-88.5 30.5q-34 18 -45.5 43t2.5 51q12 23 34.5 23.5t51.5 -11.5q39 -18 74 -27.5t76 -9.5q55 0 88 21.5t33 65.5q0 38 -26 60t-64.5 37.5t-84 29.5t-84 37.5t-64.5 61.5
t-26 101q0 83 57 134.5t172 51.5q48 0 93.5 -11t80.5 -31q29 -16 38.5 -37.5t-3.5 -46.5q-7 -14 -18 -19.5t-24 -5.5t-26.5 4t-26.5 10q-30 13 -60 20t-63 7z" />
    <glyph glyph-name="Ntilde" unicode="&#xd1;" horiz-adv-x="708" 
d="M522 628q0 25 11.5 43.5t42.5 18.5q32 0 43.5 -18.5t11.5 -43.5v-567q0 -27 -15.5 -44t-41.5 -17q-18 0 -31 9t-23 21l-334 443v-412q0 -25 -12 -43t-43 -18t-42.5 18t-11.5 43v566q0 24 12 43.5t44 19.5q20 0 34.5 -9.5t24.5 -23.5l330 -444v415zM425 812q13 0 23 6
t21 15q13 11 28.5 15t29.5 -8t11 -29.5t-17 -33.5q-19 -22 -45 -34t-51 -12q-22 0 -40.5 7t-35 15l-31.5 15t-28 7q-14 0 -24.5 -6t-23.5 -17q-13 -10 -26.5 -13.5t-26.5 6.5q-14 11 -12 30t17 34q20 22 45 34t50 12q21 0 40.5 -6.5t36.5 -15t32 -15t27 -6.5z" />
    <glyph glyph-name="Nacute" unicode="&#x143;" horiz-adv-x="708" 
d="M522 628q0 25 11.5 43.5t42.5 18.5q32 0 43.5 -18.5t11.5 -43.5v-567q0 -27 -15.5 -44t-41.5 -17q-18 0 -31 9t-23 21l-334 443v-412q0 -25 -12 -43t-43 -18t-42.5 18t-11.5 43v566q0 24 12 43.5t44 19.5q20 0 34.5 -9.5t24.5 -23.5l330 -444v415zM342 741
q-20 -9 -39.5 -9.5t-29.5 19.5q-10 19 -2.5 35.5t33.5 28.5l143 67q20 9 39 8t28 -20q19 -39 -33 -65z" />
    <glyph glyph-name="Ncommaaccent" unicode="&#x145;" horiz-adv-x="708" 
d="M301 -216q14 14 24 29t10 34q0 14 -8.5 21.5t-21.5 13.5q-18 8 -24 23t0 32q7 19 23.5 24.5t38.5 0.5q37 -8 58 -34.5t21 -63.5q0 -39 -19 -70.5t-43 -49.5q-8 -6 -18.5 -11.5t-21 -7.5t-19.5 -1t-15 9q-10 13 -4 25t19 26zM522 628q0 25 11.5 43.5t42.5 18.5
q32 0 43.5 -18.5t11.5 -43.5v-567q0 -27 -15.5 -44t-41.5 -17q-18 0 -31 9t-23 21l-334 443v-412q0 -25 -12 -43t-43 -18t-42.5 18t-11.5 43v566q0 24 12 43.5t44 19.5q20 0 34.5 -9.5t24.5 -23.5l330 -444v415z" />
    <glyph glyph-name="Ncaron" unicode="&#x147;" horiz-adv-x="708" 
d="M522 628q0 25 11.5 43.5t42.5 18.5q32 0 43.5 -18.5t11.5 -43.5v-567q0 -27 -15.5 -44t-41.5 -17q-18 0 -31 9t-23 21l-334 443v-412q0 -25 -12 -43t-43 -18t-42.5 18t-11.5 43v566q0 24 12 43.5t44 19.5q20 0 34.5 -9.5t24.5 -23.5l330 -444v415zM392 739q-32 -18 -65 0
l-120 65q-22 11 -28 29t5 35t27 18t34 -9l118 -66l106 63q20 11 36.5 8t24.5 -20t2.5 -32t-31.5 -29z" />
    <glyph glyph-name="uni01CF" unicode="&#x1cf;" horiz-adv-x="274" 
d="M77 628q0 26 15 44t45 18q29 0 44.5 -18t15.5 -44v-567q0 -26 -15.5 -43.5t-44.5 -17.5q-30 0 -45 17.5t-15 43.5v567zM173 739q-32 -18 -65 0l-120 65q-22 11 -28 29t5 35t27 18t34 -9l118 -66l106 63q20 11 36.5 8t24.5 -20t2.5 -32t-31.5 -29z" />
    <glyph glyph-name="Ograve" unicode="&#xd2;" horiz-adv-x="747" 
d="M45 345q0 74 20.5 139t62 113t103 75.5t142.5 27.5t143 -27.5t103 -75.5t62 -113t21 -139q0 -75 -21 -139.5t-62 -112.5t-103 -75.5t-143 -27.5t-142.5 27.5t-103 75.5t-62 112.5t-20.5 139.5zM171 345q0 -52 12.5 -97.5t38 -79t63 -52.5t88.5 -19t89 19t63.5 52.5t38 79
t12.5 97.5t-12.5 97t-38 78.5t-63.5 53t-89 19.5t-88.5 -19.5t-63 -53t-38 -78.5t-12.5 -97zM251 805q-27 14 -34 31t1 34q10 20 28.5 20.5t38.5 -8.5l143 -67q26 -12 33.5 -29t-2.5 -35q-10 -19 -29.5 -19t-39.5 9z" />
    <glyph glyph-name="Oacute" unicode="&#xd3;" horiz-adv-x="747" 
d="M45 345q0 74 20.5 139t62 113t103 75.5t142.5 27.5t143 -27.5t103 -75.5t62 -113t21 -139q0 -75 -21 -139.5t-62 -112.5t-103 -75.5t-143 -27.5t-142.5 27.5t-103 75.5t-62 112.5t-20.5 139.5zM171 345q0 -52 12.5 -97.5t38 -79t63 -52.5t88.5 -19t89 19t63.5 52.5t38 79
t12.5 97.5t-12.5 97t-38 78.5t-63.5 53t-89 19.5t-88.5 -19.5t-63 -53t-38 -78.5t-12.5 -97zM377 741q-20 -9 -39.5 -9.5t-29.5 19.5q-10 19 -2.5 35.5t33.5 28.5l143 67q20 9 39 8t28 -20q19 -39 -33 -65z" />
    <glyph glyph-name="Ocircumflex" unicode="&#xd4;" horiz-adv-x="747" 
d="M45 345q0 74 20.5 139t62 113t103 75.5t142.5 27.5t143 -27.5t103 -75.5t62 -113t21 -139q0 -75 -21 -139.5t-62 -112.5t-103 -75.5t-143 -27.5t-142.5 27.5t-103 75.5t-62 112.5t-20.5 139.5zM171 345q0 -52 12.5 -97.5t38 -79t63 -52.5t88.5 -19t89 19t63.5 52.5t38 79
t12.5 97.5t-12.5 97t-38 78.5t-63.5 53t-89 19.5t-88.5 -19.5t-63 -53t-38 -78.5t-12.5 -97zM336 873q32 18 65 0l120 -65q22 -11 27 -28t-4 -34t-25.5 -19.5t-35.5 8.5l-116 64l-108 -61q-20 -11 -36.5 -8t-24.5 20t-2.5 32t31.5 29z" />
    <glyph glyph-name="Otilde" unicode="&#xd5;" horiz-adv-x="747" 
d="M45 345q0 74 20.5 139t62 113t103 75.5t142.5 27.5t143 -27.5t103 -75.5t62 -113t21 -139q0 -75 -21 -139.5t-62 -112.5t-103 -75.5t-143 -27.5t-142.5 27.5t-103 75.5t-62 112.5t-20.5 139.5zM171 345q0 -52 12.5 -97.5t38 -79t63 -52.5t88.5 -19t89 19t63.5 52.5t38 79
t12.5 97.5t-12.5 97t-38 78.5t-63.5 53t-89 19.5t-88.5 -19.5t-63 -53t-38 -78.5t-12.5 -97zM445 812q13 0 23 6t21 15q13 11 28.5 15t29.5 -8t11 -29.5t-17 -33.5q-19 -22 -45 -34t-51 -12q-22 0 -40.5 7t-35 15l-31.5 15t-28 7q-14 0 -24.5 -6t-23.5 -17
q-13 -10 -26.5 -13.5t-26.5 6.5q-14 11 -12 30t17 34q20 22 45 34t50 12q21 0 40.5 -6.5t36.5 -15t32 -15t27 -6.5z" />
    <glyph glyph-name="Odieresis" unicode="&#xd6;" horiz-adv-x="747" 
d="M45 345q0 74 20.5 139t62 113t103 75.5t142.5 27.5t143 -27.5t103 -75.5t62 -113t21 -139q0 -75 -21 -139.5t-62 -112.5t-103 -75.5t-143 -27.5t-142.5 27.5t-103 75.5t-62 112.5t-20.5 139.5zM171 345q0 -52 12.5 -97.5t38 -79t63 -52.5t88.5 -19t89 19t63.5 52.5t38 79
t12.5 97.5t-12.5 97t-38 78.5t-63.5 53t-89 19.5t-88.5 -19.5t-63 -53t-38 -78.5t-12.5 -97zM192 796q0 29 21 44.5t51 15.5q32 0 53 -15.5t21 -44.5t-21 -43.5t-53 -14.5q-30 0 -51 14.5t-21 43.5zM400 796q0 29 20.5 44.5t52.5 15.5q31 0 52 -15.5t21 -44.5t-21 -43.5
t-52 -14.5q-32 0 -52.5 14.5t-20.5 43.5z" />
    <glyph glyph-name="Omacron" unicode="&#x14c;" horiz-adv-x="747" 
d="M45 345q0 74 20.5 139t62 113t103 75.5t142.5 27.5t143 -27.5t103 -75.5t62 -113t21 -139q0 -75 -21 -139.5t-62 -112.5t-103 -75.5t-143 -27.5t-142.5 27.5t-103 75.5t-62 112.5t-20.5 139.5zM171 345q0 -52 12.5 -97.5t38 -79t63 -52.5t88.5 -19t89 19t63.5 52.5t38 79
t12.5 97.5t-12.5 97t-38 78.5t-63.5 53t-89 19.5t-88.5 -19.5t-63 -53t-38 -78.5t-12.5 -97zM251 748q-48 0 -48 39q0 40 48 40h245q48 0 48 -40q0 -39 -48 -39h-245z" />
    <glyph glyph-name="Obreve" unicode="&#x14e;" horiz-adv-x="747" 
d="M45 345q0 74 20.5 139t62 113t103 75.5t142.5 27.5t143 -27.5t103 -75.5t62 -113t21 -139q0 -75 -21 -139.5t-62 -112.5t-103 -75.5t-143 -27.5t-142.5 27.5t-103 75.5t-62 112.5t-20.5 139.5zM171 345q0 -52 12.5 -97.5t38 -79t63 -52.5t88.5 -19t89 19t63.5 52.5t38 79
t12.5 97.5t-12.5 97t-38 78.5t-63.5 53t-89 19.5t-88.5 -19.5t-63 -53t-38 -78.5t-12.5 -97zM374 734q-57 0 -98 19t-60 45q-11 15 -12 32t12 29q9 8 17.5 10t16.5 0t16 -7.5t15 -12.5q21 -20 43.5 -29t49.5 -9t49 8.5t43 28.5q14 14 31 20t34 -9q14 -12 12 -29t-13 -32
q-19 -26 -59 -45t-97 -19z" />
    <glyph glyph-name="Ohungarumlaut" unicode="&#x150;" horiz-adv-x="747" 
d="M45 345q0 74 20.5 139t62 113t103 75.5t142.5 27.5t143 -27.5t103 -75.5t62 -113t21 -139q0 -75 -21 -139.5t-62 -112.5t-103 -75.5t-143 -27.5t-142.5 27.5t-103 75.5t-62 112.5t-20.5 139.5zM171 345q0 -52 12.5 -97.5t38 -79t63 -52.5t88.5 -19t89 19t63.5 52.5t38 79
t12.5 97.5t-12.5 97t-38 78.5t-63.5 53t-89 19.5t-88.5 -19.5t-63 -53t-38 -78.5t-12.5 -97zM271 741q-20 -9 -39.5 -9.5t-29.5 19.5q-10 19 -2.5 35.5t33.5 28.5l143 67q20 9 39 8t28 -20t2 -35.5t-35 -29.5zM497 741q-20 -9 -39.5 -9.5t-29.5 19.5q-10 19 -2.5 35.5
t33.5 28.5l143 67q20 9 39 8t28 -20t2 -35.5t-35 -29.5z" />
    <glyph glyph-name="Ugrave" unicode="&#xd9;" horiz-adv-x="679" 
d="M489 628q0 26 13.5 44t43.5 18q29 0 43.5 -18t14.5 -44v-347q0 -59 -12.5 -112t-43 -92.5t-81 -63t-126.5 -23.5q-75 0 -126 23t-82 62.5t-44.5 92t-13.5 111.5v349q0 26 15 44t44 18q30 0 45.5 -18t15.5 -44v-354q0 -36 7.5 -68.5t24.5 -56.5t45 -38t70 -14t70 14
t45 38.5t24.5 57t7.5 69.5v352zM236 805q-27 14 -34 31t1 34q10 20 28.5 20.5t38.5 -8.5l143 -67q26 -12 33.5 -29t-2.5 -35q-10 -19 -29.5 -19t-39.5 9z" />
    <glyph glyph-name="Uacute" unicode="&#xda;" horiz-adv-x="679" 
d="M489 628q0 26 13.5 44t43.5 18q29 0 43.5 -18t14.5 -44v-347q0 -59 -12.5 -112t-43 -92.5t-81 -63t-126.5 -23.5q-75 0 -126 23t-82 62.5t-44.5 92t-13.5 111.5v349q0 26 15 44t44 18q30 0 45.5 -18t15.5 -44v-354q0 -36 7.5 -68.5t24.5 -56.5t45 -38t70 -14t70 14
t45 38.5t24.5 57t7.5 69.5v352zM362 741q-20 -9 -39.5 -9.5t-29.5 19.5q-10 19 -2.5 35.5t33.5 28.5l143 67q20 9 39 8t28 -20q19 -39 -33 -65z" />
    <glyph glyph-name="Ucircumflex" unicode="&#xdb;" horiz-adv-x="679" 
d="M489 628q0 26 13.5 44t43.5 18q29 0 43.5 -18t14.5 -44v-347q0 -59 -12.5 -112t-43 -92.5t-81 -63t-126.5 -23.5q-75 0 -126 23t-82 62.5t-44.5 92t-13.5 111.5v349q0 26 15 44t44 18q30 0 45.5 -18t15.5 -44v-354q0 -36 7.5 -68.5t24.5 -56.5t45 -38t70 -14t70 14
t45 38.5t24.5 57t7.5 69.5v352zM308 873q32 18 65 0l120 -65q22 -11 27 -28t-4 -34t-25.5 -19.5t-35.5 8.5l-116 64l-108 -61q-20 -11 -36.5 -8t-24.5 20t-2.5 32t31.5 29z" />
    <glyph glyph-name="Udieresis" unicode="&#xdc;" horiz-adv-x="679" 
d="M489 628q0 26 13.5 44t43.5 18q29 0 43.5 -18t14.5 -44v-347q0 -59 -12.5 -112t-43 -92.5t-81 -63t-126.5 -23.5q-75 0 -126 23t-82 62.5t-44.5 92t-13.5 111.5v349q0 26 15 44t44 18q30 0 45.5 -18t15.5 -44v-354q0 -36 7.5 -68.5t24.5 -56.5t45 -38t70 -14t70 14
t45 38.5t24.5 57t7.5 69.5v352zM164 796q0 29 21 44.5t51 15.5q32 0 53 -15.5t21 -44.5t-21 -43.5t-53 -14.5q-30 0 -51 14.5t-21 43.5zM372 796q0 29 20.5 44.5t52.5 15.5q31 0 52 -15.5t21 -44.5t-21 -43.5t-52 -14.5q-32 0 -52.5 14.5t-20.5 43.5z" />
    <glyph glyph-name="Umacron" unicode="&#x16a;" horiz-adv-x="679" 
d="M489 628q0 26 13.5 44t43.5 18q29 0 43.5 -18t14.5 -44v-347q0 -59 -12.5 -112t-43 -92.5t-81 -63t-126.5 -23.5q-75 0 -126 23t-82 62.5t-44.5 92t-13.5 111.5v349q0 26 15 44t44 18q30 0 45.5 -18t15.5 -44v-354q0 -36 7.5 -68.5t24.5 -56.5t45 -38t70 -14t70 14
t45 38.5t24.5 57t7.5 69.5v352zM223 748q-48 0 -48 39q0 40 48 40h245q48 0 48 -40q0 -39 -48 -39h-245z" />
    <glyph glyph-name="Ubreve" unicode="&#x16c;" horiz-adv-x="679" 
d="M489 628q0 26 13.5 44t43.5 18q29 0 43.5 -18t14.5 -44v-347q0 -59 -12.5 -112t-43 -92.5t-81 -63t-126.5 -23.5q-75 0 -126 23t-82 62.5t-44.5 92t-13.5 111.5v349q0 26 15 44t44 18q30 0 45.5 -18t15.5 -44v-354q0 -36 7.5 -68.5t24.5 -56.5t45 -38t70 -14t70 14
t45 38.5t24.5 57t7.5 69.5v352zM346 734q-57 0 -98 19t-60 45q-11 15 -12 32t12 29q9 8 17.5 10t16.5 0t16 -7.5t15 -12.5q21 -20 43.5 -29t49.5 -9t49 8.5t43 28.5q14 14 31 20t34 -9q14 -12 12 -29t-13 -32q-19 -26 -59 -45t-97 -19z" />
    <glyph glyph-name="Uring" unicode="&#x16e;" horiz-adv-x="679" 
d="M489 628q0 26 13.5 44t43.5 18q29 0 43.5 -18t14.5 -44v-347q0 -59 -12.5 -112t-43 -92.5t-81 -63t-126.5 -23.5q-75 0 -126 23t-82 62.5t-44.5 92t-13.5 111.5v349q0 26 15 44t44 18q30 0 45.5 -18t15.5 -44v-354q0 -36 7.5 -68.5t24.5 -56.5t45 -38t70 -14t70 14
t45 38.5t24.5 57t7.5 69.5v352zM357 875q58 0 88.5 -25.5t30.5 -67.5q0 -43 -30.5 -68.5t-88.5 -25.5t-88.5 25.5t-30.5 68.5q0 42 30.5 67.5t88.5 25.5zM312 782q0 -18 11.5 -31t33.5 -13q21 0 33.5 12.5t12.5 31.5q0 18 -13 30.5t-33 12.5q-21 0 -33 -12t-12 -31z" />
    <glyph glyph-name="Uhungarumlaut" unicode="&#x170;" horiz-adv-x="679" 
d="M489 628q0 26 13.5 44t43.5 18q29 0 43.5 -18t14.5 -44v-347q0 -59 -12.5 -112t-43 -92.5t-81 -63t-126.5 -23.5q-75 0 -126 23t-82 62.5t-44.5 92t-13.5 111.5v349q0 26 15 44t44 18q30 0 45.5 -18t15.5 -44v-354q0 -36 7.5 -68.5t24.5 -56.5t45 -38t70 -14t70 14
t45 38.5t24.5 57t7.5 69.5v352zM251 741q-20 -9 -39.5 -9.5t-29.5 19.5q-10 19 -2.5 35.5t33.5 28.5l143 67q20 9 39 8t28 -20t2 -35.5t-35 -29.5zM477 741q-20 -9 -39.5 -9.5t-29.5 19.5q-10 19 -2.5 35.5t33.5 28.5l143 67q20 9 39 8t28 -20t2 -35.5t-35 -29.5z" />
    <glyph glyph-name="Uogonek" unicode="&#x172;" horiz-adv-x="679" 
d="M489 628q0 26 13.5 44t43.5 18q29 0 43.5 -18t14.5 -44v-348q0 -87 -26 -154t-97 -107q-21 -11 -42.5 -25.5t-37.5 -32.5q-19 -22 -28.5 -41t-9.5 -41q0 -20 10.5 -30.5t28.5 -10.5q10 0 18.5 2.5t16.5 4.5q25 8 36 -11q8 -12 2.5 -28t-21.5 -27q-14 -9 -31.5 -14
t-43.5 -5q-54 0 -88 29t-34 79q0 70 61 123q-69 4 -115.5 28.5t-75 64t-40.5 90.5t-12 107v347q0 26 15 44t44 18q30 0 45.5 -18t15.5 -44v-352q0 -36 7.5 -68.5t24.5 -57t45 -39t70 -14.5t70 14t45 38.5t24.5 57t7.5 69.5v352z" />
    <glyph glyph-name="Cacute" unicode="&#x106;" horiz-adv-x="629" 
d="M368 593q-47 0 -83.5 -18t-61.5 -50t-38.5 -78t-13.5 -101q0 -60 15.5 -106.5t42.5 -78t63.5 -48t78.5 -16.5t75.5 11.5t66.5 31.5q25 14 45 12t31 -19q12 -18 7.5 -41t-30.5 -43q-38 -28 -88 -43.5t-116 -15.5q-81 0 -140.5 25.5t-98.5 72.5t-58.5 112t-19.5 145
q0 79 21.5 144.5t62.5 112.5t100.5 72.5t136.5 25.5q63 0 109 -12.5t76 -33.5q23 -16 27.5 -35.5t-3.5 -37.5q-17 -38 -76 -16q-29 11 -58.5 19.5t-72.5 8.5zM367 741q-20 -9 -39.5 -9.5t-29.5 19.5q-10 19 -2.5 35.5t33.5 28.5l143 67q20 9 39 8t28 -20q19 -39 -33 -65z
" />
    <glyph glyph-name="Ccircumflex" unicode="&#x108;" horiz-adv-x="629" 
d="M368 593q-47 0 -83.5 -18t-61.5 -50t-38.5 -78t-13.5 -101q0 -60 15.5 -106.5t42.5 -78t63.5 -48t78.5 -16.5t75.5 11.5t66.5 31.5q25 14 45 12t31 -19q12 -18 7.5 -41t-30.5 -43q-38 -28 -88 -43.5t-116 -15.5q-81 0 -140.5 25.5t-98.5 72.5t-58.5 112t-19.5 145
q0 79 21.5 144.5t62.5 112.5t100.5 72.5t136.5 25.5q63 0 109 -12.5t76 -33.5q23 -16 27.5 -35.5t-3.5 -37.5q-17 -38 -76 -16q-29 11 -58.5 19.5t-72.5 8.5zM323 873q32 18 65 0l120 -65q22 -11 27 -28t-4 -34t-25.5 -19.5t-35.5 8.5l-116 64l-108 -61q-20 -11 -36.5 -8
t-24.5 20t-2.5 32t31.5 29z" />
    <glyph glyph-name="Cdotaccent" unicode="&#x10a;" horiz-adv-x="629" 
d="M368 593q-47 0 -83.5 -18t-61.5 -50t-38.5 -78t-13.5 -101q0 -60 15.5 -106.5t42.5 -78t63.5 -48t78.5 -16.5t75.5 11.5t66.5 31.5q25 14 45 12t31 -19q12 -18 7.5 -41t-30.5 -43q-38 -28 -88 -43.5t-116 -15.5q-81 0 -140.5 25.5t-98.5 72.5t-58.5 112t-19.5 145
q0 79 21.5 144.5t62.5 112.5t100.5 72.5t136.5 25.5q63 0 109 -12.5t76 -33.5q23 -16 27.5 -35.5t-3.5 -37.5q-17 -38 -76 -16q-29 11 -58.5 19.5t-72.5 8.5zM284 804q0 34 24 49t56 15t56 -15t24 -49t-24 -48.5t-56 -14.5t-56 14.5t-24 48.5z" />
    <glyph glyph-name="Ccaron" unicode="&#x10c;" horiz-adv-x="629" 
d="M368 593q-47 0 -83.5 -18t-61.5 -50t-38.5 -78t-13.5 -101q0 -60 15.5 -106.5t42.5 -78t63.5 -48t78.5 -16.5t75.5 11.5t66.5 31.5q25 14 45 12t31 -19q12 -18 7.5 -41t-30.5 -43q-38 -28 -88 -43.5t-116 -15.5q-81 0 -140.5 25.5t-98.5 72.5t-58.5 112t-19.5 145
q0 79 21.5 144.5t62.5 112.5t100.5 72.5t136.5 25.5q63 0 109 -12.5t76 -33.5q23 -16 27.5 -35.5t-3.5 -37.5q-17 -38 -76 -16q-29 11 -58.5 19.5t-72.5 8.5zM401 739q-32 -18 -65 0l-120 65q-22 11 -28 29t5 35t27 18t34 -9l118 -66l106 63q20 11 36.5 8t24.5 -20t2.5 -32
t-31.5 -29z" />
    <glyph glyph-name="uni04EA" unicode="&#x4ea;" horiz-adv-x="747" 
d="M196 796q0 29 21 44.5t51 15.5q32 0 53 -15.5t21 -44.5t-21 -43.5t-53 -14.5q-30 0 -51 14.5t-21 43.5zM404 796q0 29 20.5 44.5t52.5 15.5q31 0 52 -15.5t21 -44.5t-21 -43.5t-52 -14.5q-32 0 -52.5 14.5t-20.5 43.5zM45 345q0 74 20.5 139t62 113t103 75.5t142.5 27.5
t143 -27.5t103 -75.5t62 -113t21 -139q0 -75 -21 -139.5t-62 -112.5t-103 -75.5t-143 -27.5t-142.5 27.5t-103 75.5t-62 112.5t-20.5 139.5zM373 97q45 0 80.5 15t61 42t40 64t18.5 81h-400q4 -44 18.5 -81t40 -64t61 -42t80.5 -15zM373 593q-44 0 -78.5 -14.5t-59.5 -40
t-40.5 -61t-19.5 -76.5h397q-5 41 -20 76.5t-40.5 61t-60 40t-78.5 14.5z" />
    <glyph glyph-name="Dcaron" unicode="&#x10e;" horiz-adv-x="696" 
d="M75 612q0 26 11.5 44.5t43.5 24.5q29 6 73 10t95 4q177 0 265 -88t88 -259q0 -80 -22 -145.5t-66 -111.5t-110 -71t-154 -25q-54 0 -93.5 2t-74.5 8q-56 10 -56 64v543zM299 102q118 0 172 64.5t54 181.5t-54.5 178.5t-172.5 61.5q-30 0 -55.5 -2t-47.5 -4v-475
q26 -3 49 -4t55 -1zM351 739q-32 -18 -65 0l-120 65q-22 11 -28 29t5 35t27 18t34 -9l118 -66l106 63q20 11 36.5 8t24.5 -20t2.5 -32t-31.5 -29z" />
    <glyph glyph-name="Gcircumflex" unicode="&#x11c;" horiz-adv-x="667" 
d="M373 700q60 0 106.5 -12t76.5 -32q23 -16 29 -35.5t-4 -37.5t-28.5 -22.5t-48.5 6.5q-29 11 -60.5 18.5t-69.5 7.5q-50 0 -87.5 -18.5t-63.5 -51.5t-39 -79t-13 -101q0 -119 53 -182.5t152 -63.5q45 0 83 10t65 29v134h-113q-27 0 -40 12.5t-13 33.5q0 46 53 46h151
q24 0 42 -10t18 -42v-190q0 -43 -32 -66q-16 -12 -39.5 -23.5t-52 -20.5t-61.5 -14.5t-69 -5.5q-85 0 -146 25.5t-100.5 72t-58 112.5t-18.5 146q0 79 22.5 144.5t64.5 112t103 72t138 25.5zM329 873q32 18 65 0l120 -65q22 -11 27 -28t-4 -34t-25.5 -19.5t-35.5 8.5
l-116 64l-108 -61q-20 -11 -36.5 -8t-24.5 20t-2.5 32t31.5 29z" />
    <glyph glyph-name="Gbreve" unicode="&#x11e;" horiz-adv-x="667" 
d="M373 700q60 0 106.5 -12t76.5 -32q23 -16 29 -35.5t-4 -37.5t-28.5 -22.5t-48.5 6.5q-29 11 -60.5 18.5t-69.5 7.5q-50 0 -87.5 -18.5t-63.5 -51.5t-39 -79t-13 -101q0 -119 53 -182.5t152 -63.5q45 0 83 10t65 29v134h-113q-27 0 -40 12.5t-13 33.5q0 46 53 46h151
q24 0 42 -10t18 -42v-190q0 -43 -32 -66q-16 -12 -39.5 -23.5t-52 -20.5t-61.5 -14.5t-69 -5.5q-85 0 -146 25.5t-100.5 72t-58 112.5t-18.5 146q0 79 22.5 144.5t64.5 112t103 72t138 25.5zM364 734q-57 0 -98 19t-60 45q-11 15 -12 32t12 29q9 8 17.5 10t16.5 0t16 -7.5
t15 -12.5q21 -20 43.5 -29t49.5 -9t49 8.5t43 28.5q14 14 31 20t34 -9q14 -12 12 -29t-13 -32q-19 -26 -59 -45t-97 -19z" />
    <glyph glyph-name="Gdotaccent" unicode="&#x120;" horiz-adv-x="667" 
d="M373 700q60 0 106.5 -12t76.5 -32q23 -16 29 -35.5t-4 -37.5t-28.5 -22.5t-48.5 6.5q-29 11 -60.5 18.5t-69.5 7.5q-50 0 -87.5 -18.5t-63.5 -51.5t-39 -79t-13 -101q0 -119 53 -182.5t152 -63.5q45 0 83 10t65 29v134h-113q-27 0 -40 12.5t-13 33.5q0 46 53 46h151
q24 0 42 -10t18 -42v-190q0 -43 -32 -66q-16 -12 -39.5 -23.5t-52 -20.5t-61.5 -14.5t-69 -5.5q-85 0 -146 25.5t-100.5 72t-58 112.5t-18.5 146q0 79 22.5 144.5t64.5 112t103 72t138 25.5zM280 804q0 34 24 49t56 15t56 -15t24 -49t-24 -48.5t-56 -14.5t-56 14.5t-24 48.5
z" />
    <glyph glyph-name="Gcommaaccent" unicode="&#x122;" horiz-adv-x="667" 
d="M333 -216q14 14 24 29t10 34q0 14 -8.5 22t-21.5 13q-37 19 -23 55q7 17 23.5 23t38.5 1q37 -8 58 -34t21 -63q0 -39 -19.5 -70.5t-42.5 -49.5q-8 -6 -18.5 -11.5t-21 -7.5t-20 -1t-15.5 9q-10 13 -3.5 25t18.5 26zM373 700q60 0 106.5 -12t76.5 -32q23 -16 29 -35.5
t-4 -37.5t-28.5 -22.5t-48.5 6.5q-29 11 -60.5 18.5t-69.5 7.5q-50 0 -87.5 -18.5t-63.5 -51.5t-39 -79t-13 -101q0 -119 53 -182.5t152 -63.5q45 0 83 10t65 29v134h-113q-27 0 -40 12.5t-13 33.5q0 46 53 46h151q24 0 42 -10t18 -42v-190q0 -43 -32 -66
q-16 -12 -39.5 -23.5t-52 -20.5t-61.5 -14.5t-69 -5.5q-85 0 -146 25.5t-100.5 72t-58 112.5t-18.5 146q0 79 22.5 144.5t64.5 112t103 72t138 25.5z" />
    <glyph glyph-name="Hcircumflex" unicode="&#x124;" horiz-adv-x="708" 
d="M513 299h-318v-238q0 -26 -15.5 -43.5t-44.5 -17.5q-30 0 -45 17.5t-15 43.5v567q0 26 15 44t45 18q29 0 44.5 -18t15.5 -44v-222h318v222q0 26 15 44t45 18q29 0 44.5 -18t15.5 -44v-567q0 -26 -15.5 -43.5t-44.5 -17.5q-30 0 -45 17.5t-15 43.5v238zM317 873
q32 18 65 0l120 -65q22 -11 27 -28t-4 -34t-25.5 -19.5t-35.5 8.5l-116 64l-108 -61q-20 -11 -36.5 -8t-24.5 20t-2.5 32t31.5 29z" />
    <glyph glyph-name="Kcommaaccent" unicode="&#x136;" horiz-adv-x="571" 
d="M256 -216q14 14 24 29t10 34q0 14 -8.5 22t-21.5 13q-17 9 -24 23.5t0 31.5q8 17 24 23t38 1q37 -8 58 -34t21 -63q0 -39 -19 -70.5t-43 -49.5q-8 -6 -18.5 -11.5t-21 -7.5t-19.5 -1t-15 9q-10 13 -4 25t19 26zM75 628q0 26 15 44t45 18q29 0 44.5 -18t15.5 -44v-252
l245 281q20 23 43 30.5t46 -12.5q21 -19 16.5 -44t-23.5 -45l-213 -230l228 -241q22 -23 27 -49.5t-15 -46.5q-24 -23 -49 -17t-48 30l-257 283v-254q0 -26 -15.5 -43.5t-44.5 -17.5q-30 0 -45 17.5t-15 43.5v567z" />
    <glyph glyph-name="Rcommaaccent" unicode="&#x156;" horiz-adv-x="612" 
d="M276 -216q14 14 24 29t10 34q0 14 -8.5 22t-21.5 13q-17 9 -24 23.5t0 31.5q8 17 24 23t38 1q37 -8 58 -34t21 -63q0 -39 -19 -70.5t-43 -49.5q-8 -6 -18.5 -11.5t-21 -7.5t-19.5 -1t-15 9q-10 13 -4 25t19 26zM75 613q0 32 15 48t41 21q24 5 63 9t87 4q55 0 102.5 -10.5
t82 -35t54.5 -64.5t20 -98q0 -73 -34.5 -121t-91.5 -68l127 -193q17 -27 15 -54.5t-26 -41.5q-14 -8 -27.5 -8.5t-25 4.5t-21.5 15t-17 22l-142 234q-10 -2 -21 -2h-22q-13 0 -28.5 1t-30.5 3v-217q0 -26 -15.5 -43.5t-44.5 -17.5q-30 0 -45 17.5t-15 43.5v552zM263 364
q76 0 113.5 26.5t37.5 89.5q0 59 -39 83.5t-104 24.5q-21 0 -39 -2l-37 -4v-214q17 -2 35.5 -3t32.5 -1z" />
    <glyph glyph-name="Tcommaaccent" unicode="&#x162;" horiz-adv-x="599" 
d="M261 -216q14 14 24 29t10 34q0 14 -8.5 22t-21.5 13q-37 19 -23 55q7 17 23.5 23t38.5 1q37 -8 58 -34t21 -63q0 -39 -19.5 -70.5t-42.5 -49.5q-8 -6 -18.5 -11.5t-21 -7.5t-20 -1t-15.5 9q-10 13 -3.5 25t18.5 26zM536 690q27 0 42.5 -14t15.5 -39q0 -24 -15.5 -39
t-42.5 -15h-177v-522q0 -26 -15 -43.5t-45 -17.5t-45 17.5t-15 43.5v522h-177q-26 0 -41.5 15t-15.5 39q0 25 15.5 39t41.5 14h474z" />
    </font>
</defs>
</svg>
